<svg xmlns="http://www.w3.org/2000/svg" width="55" height="55" viewBox="0 0 55 55" fill="none"><path d="M51.4551 48.524H49.8021V1.96668C49.8021 1.53388 49.4567 1.18164 49.0323 1.18164H6.30685C5.88231 1.18164 5.53695 1.53377 5.53695 1.96668V48.524H3.54492C3.13038 48.524 2.79297 48.8614 2.79297 49.2759V53.0664C2.79297 53.4809 3.13038 53.8184 3.54492 53.8184H51.4551C51.8696 53.8184 52.207 53.4809 52.207 53.0664V49.2759C52.207 48.8614 51.8696 48.524 51.4551 48.524ZM28.2009 2.25586H48.7279V25.85H27.9468L28.2009 2.25586ZM27.9352 26.9242H48.7279V48.524H27.7025L27.9352 26.9242ZM6.61117 2.25586H27.1266L26.8724 25.85H6.61117V2.25586ZM6.61117 26.9242H26.8608L26.6282 48.524H6.61117V26.9242ZM51.1328 52.7441H3.86719V49.5982H51.1328V52.7441Z" fill="currentcolor"></path><path d="M17.0657 5.01519C16.8223 4.84546 16.4875 4.90487 16.3178 5.14807L11.4198 12.1636C11.2499 12.4069 11.3095 12.7416 11.5527 12.9114C11.6463 12.9768 11.7535 13.0081 11.8597 13.0081C12.0292 13.0081 12.1961 12.9281 12.3005 12.7785L17.1985 5.76295C17.3684 5.51964 17.3089 5.18502 17.0657 5.01519Z" fill="currentcolor"></path><path d="M18.735 8.51002C18.4845 8.35092 18.1527 8.42526 17.9937 8.67566L15.2914 12.9328C15.1325 13.1832 15.2067 13.5151 15.4571 13.6741C15.5463 13.7307 15.646 13.7578 15.7444 13.7578C15.9221 13.7578 16.096 13.6696 16.1985 13.5085L18.9008 9.25134C19.0597 9.00093 18.9854 8.669 18.735 8.51002Z" fill="currentcolor"></path><path d="M39.4436 32.1616C39.2003 31.992 38.8655 32.0513 38.6957 32.2945L33.7978 39.31C33.628 39.5533 33.6876 39.8881 33.9307 40.0579C34.0244 40.1232 34.1316 40.1546 34.2377 40.1546C34.4072 40.1546 34.5741 40.0745 34.6785 39.9249L39.5764 32.9094C39.7463 32.6661 39.6867 32.3314 39.4436 32.1615V32.1616Z" fill="currentcolor"></path><path d="M41.1129 35.6565C40.8623 35.4975 40.5306 35.5717 40.3716 35.8221L37.6693 40.0792C37.5104 40.3296 37.5845 40.6616 37.8349 40.8205C37.9242 40.8772 38.0239 40.9042 38.1223 40.9042C38.3 40.9042 38.4739 40.816 38.5764 40.6549L41.2787 36.3978C41.4375 36.1474 41.3634 35.8154 41.113 35.6565H41.1129Z" fill="currentcolor"></path></svg>