<svg xmlns="http://www.w3.org/2000/svg" xmlns:xlink="http://www.w3.org/1999/xlink" id="Layer_1" x="0px" y="0px" viewBox="0 0 100 100" style="enable-background:new 0 0 100 100;" xml:space="preserve"><g>	<g>		<g>			<g>				<path d="M42.4,11L42.4,11c0.2-0.2,0.5-0.3,0.8-0.3s0.6,0.1,0.8,0.3l0.1-0.1L44,11l19.8,19.8c1.2,1.2,1.8,2.8,1.8,4.4v51.7     c0,1.3-1.1,2.4-2.4,2.4h-40c-1.3,0-2.4-1.1-2.4-2.4V35.2c0-1.7,0.7-3.3,1.8-4.4l0,0L42.4,11z M23.2,92.2h40.1     c2.9,0,5.3-2.4,5.3-5.3V35.2c0-2.4-1-4.8-2.7-6.5L46.1,8.9c-1.5-1.5-4.2-1.5-5.7,0L20.5,28.7c-1.7,1.7-2.7,4.1-2.7,6.5v51.7     C17.8,89.8,20.2,92.2,23.2,92.2z"></path>				<path d="M63.3,92.5H23.2c-3.1,0-5.7-2.5-5.7-5.5V35.2c0-2.5,1-4.9,2.8-6.7L40.2,8.7c0.8-0.8,1.9-1.2,3-1.2s2.3,0.4,3,1.2     l19.8,19.8c1.8,1.8,2.8,4.2,2.8,6.7v51.7C68.8,90,66.4,92.5,63.3,92.5z M43.3,8c-1,0-2,0.3-2.7,1L20.7,28.9     c-1.6,1.6-2.6,4-2.6,6.3v51.7c0,2.8,2.3,5,5.2,5h40.1c2.8,0,5-2.3,5-5V35.2c0-2.3-1-4.7-2.6-6.3L45.9,9.1     C45.2,8.4,44.2,8,43.3,8z M63.2,89.5h-40c-1.4,0-2.7-1.2-2.7-2.6V35.2c0-1.7,0.7-3.4,1.9-4.6l19.8-19.8c0.5-0.5,1.5-0.5,2,0     l-0.1,0.1l0.1-0.1L64,30.6c1.2,1.2,1.9,2.8,1.9,4.6v51.7C65.8,88.3,64.6,89.5,63.2,89.5z M43.2,11c-0.2,0-0.5,0.1-0.6,0.2     L22.8,31c-1.1,1.1-1.7,2.6-1.7,4.2v51.7c0,1.2,1,2.1,2.2,2.1h40c1.2,0,2.1-1,2.1-2.1V35.2c0-1.6-0.6-3.1-1.7-4.2L43.8,11.2     C43.7,11,43.4,11,43.2,11z"></path>			</g>			<g>				<path d="M63.3,92.4H23.2c-3,0-5.5-2.5-5.5-5.5V35.2c0-2.5,1-4.9,2.7-6.6L40.3,8.8c0.8-0.8,1.8-1.2,3-1.2l0,0     c1.1,0,2.2,0.4,3,1.2L66,28.6c1.7,1.7,2.7,4.2,2.7,6.6v51.7C68.8,89.9,66.3,92.4,63.3,92.4z M43.2,7.9L43.2,7.9     c-1.1,0-2.1,0.4-2.8,1.1L20.6,28.8c-1.7,1.7-2.7,4-2.7,6.4v51.7c0,2.9,2.3,5.2,5.2,5.2h40.1c2.9,0,5.2-2.3,5.2-5.2V35.2     c0-2.4-1-4.7-2.7-6.4L46,9C45.3,8.3,44.3,7.9,43.2,7.9z M63.3,89.5H23.2c-1.4,0-2.6-1.1-2.6-2.6V35.2c0-1.7,0.7-3.4,1.9-4.6     l19.8-19.8c0.4-0.4,1.2-0.5,1.7-0.1l0,0l0.2,0.2l0,0L64,30.7c1.2,1.2,1.9,2.9,1.9,4.6V87C65.8,88.3,64.7,89.5,63.3,89.5z      M43.2,10.8c-0.3,0-0.5,0.1-0.7,0.3l0,0L22.7,30.9c-1.1,1.1-1.8,2.7-1.8,4.3v51.7c0,1.2,1,2.3,2.3,2.3h40.1c1.2,0,2.3-1,2.3-2.3     V35.2c0-1.6-0.7-3.2-1.8-4.3L43.9,11.1C43.7,10.9,43.5,10.8,43.2,10.8z"></path>				<path d="M63.3,92.7H23.2c-3.1,0-5.8-2.6-5.8-5.8V35.2c0-2.5,1-5,2.8-6.8L40.1,8.6C41,7.8,42,7.4,43.3,7.4c1.2,0,2.4,0.5,3.2,1.3     l19.7,19.8c1.7,1.7,2.8,4.3,2.8,6.8v51.7c0,1.5-0.5,2.9-1.6,4C66.3,92,64.8,92.7,63.3,92.7z M43.2,8.1c-1,0-2,0.4-2.6,1L20.8,29     c-1.7,1.7-2.6,3.9-2.6,6.2v51.7c0,2.8,2.2,4.9,5,4.9h40.1c2.8,0,5-2.2,5-4.9V35.2c0-2.3-1-4.6-2.6-6.2L45.8,9.2     C45.2,8.5,44.2,8.1,43.2,8.1z M63.3,89.8H23.2c-1.6,0-2.9-1.3-2.9-2.8V35.2c0-1.8,0.7-3.5,2-4.8l19.8-19.8     c0.5-0.5,1.4-0.6,2-0.1l0.2,0.2l19.8,19.8c1.3,1.3,2,3,2,4.8V87C66,88.5,64.8,89.8,63.3,89.8z M43.2,11c-0.2,0-0.4,0.1-0.5,0.2     L22.9,31.1c-1.1,1.1-1.7,2.6-1.7,4.1v51.7c0,1.1,0.9,2,2.1,2h40.1c1.1,0,2-0.9,2-2V35.2c0-1.5-0.6-3-1.7-4.1L43.7,11.3     C43.6,11.1,43.4,11,43.2,11z"></path>			</g>		</g>		<g>			<g>				<path d="M36.2,25.1c0,4,3.2,7.2,7.2,7.2s7.2-3.2,7.2-7.2s-3.2-7.2-7.2-7.2C39.4,17.9,36.2,21.1,36.2,25.1z M39.1,25.1     c0-2.3,1.9-4.2,4.2-4.2s4.3,1.9,4.3,4.2s-1.9,4.3-4.3,4.3C41,29.3,39.1,27.4,39.1,25.1z"></path>				<path d="M43.4,32.5c-4.1,0-7.4-3.3-7.4-7.4s3.3-7.5,7.4-7.5s7.4,3.3,7.4,7.5S47.5,32.5,43.4,32.5z M43.4,18.1     c-3.8,0-6.9,3.1-6.9,7c0,3.8,3.1,6.9,6.9,6.9s6.9-3.1,6.9-6.9C50.3,21.3,47.2,18.1,43.4,18.1z M43.3,29.6     c-2.5-0.1-4.4-2.1-4.4-4.5c0-2.5,2-4.5,4.4-4.5c2.5,0,4.6,2,4.6,4.5C47.9,27.6,45.8,29.6,43.3,29.6z M43.3,21.1     c-2.2,0-3.9,1.8-3.9,4c0,2.1,1.8,4,4,4c2.2,0,4-1.9,4-4C47.4,23,45.5,21.1,43.3,21.1z"></path>			</g>			<g>				<path d="M43.3,32.4c-4,0-7.3-3.3-7.3-7.3s3.3-7.3,7.3-7.3s7.3,3.3,7.3,7.3C50.7,29.1,47.4,32.4,43.3,32.4z M43.3,18     c-3.9,0-7,3.2-7,7c0,3.9,3.2,7,7,7c3.9,0,7-3.2,7-7C50.4,21.2,47.2,18,43.3,18z M43.3,29.5c-2.4,0-4.4-2-4.4-4.4s2-4.4,4.4-4.4     s4.4,2,4.4,4.4S45.8,29.5,43.3,29.5z M43.3,21c-2.3,0-4.1,1.8-4.1,4.1s1.8,4.1,4.1,4.1s4.1-1.8,4.1-4.1     C47.4,22.8,45.6,21,43.3,21z"></path>				<path d="M43.3,32.6c-4.2,0-7.5-3.4-7.5-7.5s3.4-7.6,7.5-7.6s7.5,3.4,7.5,7.6c0,2-0.7,3.8-2.1,5.3C47.3,31.8,45.4,32.6,43.3,32.6     z M43.3,18.3c-3.7,0-6.8,3-6.8,6.8s3,6.8,6.8,6.8s6.8-3,6.8-6.8c0-1.7-0.6-3.4-1.9-4.7C46.9,19,45.1,18.3,43.3,18.3z M43.3,29.8     c-2.5,0-4.6-2.1-4.6-4.6s2.1-4.6,4.6-4.6c2.5,0,4.7,2.1,4.7,4.6C48,27.7,45.9,29.8,43.3,29.8z M43.3,21.3     c-2.2,0-3.8,1.7-3.8,3.9s1.7,3.9,3.8,3.9s3.9-1.7,3.9-3.9S45.5,21.3,43.3,21.3z"></path>			</g>		</g>		<g>			<g>				<path d="M37.4,72.6L37.4,72.6c1,2.4,3.2,3.9,5.8,3.9c3.5,0,6.3-2.8,6.3-6.3s-2.8-6.3-6.3-6.3c-1.8,0-3.3-1.5-3.3-3.3     s1.5-3.3,3.3-3.3c1.3,0,2.5,0.8,3,2l0,0c0.3,0.7,1.2,1.1,1.9,0.7c0.7-0.3,1.1-1.2,0.7-1.9l0,0c-1-2.3-3.2-3.7-5.7-3.7     c-3.5,0-6.3,2.8-6.3,6.3s2.8,6.3,6.3,6.3c1.8,0,3.3,1.5,3.3,3.3s-1.5,3.3-3.3,3.3c-1.4,0-2.6-0.8-3.1-2.1l0,0     c-0.3-0.8-1.2-1.1-1.9-0.8C37.5,71,37.1,71.8,37.4,72.6z"></path>				<path d="M43.2,76.8c-2.7,0-5-1.6-6-4.1l0,0c-0.4-0.9,0.1-1.9,0.8-2.2c0.4-0.2,0.9-0.2,1.3,0c0.4,0.2,0.7,0.5,0.9,0.9     c0.5,1.2,1.6,1.9,2.9,1.9c1.7,0,3-1.4,3-3s-1.4-3-3-3c-3.6,0-6.6-2.9-6.6-6.5s2.9-6.5,6.6-6.5c2.6,0,4.9,1.5,5.9,3.8     c0.2,0.3,0.2,0.8,0.1,1.2c-0.2,0.5-0.5,0.8-0.9,1c-0.3,0.2-0.8,0.2-1.2,0.1c-0.5-0.2-0.8-0.5-1-0.9c-0.5-1.1-1.6-1.8-2.8-1.8     c-1.7,0-3.1,1.4-3.1,3s1.4,3.1,3.1,3.1c3.6,0,6.5,2.9,6.5,6.5S46.8,76.8,43.2,76.8z M37.6,72.5c1,2.3,3.1,3.7,5.6,3.7     c3.3,0,6-2.7,6-6s-2.7-6-6-6c-1.9,0-3.6-1.6-3.6-3.6c0-1.9,1.6-3.5,3.6-3.5c1.4,0,2.7,0.9,3.2,2.2c0.1,0.3,0.4,0.5,0.7,0.6     c0.3,0.1,0.6,0.1,0.8-0.1c0.3-0.1,0.6-0.4,0.7-0.7c0.1-0.3,0.1-0.6-0.1-0.8c-1-2.2-3.1-3.6-5.5-3.6c-3.3,0-6.1,2.7-6.1,6     s2.7,6,6.1,6c1.9,0,3.5,1.6,3.5,3.5s-1.6,3.5-3.5,3.5c-1.5,0-2.8-0.9-3.3-2.3c-0.1-0.3-0.3-0.5-0.6-0.7c-0.3-0.1-0.6-0.1-0.9,0     C37.7,71.2,37.4,71.8,37.6,72.5z"></path>			</g>			<g>				<path d="M43.2,76.7c-2.6,0-5-1.6-6-4l0,0c-0.3-0.8,0.1-1.8,0.9-2.1c0.4-0.2,0.8-0.2,1.2,0s0.7,0.5,0.9,0.9c0.5,1.2,1.6,2,3,2     c1.8,0,3.2-1.4,3.2-3.2c0-1.8-1.4-3.2-3.2-3.2c-3.5,0-6.4-2.9-6.4-6.4s2.9-6.4,6.4-6.4c2.5,0,4.8,1.5,5.9,3.8     c0.2,0.4,0.2,0.8,0,1.2s-0.5,0.7-0.9,0.9s-0.8,0.2-1.2,0s-0.7-0.5-0.9-0.9l0,0c-0.5-1.1-1.6-1.9-2.9-1.9c-1.8,0-3.2,1.4-3.2,3.2     s1.4,3.2,3.2,3.2c3.5,0,6.4,2.9,6.4,6.4S46.8,76.7,43.2,76.7z M37.5,72.5c0.9,2.3,3.2,3.8,5.7,3.8c3.4,0,6.1-2.7,6.1-6.1     s-2.7-6.1-6.1-6.1c-1.9,0-3.5-1.6-3.5-3.5s1.6-3.5,3.5-3.5c1.4,0,2.6,0.8,3.2,2.1l0,0c0.1,0.3,0.4,0.5,0.7,0.7     c0.3,0.1,0.7,0.1,1,0s0.6-0.4,0.7-0.7c0.1-0.3,0.1-0.7,0-1c-1-2.2-3.2-3.6-5.6-3.6c-3.4,0-6.1,2.7-6.1,6.1     c0,3.4,2.7,6.1,6.1,6.1c1.9,0,3.5,1.6,3.5,3.5s-1.6,3.5-3.5,3.5c-1.4,0-2.7-0.9-3.2-2.2c-0.1-0.3-0.4-0.6-0.7-0.7s-0.7-0.1-1,0     C37.6,71.1,37.3,71.8,37.5,72.5L37.5,72.5z"></path>				<path d="M43.2,77c-2.7,0-5.2-1.7-6.2-4.2c-0.4-1,0.1-2.1,1-2.4c0.4-0.2,0.9-0.2,1.4,0c0.4,0.2,0.8,0.6,1,1     c0.5,1.2,1.5,1.9,2.8,1.9c1.7,0,2.9-1.3,2.9-3s-1.3-3-2.9-3c-3.7,0-6.7-3-6.7-6.6c0-3.7,3-6.7,6.7-6.7c2.6,0,5,1.5,6.1,3.9     c0.2,0.5,0.2,0.9,0,1.4c-0.2,0.4-0.6,0.8-1,1c-0.5,0.2-1,0.2-1.4,0c-0.4-0.2-0.8-0.6-1-1c-0.5-1.1-1.5-1.8-2.7-1.8     c-1.7,0-3,1.3-3,2.9c0,1.7,1.3,3,3,3c3.7,0,6.6,3,6.6,6.7C49.9,73.9,46.9,77,43.2,77z M37.7,72.4c0.9,2.2,3,3.6,5.5,3.6     c3.3,0,5.8-2.6,5.8-5.8s-2.6-5.9-5.8-5.9c-2,0-3.8-1.7-3.8-3.8s1.7-3.8,3.8-3.8c1.5,0,2.8,0.8,3.4,2.2c0.1,0.2,0.3,0.4,0.6,0.6     c0.2,0.1,0.6,0.1,0.8,0c0.2-0.1,0.5-0.3,0.5-0.5c0.1-0.2,0.1-0.6,0-0.8c-0.9-2.1-3.1-3.4-5.4-3.4c-3.3,0-5.9,2.6-5.9,5.9     s2.6,5.8,5.9,5.8c2,0,3.8,1.7,3.8,3.8S45.2,74,43.2,74c-1.5,0-2.9-0.9-3.4-2.4c-0.1-0.2-0.3-0.5-0.5-0.6c-0.2-0.1-0.6-0.1-0.8,0     c-0.3,0.1-0.4,0.2-0.6,0.4C37.7,71.8,37.7,72.1,37.7,72.4z"></path>			</g>		</g>		<g>			<g>				<path d="M41.8,55.9c0,0.8,0.7,1.5,1.5,1.5s1.5-0.7,1.5-1.5v-2.5c0-0.8-0.7-1.5-1.5-1.5s-1.5,0.7-1.5,1.5V55.9z"></path>				<path d="M43.3,57.7c-0.9,0-1.8-0.8-1.8-1.8v-2.5c0-0.9,0.8-1.8,1.8-1.8s1.8,0.8,1.8,1.8v2.5C45,56.8,44.2,57.7,43.3,57.7z      M43.3,52.2c-0.7,0-1.3,0.6-1.3,1.3v2.5c0,0.7,0.6,1.3,1.3,1.3s1.3-0.6,1.3-1.3v-2.5C44.5,52.7,44,52.2,43.3,52.2z"></path>			</g>			<g>				<path d="M43.2,57.5c-0.9,0-1.6-0.7-1.6-1.6v-2.5c0-0.9,0.7-1.6,1.6-1.6c0.9,0,1.6,0.7,1.6,1.6v2.5     C44.8,56.7,44.1,57.5,43.2,57.5z M43.2,52c-0.7,0-1.3,0.6-1.3,1.3v2.5c0,0.7,0.6,1.3,1.3,1.3s1.3-0.6,1.3-1.3v-2.5     C44.5,52.6,44,52,43.2,52z"></path>				<path d="M43.2,57.8c-1,0-1.9-0.8-1.9-1.8v-2.5c0-1,0.8-1.9,1.9-1.9c1,0,1.8,0.8,1.8,1.9v2.5C45,56.9,44.2,57.8,43.2,57.8z      M43.2,52.3c-0.6,0-1.1,0.5-1.1,1v2.5c0,0.6,0.5,1,1.1,1c0.6,0,1-0.5,1-1v-2.5C44.3,52.8,43.9,52.3,43.2,52.3z"></path>			</g>		</g>		<g>			<g>				<path d="M41.8,77.6c0,0.8,0.7,1.5,1.5,1.5s1.5-0.7,1.5-1.5V75c0-0.8-0.7-1.5-1.5-1.5s-1.5,0.7-1.5,1.5V77.6z"></path>				<path d="M43.3,79.3c-0.9,0-1.8-0.8-1.8-1.8V75c0-0.9,0.8-1.8,1.8-1.8S45,74.1,45,75v2.6C45,78.5,44.2,79.3,43.3,79.3z      M43.3,73.8c-0.7,0-1.3,0.6-1.3,1.3v2.6c0,0.7,0.6,1.3,1.3,1.3s1.3-0.6,1.3-1.3V75C44.5,74.3,44,73.8,43.3,73.8z"></path>			</g>			<g>				<path d="M43.2,79.2c-0.9,0-1.6-0.7-1.6-1.6V75c0-0.9,0.7-1.6,1.6-1.6c0.9,0,1.6,0.7,1.6,1.6v2.5C44.8,78.5,44.1,79.2,43.2,79.2z      M43.2,73.7c-0.7,0-1.3,0.6-1.3,1.3v2.5c0,0.7,0.6,1.3,1.3,1.3s1.3-0.6,1.3-1.3V75C44.5,74.3,44,73.7,43.2,73.7z"></path>				<path d="M43.2,79.5c-1,0-1.9-0.8-1.9-1.9V75c0-1,0.8-1.8,1.9-1.8c1,0,1.8,0.8,1.8,1.8v2.5C45,78.6,44.3,79.5,43.2,79.5z      M43.2,74c-0.6,0-1.1,0.5-1.1,1v2.5c0,0.6,0.5,1,1.1,1c0.6,0,1-0.5,1-1V75C44.3,74.5,43.9,74,43.2,74z"></path>			</g>		</g>	</g>	<g>		<g>			<g>				<path d="M62.4,29.9C59,29.9,42,29.7,42,25.1c0-0.7,0.6-1.3,1.3-1.3c0.6,0,1.2,0.5,1.3,1.1c0.9,0.9,7,2.5,17.9,2.5     c10.1,0,16.1-1.4,17.6-2.3c-1.5-0.9-7.5-2.3-17.6-2.3c-1.9,0-3.8,0.1-5.5,0.2c-0.7,0-1.3-0.5-1.3-1.2s0.5-1.3,1.2-1.3     c1.8-0.1,3.7-0.2,5.7-0.2c3.4,0,20.4,0.2,20.4,4.8C82.8,29.7,65.8,29.9,62.4,29.9z"></path>				<path d="M62.4,30.1c-4.8,0-20.7-0.4-20.7-5c0-0.8,0.7-1.6,1.5-1.6c0.7,0,1.4,0.5,1.5,1.2c1,0.9,7.1,2.4,17.7,2.4     c9.2,0,15-1.2,17-2c-2-0.9-7.8-2.1-17-2.1c-1.9,0-3.8,0.1-5.5,0.2h0c-0.9,0-1.6-0.6-1.6-1.4c0-0.9,0.6-1.5,1.5-1.5     c2-0.1,3.8-0.2,5.7-0.2c4.8,0,20.7,0.4,20.7,5.1C83,29.8,67.2,30.1,62.4,30.1z M43.3,24c-0.6,0-1,0.5-1,1.1     c0,3.4,10.9,4.5,20.2,4.5s20.2-1.2,20.3-4.6c0-3.3-10.9-4.5-20.2-4.5c-1.9,0-3.7,0.1-5.7,0.2c-0.5,0-1,0.5-1,1.1     c0,0.5,0.5,1,1,1c1.6-0.1,3.6-0.2,5.5-0.2c10.2,0,16.2,1.4,17.7,2.3l0.4,0.2l-0.4,0.2c-1.6,0.9-7.6,2.3-17.7,2.3     c-10.6,0-17-1.5-18.1-2.6L44.4,25l0-0.1C44.3,24.5,43.8,24,43.3,24z"></path>			</g>		</g>	</g></g></svg>