<svg xmlns="http://www.w3.org/2000/svg" width="55" height="55" viewBox="0 0 55 55" fill="none"><g clip-path="url(#clip0_2020_75)"><path d="M50.8367 48.1985H44.4866V3.32512C44.4866 3.02273 44.2423 2.77732 43.9388 2.77732H33.9459V0.54778C33.9459 0.374676 33.8637 0.211432 33.7257 0.108446C33.5866 0.00436475 33.4069 -0.0263119 33.2414 0.0229899L24.0582 2.77841H11.4435C11.1411 2.77841 10.8957 3.02383 10.8957 3.32621V48.1985H4.5478C4.24541 48.1985 4 48.4439 4 48.7463C4 49.0487 4.24432 49.2941 4.5478 49.2941H14.2942L33.2425 54.9792C33.294 54.9945 33.3466 55.0022 33.3992 55.0022C33.5153 55.0022 33.6304 54.9649 33.7257 54.8937C33.8648 54.7907 33.9459 54.6275 33.9459 54.4544V49.2941H50.8356C51.138 49.2941 51.3834 49.0487 51.3834 48.7463C51.3834 48.4439 51.1391 48.1985 50.8356 48.1985H50.8367ZM11.9924 3.87291H20.4109L14.2175 5.73104C14.2066 5.73433 14.1978 5.742 14.1868 5.74638C14.1638 5.75515 14.1441 5.7661 14.1233 5.77706C14.0861 5.79678 14.051 5.81979 14.0192 5.84718C14.0006 5.86251 13.9842 5.87895 13.9688 5.89648C13.9403 5.92935 13.9173 5.9655 13.8965 6.00385C13.8867 6.02357 13.8746 6.04 13.8669 6.06082C13.8428 6.12217 13.8275 6.18681 13.8275 6.25583V48.1985H11.9924V3.87291ZM32.8525 53.717L14.922 48.3377V6.6623L32.8525 1.28292V53.717ZM40.4625 48.1985H33.947V6.80254H40.4625V48.1985ZM43.3921 48.1985H41.557V6.25474C41.557 5.95235 41.3127 5.70694 41.0092 5.70694H33.9459V3.87182H43.391V48.1974L43.3921 48.1985Z" fill="currentcolor"></path><path d="M23.815 28.6333C23.8369 28.6333 23.8599 28.6322 23.8829 28.629L26.9188 28.2499C27.2015 28.8437 27.8019 29.2578 28.5019 29.2578C29.4715 29.2578 30.2593 28.469 30.2593 27.5005C30.2593 26.532 29.4705 25.7432 28.5019 25.7432C27.6474 25.7432 26.9352 26.3556 26.7786 27.1652L23.7471 27.5443C23.4469 27.5816 23.2343 27.8555 23.2716 28.1557C23.3066 28.4329 23.5422 28.6355 23.8139 28.6355L23.815 28.6333Z" fill="currentcolor"></path></g><defs><clipPath id="clip0_2020_75"><rect width="55" height="55" fill="white"></rect></clipPath></defs></svg>