<svg xmlns="http://www.w3.org/2000/svg" xmlns:xlink="http://www.w3.org/1999/xlink" x="0px" y="0px" viewBox="0 0 210 60" style="enable-background:new 0 0 210 60;" xml:space="preserve"><g>	<path d="M82.9,30.9h11.9v-2.4h-9.5v-2.9h7.7v-2.4h-7.7v-2.9h9.5v-2.4H82.9V30.9z"></path>	<path d="M102.9,22.5L99,17.9h-2.6v0.7l4.9,5.8l-4.9,5.8v0.7H99l3.9-4.6l3.9,4.6h2.6v-0.7l-4.9-5.8l4.9-5.8v-0.7h-2.6L102.9,22.5z"></path>	<path d="M110.6,20.3h5.3v10.6h2.4V20.3h5.3v-2.4h-13V20.3z"></path>	<path d="M125,30.9h11.9v-2.4h-9.5v-2.9h7.7v-2.4h-7.7v-2.9h9.5v-2.4H125V30.9z"></path>	<path d="M149.3,27.4l-8-9.5h-2.6v13h2.4v-9.5l8,9.5h2.6v-13h-2.4V27.4z"></path>	<path d="M165.4,18.2c-0.4-0.2-0.8-0.3-1.3-0.3h-8c-0.5,0-0.9,0.1-1.3,0.3c-0.4,0.2-0.7,0.5-0.9,0.9c-0.2,0.4-0.3,0.8-0.3,1.3V23  c0,0.5,0.1,0.9,0.3,1.3c0.2,0.4,0.5,0.7,0.9,0.9c0.4,0.2,0.8,0.3,1.3,0.3h7.9c0.1,0,0.1,0,0.2,0.1c0,0,0.1,0.1,0.1,0.1v2.5  c0,0.1,0,0.1-0.1,0.2c0,0-0.1,0.1-0.2,0.1h-7.8c-0.1,0-0.1,0-0.2-0.1c0,0-0.1-0.1-0.1-0.2v-0.9h-2.4v1c0,0.5,0.1,0.9,0.3,1.3  c0.2,0.4,0.5,0.7,0.9,0.9c0.4,0.2,0.8,0.3,1.3,0.3h8c0.5,0,0.9-0.1,1.3-0.3c0.4-0.2,0.7-0.5,0.9-0.9c0.2-0.4,0.3-0.8,0.3-1.3v-2.7  c0-0.5-0.1-0.9-0.3-1.3c-0.2-0.4-0.5-0.7-0.9-0.9c-0.4-0.2-0.8-0.3-1.3-0.3h-7.9c-0.1,0-0.1,0-0.2-0.1c0,0-0.1-0.1-0.1-0.1v-2.5  c0-0.1,0-0.1,0.1-0.2c0,0,0.1-0.1,0.2-0.1h7.8c0.1,0,0.1,0,0.2,0.1c0,0,0.1,0.1,0.1,0.2v0.9h2.4v-1c0-0.5-0.1-0.9-0.3-1.3  C166.1,18.7,165.8,18.4,165.4,18.2z"></path>	<path d="M170.7,17.9h-2.4v13h2.4V17.9z"></path>	<path d="M180.6,28l-5.8-10.1h-2.8l7.5,13h2.1l7.5-13h-2.8L180.6,28z"></path>	<path d="M202.5,20.3v-2.4h-11.9v13h11.9v-2.4H193v-2.9h7.7v-2.4H193v-2.9H202.5z"></path>	<path d="M109,35c-0.2-0.1-0.5-0.2-0.7-0.2h-4.5c-0.3,0-0.5,0.1-0.7,0.2c-0.2,0.1-0.4,0.3-0.5,0.5c-0.1,0.2-0.2,0.5-0.2,0.7v1.5  c0,0.3,0.1,0.5,0.2,0.7c0.1,0.2,0.3,0.4,0.5,0.5c0.2,0.1,0.5,0.2,0.7,0.2h4.5c0,0,0.1,0,0.1,0c0,0,0,0,0,0.1v1.4c0,0,0,0.1,0,0.1  c0,0-0.1,0-0.1,0h-4.4c0,0-0.1,0-0.1,0c0,0,0-0.1,0-0.1v-0.5h-1.4v0.6c0,0.3,0.1,0.5,0.2,0.7c0.1,0.2,0.3,0.4,0.5,0.5  c0.2,0.1,0.5,0.2,0.7,0.2h4.5c0.3,0,0.5-0.1,0.7-0.2c0.2-0.1,0.4-0.3,0.5-0.5c0.1-0.2,0.2-0.5,0.2-0.7v-1.5c0-0.3-0.1-0.5-0.2-0.7  c-0.1-0.2-0.3-0.4-0.5-0.5c-0.2-0.1-0.5-0.2-0.7-0.2h-4.5c0,0-0.1,0-0.1,0c0,0,0,0,0-0.1v-1.4c0,0,0-0.1,0-0.1c0,0,0.1,0,0.1,0h4.4  c0,0,0.1,0,0.1,0c0,0,0,0.1,0,0.1v0.5h1.4v-0.6c0-0.3-0.1-0.5-0.2-0.7C109.4,35.3,109.2,35.1,109,35z"></path>	<path d="M118.1,36.1h3v6h1.4v-6h3v-1.4h-7.4V36.1z"></path>	<path d="M139.7,40.7C139.7,40.7,139.7,40.7,139.7,40.7c-0.1,0.1-0.1,0.1-0.1,0.1h-4.4c0,0-0.1,0-0.1,0c0,0,0-0.1,0-0.1v-5.9h-1.3v6  c0,0.3,0.1,0.5,0.2,0.7c0.1,0.2,0.3,0.4,0.5,0.5c0.2,0.1,0.5,0.2,0.7,0.2h4.5c0.3,0,0.5-0.1,0.7-0.2c0.2-0.1,0.4-0.3,0.5-0.5  c0.1-0.2,0.2-0.5,0.2-0.7v-6h-1.4L139.7,40.7L139.7,40.7z"></path>	<path d="M156.5,35c-0.2-0.1-0.5-0.2-0.7-0.2h-5.9v7.4h5.9c0.3,0,0.5-0.1,0.7-0.2c0.2-0.1,0.4-0.3,0.5-0.5c0.1-0.2,0.2-0.5,0.2-0.7  v-4.5c0-0.3-0.1-0.5-0.2-0.7C156.9,35.3,156.7,35.1,156.5,35L156.5,35z M155.8,40.7C155.8,40.7,155.8,40.7,155.8,40.7  c-0.1,0.1-0.1,0.1-0.1,0.1h-4.4c0,0-0.1,0-0.1,0c0,0,0-0.1,0-0.1v-4.4c0,0,0-0.1,0-0.1c0,0,0.1,0,0.1,0h4.4c0,0,0.1,0,0.1,0  c0,0,0,0.1,0,0.1V40.7z"></path>	<path d="M167.1,34.8h-1.3v7.4h1.3V34.8z"></path>	<path d="M182.8,35.5c-0.1-0.2-0.3-0.4-0.5-0.5c-0.2-0.1-0.5-0.2-0.7-0.2H177c-0.3,0-0.5,0.1-0.7,0.2c-0.2,0.1-0.4,0.3-0.5,0.5  c-0.1,0.2-0.2,0.5-0.2,0.7v4.5c0,0.3,0.1,0.5,0.2,0.7c0.1,0.2,0.3,0.4,0.5,0.5c0.2,0.1,0.5,0.2,0.7,0.2h4.5c0.3,0,0.5-0.1,0.7-0.2  c0.2-0.1,0.4-0.3,0.5-0.5c0.1-0.2,0.2-0.5,0.2-0.7v-4.5C183,35.9,182.9,35.7,182.8,35.5z M181.6,40.7  C181.6,40.7,181.6,40.7,181.6,40.7c-0.1,0.1-0.1,0.1-0.1,0.1h-4.4c0,0-0.1,0-0.1,0c0,0,0-0.1,0-0.1v-4.4c0,0,0-0.1,0-0.1  c0,0,0.1,0,0.1,0h4.4c0,0,0.1,0,0.1,0c0,0,0,0.1,0,0.1V40.7z"></path>	<path d="M41.3,41.5l11.9-8.8c1.6-1.2,4,0,4,2c0,0.8-0.4,1.5-1,2L38.3,49.8c-0.6,0.5-1,1.2-1,2v2.1c0,2,2.3,3.2,4,2l22.8-16.8  c0.6-0.5,1-1.2,1-2V20.6c0-2-2.3-3.2-4-2L38.3,35.4c-0.6,0.5-1,1.2-1,2v2.1C37.3,41.5,39.6,42.7,41.3,41.5L41.3,41.5z"></path>	<path d="M37.3,22.9V25c0,2,2.3,3.2,4,2l22.8-16.8c0.6-0.5,1-1.2,1-2v-2c0-2-2.3-3.2-4-2L38.3,20.9C37.7,21.3,37.3,22.1,37.3,22.9  L37.3,22.9z"></path>	<path d="M8.5,39.1l22.8,16.8c1.6,1.2,4,0,4-2v-2.1c0-0.8-0.4-1.5-1-2L16.5,36.7c-0.6-0.5-1-1.2-1-2c0-2,2.3-3.2,4-2l11.9,8.8  c1.6,1.2,4,0,4-2v-2.1c0-0.8-0.4-1.5-1-2L11.5,18.5c-1.6-1.2-4,0-4,2v16.6C7.5,37.9,7.9,38.7,8.5,39.1L8.5,39.1z"></path>	<path d="M8.5,10.1L31.3,27c1.6,1.2,4,0,4-2v-2.1c0-0.8-0.4-1.5-1-2L11.5,4.1c-1.6-1.2-4,0-4,2v2C7.5,8.9,7.9,9.7,8.5,10.1z"></path></g></svg>