<svg xmlns="http://www.w3.org/2000/svg" width="55" height="55" viewBox="0 0 55 55" fill="none"><path d="M33.5481 27.5169L31.1456 27.2166C30.9715 26.6662 30.4624 26.2632 29.8562 26.2632C29.1071 26.2632 28.4975 26.8727 28.4975 27.6219C28.4975 28.371 29.1071 28.9805 29.8562 28.9805C30.344 28.9805 30.7694 28.7193 31.0083 28.3319L33.4086 28.6322C33.432 28.6356 33.4555 28.6367 33.4789 28.6367C33.758 28.6367 34.0003 28.429 34.036 28.1443C34.074 27.8362 33.8563 27.5549 33.5481 27.5169Z" fill="currentcolor"></path><path d="M8.99832 18.0082C9.30868 18.0082 9.55988 17.757 9.55988 17.4466V15.9473C9.55988 15.6369 9.30868 15.3857 8.99832 15.3857C8.68796 15.3857 8.43677 15.6369 8.43677 15.9473V17.4466C8.43677 17.757 8.68796 18.0082 8.99832 18.0082Z" fill="currentcolor"></path><path d="M25.3649 8.55762H8.99832C8.68796 8.55762 8.43677 8.80881 8.43677 9.11917C8.43677 9.13369 8.44347 9.14597 8.44458 9.15936C8.44458 9.17388 8.43677 9.18504 8.43677 9.19955V12.1971C8.43677 12.5075 8.68796 12.7587 8.99832 12.7587C9.30868 12.7587 9.55988 12.5075 9.55988 12.1971V9.67961H24.8022V45.5577H9.56099V21.1909C9.56099 20.8806 9.3098 20.6294 8.99944 20.6294C8.68908 20.6294 8.43788 20.8806 8.43788 21.1909V46.1193C8.43788 46.4296 8.68908 46.6808 8.99944 46.6808H25.366C25.6764 46.6808 25.9276 46.4296 25.9276 46.1193V9.11917C25.9276 8.80881 25.6764 8.55762 25.366 8.55762H25.3649Z" fill="currentcolor"></path><path d="M46.0006 37.3154C45.6903 37.3154 45.4391 37.5666 45.4391 37.877V39.3763C45.4391 39.6867 45.6903 39.9379 46.0006 39.9379C46.311 39.9379 46.5622 39.6867 46.5622 39.3763V37.877C46.5622 37.5666 46.311 37.3154 46.0006 37.3154Z" fill="currentcolor"></path><path d="M46.5633 9.11917C46.5633 8.80881 46.3121 8.55762 46.0018 8.55762H29.6352C29.3248 8.55762 29.0736 8.80881 29.0736 9.11917V46.1215C29.0736 46.4319 29.3248 46.6831 29.6352 46.6831H46.0018C46.3121 46.6831 46.5633 46.4319 46.5633 46.1215V43.1239C46.5633 42.8136 46.3121 42.5624 46.0018 42.5624C45.6914 42.5624 45.4402 42.8136 45.4402 43.1239V45.56H30.1978V9.68184H45.4402V34.1301C45.4402 34.4405 45.6914 34.6917 46.0018 34.6917C46.3121 34.6917 46.5633 34.4405 46.5633 34.1301V9.20067C46.5633 9.18616 46.5566 9.17388 46.5555 9.16048C46.5555 9.14597 46.5633 9.1348 46.5633 9.12029V9.11917Z" fill="currentcolor"></path><path d="M13.9798 19.9249C13.848 19.9249 13.7163 19.8791 13.6102 19.7853C13.3769 19.581 13.3534 19.226 13.5578 18.9927L18.5392 13.3001C18.7446 13.0679 19.0985 13.0433 19.3318 13.2476C19.5652 13.4519 19.5886 13.8069 19.3843 14.0403L14.4029 19.7329C14.2912 19.8601 14.1361 19.9249 13.9798 19.9249Z" fill="currentcolor"></path><path d="M13.9798 25.6173C13.848 25.6173 13.7163 25.5715 13.6102 25.4777C13.3769 25.2734 13.3534 24.9184 13.5578 24.6851L18.5392 18.9925C18.7446 18.7603 19.0985 18.7357 19.3318 18.94C19.5652 19.1443 19.5886 19.4993 19.3843 19.7327L14.4029 25.4252C14.2912 25.5525 14.1361 25.6173 13.9798 25.6173Z" fill="currentcolor"></path><path d="M54.4373 49.1183H50.1202V5.56155C50.1202 5.25119 49.869 5 49.5586 5H5.44027C5.12991 5 4.87872 5.25119 4.87872 5.56155V49.1183H0.561555C0.251193 49.1183 0 49.3695 0 49.6799C0 49.9903 0.251193 50.2414 0.561555 50.2414H54.4373C54.7477 50.2414 54.9989 49.9903 54.9989 49.6799C54.9989 49.3695 54.7477 49.1183 54.4373 49.1183ZM6.00294 49.1183V6.12423H48.9971V49.1183H6.00294Z" fill="currentcolor"></path><path d="M25.4296 26.2632C24.8223 26.2632 24.3132 26.6662 24.1402 27.2166L21.7377 27.5169C21.4295 27.5549 21.2118 27.8362 21.2498 28.1443C21.2855 28.429 21.5278 28.6367 21.8069 28.6367C21.8303 28.6367 21.8538 28.6356 21.8772 28.6322L24.2775 28.3319C24.5175 28.7193 24.9418 28.9805 25.4296 28.9805C26.1787 28.9805 26.7883 28.371 26.7883 27.6219C26.7883 26.8727 26.1787 26.2632 25.4296 26.2632Z" fill="currentcolor"></path></svg>