<svg xmlns="http://www.w3.org/2000/svg" xmlns:xlink="http://www.w3.org/1999/xlink" x="0px" y="0px" viewBox="0 0 50 50" style="enable-background:new 0 0 50 50;" xml:space="preserve"><g>	<g>		<path d="M35,44.8c-0.3,0-0.5-0.2-0.7-0.4l-2.5-3.8c-0.1-0.2-0.2-0.3-0.2-0.5v-6.5c0-0.2,0-0.3-0.2-0.4L29.5,32   c-0.2-0.1-0.3-0.3-0.4-0.5c0-0.2,0-0.5,0.1-0.6c0.2-0.3,0.4-0.4,0.8-0.4c0.2,0,0.3,0,0.5,0.1l0.6,0.4c0,0,0.2,0,0.2,0   c0,0,0.2,0,0.2,0c0.2,0,0.2-0.2,0.2-0.4V26c0-0.2,0-0.3-0.2-0.4l-1.9-1.2c-0.2-0.1-0.3-0.3-0.4-0.5s0-0.5,0.1-0.6   c0.2-0.3,0.4-0.4,0.8-0.4c0.2,0,0.3,0,0.5,0.1l0.6,0.4c0,0,0.2,0,0.2,0c0,0,0.2,0,0.2,0c0.2,0,0.2-0.2,0.2-0.4v-4.6   c0-0.2,0-0.3-0.2-0.4l-1.9-1.2c-0.2-0.1-0.3-0.3-0.4-0.5c0-0.2,0-0.5,0.1-0.6c0.2-0.3,0.4-0.4,0.8-0.4c0.2,0,0.3,0,0.5,0.1   l0.6,0.4c0,0,0.2,0,0.2,0c0,0,0.2,0,0.2,0c0.2,0,0.2-0.2,0.2-0.4v-3c0-0.2-0.2-0.4-0.4-0.4h-3.8c-0.5,0-0.8-0.4-0.8-0.8   C26.7,8,30.7,5.2,35,5.2c4.5,0,8.5,2.7,8.5,5.9c0,0.5-0.4,0.8-0.8,0.8h-3.8c-0.2,0-0.4,0.2-0.4,0.4v7.8c0,0.2,0,0.3,0.2,0.4   l1.9,1.2c0.2,0.1,0.3,0.3,0.4,0.5c0,0.2,0,0.5-0.1,0.6c-0.2,0.3-0.4,0.4-0.8,0.4c-0.2,0-0.3,0-0.5-0.1L39,22.8c0,0-0.2,0-0.2,0   c0,0-0.2,0-0.2,0c-0.1,0.1-0.2,0.3-0.2,0.4v4.6c0,0.2,0,0.3,0.2,0.4l1.9,1.2c0.2,0.1,0.3,0.3,0.4,0.5c0,0.2,0,0.5-0.1,0.6   c-0.2,0.3-0.4,0.4-0.8,0.4c-0.2,0-0.3,0-0.5-0.1L39,30.4c0,0-0.2,0-0.2,0c0,0-0.2,0-0.2,0c-0.2,0-0.2,0.2-0.2,0.4v4.6   c0,0.2,0,0.3,0.2,0.4l1.9,1.2c0.2,0.1,0.3,0.3,0.4,0.5c0,0.2,0,0.5-0.1,0.6c-0.2,0.3-0.4,0.4-0.8,0.4c-0.2,0-0.3,0-0.5-0.1   L39.1,38c0,0-0.2,0-0.2,0s-0.2,0-0.2,0c-0.2,0-0.2,0.2-0.2,0.4v1.8c0,0.2,0,0.3-0.2,0.5l-2.5,3.8C35.6,44.6,35.4,44.8,35,44.8   L35,44.8z M33.8,34.8c0,0-0.2,0-0.2,0c-0.2,0-0.2,0.2-0.2,0.4v4.6c0,0.1,0,0.2,0,0.2l1.3,1.9c0.1,0.1,0.2,0.2,0.3,0.2   c0.2,0,0.3,0,0.3-0.2l1.3-1.9c0,0,0-0.2,0-0.2v-3c0-0.2,0-0.3-0.2-0.4l-2.5-1.6C34,34.8,33.8,34.8,33.8,34.8L33.8,34.8z    M33.8,27.2c0,0-0.2,0-0.2,0c-0.2,0-0.2,0.2-0.2,0.4v4.6c0,0.2,0,0.3,0.2,0.4l2.5,1.6c0,0,0.2,0,0.2,0c0,0,0.2,0,0.2,0   c0.2,0,0.2-0.2,0.2-0.4v-4.6c0-0.2,0-0.3-0.2-0.4L34,27.2C34,27.2,33.9,27.2,33.8,27.2z M33.8,19.6c0,0-0.2,0-0.2,0   c-0.2,0-0.2,0.2-0.2,0.4v4.6c0,0.2,0,0.3,0.2,0.4l2.5,1.6c0,0,0.2,0,0.2,0c0,0,0.2,0,0.2,0c0.2,0,0.2-0.2,0.2-0.4v-4.6   c0-0.2,0-0.3-0.2-0.4L34,19.7C34,19.6,33.9,19.6,33.8,19.6z M33.8,12c-0.2,0-0.4,0.2-0.4,0.4v4.7c0,0.2,0,0.3,0.2,0.4l2.5,1.6   c0,0,0.2,0,0.2,0c0,0,0.2,0,0.2,0c0.2,0,0.2-0.2,0.2-0.4v-6.3c0-0.2-0.2-0.4-0.4-0.4L33.8,12L33.8,12z M35,6.9   c-2.9,0-5.2,1.4-6.2,2.7c-0.1,0.1-0.1,0.3,0,0.4c0,0.2,0.2,0.2,0.4,0.2h11.7c0.2,0,0.3-0.1,0.4-0.2c0-0.2,0-0.3,0-0.4   C40.3,8.3,38,6.9,35,6.9z"></path>	</g>	<g>		<path d="M24.5,43.1h-2.9c-0.2,0-0.4-0.2-0.4-0.4v-5.2c0,0,0-0.1,0.1-0.2c0.1-0.1,0.2-0.2,0.3-0.2h1.3c0.5,0,0.8-0.4,0.8-0.8   c0-0.5-0.4-0.8-0.8-0.8h-3.8c-0.2,0-0.4-0.2-0.4-0.4V21.4c0,0,0-0.1,0-0.2l2.5-7.4c0-0.2,0-0.3,0-0.4L20,5.9   c0-0.4-0.4-0.7-0.8-0.7h-6.4c-0.4,0-0.8,0.3-0.8,0.7l-1.3,7.6c0,0.2,0,0.3,0,0.4l2.5,7.4c0,0,0,0.1,0,0.2v13.7   c0,0.2-0.2,0.4-0.4,0.4H9c-0.5,0-0.8,0.4-0.8,0.8c0,0.5,0.4,0.8,0.8,0.8h1.3c0.1,0,0.2,0,0.3,0.2c0,0,0,0.1,0.1,0.2v5.2   c0,0.2-0.2,0.4-0.4,0.4H7.3c-0.5,0-0.8,0.4-0.8,0.8c0,0.5,0.4,0.8,0.8,0.8h17.2c0.5,0,0.8-0.4,0.8-0.8   C25.5,43.5,25,43.1,24.5,43.1z M12.5,13.7c0,0,0-0.2,0-0.2l1.1-6.2c0-0.2,0.2-0.4,0.4-0.4h4.2c0.2,0,0.4,0.2,0.4,0.4l1.1,6.2   c0,0,0,0.2,0,0.2L17.1,21c0,0.1,0,0.2,0,0.3v13.9c0,0.2-0.2,0.4-0.4,0.4h-1.3c-0.2,0-0.4-0.2-0.4-0.4V21.2c0-0.1,0-0.2,0-0.3   L12.5,13.7L12.5,13.7z M19.6,42.7c0,0.2-0.2,0.4-0.4,0.4h-6.3c-0.2,0-0.4-0.2-0.4-0.4v-4.8c0-0.1,0-0.3,0-0.4   c0-0.2,0.2-0.3,0.4-0.3h6.3c0.2,0,0.4,0.1,0.4,0.3c0,0.1,0,0.2,0,0.4L19.6,42.7L19.6,42.7z"></path>	</g></g></svg>