<svg xmlns="http://www.w3.org/2000/svg" xmlns:xlink="http://www.w3.org/1999/xlink" x="0px" y="0px" viewBox="0 0 100 100" style="enable-background:new 0 0 100 100;" xml:space="preserve"><g>	<g>		<path d="M64.1,90.8c-2,0-4.1-0.4-6-1.3l0,0c-0.9-0.4-2.5-1.4-3-1.8L42,79.5c-0.2-0.1-1.2-0.8-1.2-0.8c-2.2-1.4-2.9-4.5-1.5-6.8   c0.7-1.1,1.8-1.9,3.1-2.2c1.3-0.3,2.6-0.1,3.7,0.6l2.3,1.5l-7.1-16.3c-1.1-2.5,0.1-5.4,2.6-6.5c1.2-0.5,2.6-0.6,3.8-0.1   s2.2,1.4,2.7,2.6l3.6,8.3c0.3-0.3,0.7-0.6,1.2-0.8c1.1-0.5,2.3-0.5,3.4-0.1c0.7,0.3,1.3,0.7,1.8,1.3c0.4-0.4,0.8-0.7,1.3-0.9   c1.1-0.5,2.3-0.5,3.4-0.1c0.7,0.3,1.4,0.8,1.8,1.4c0.4-0.4,0.8-0.7,1.3-0.9l0.6,1.4L68.3,60c1.1-0.5,2.3-0.5,3.4-0.1   s2,1.3,2.4,2.4l4.1,9.4c0,0.1,0.1,0.2,0.1,0.2c2.1,5.6,0.1,12.1-4.6,15.5c-1.2,0.9-3,1.8-3.7,2.1C68.1,90.4,66.1,90.8,64.1,90.8z    M59.4,86.8L59.4,86.8c3,1.3,6.4,1.4,9.4,0.1c1-0.4,2.3-1.1,3.1-1.7c3.8-2.7,5.3-7.8,3.6-12.2v-0.1l-4-9.2   c-0.2-0.3-0.4-0.6-0.8-0.8c-0.3-0.1-0.7-0.1-1,0l0,0c-0.2,0.1-0.4,0.2-0.6,0.4s-0.3,0.5-0.3,0.8l-0.1,0.8   c-0.1,0.7-0.6,1.2-1.3,1.4c-0.7,0.1-1.3-0.3-1.6-0.9l-0.9-2.1c-0.2-0.3-0.4-0.6-0.8-0.8c-0.4-0.1-0.7-0.1-1.1,0   c-0.4,0.2-0.7,0.6-0.8,1c0,0.1,0,0.2,0,0.4v0.6c0,0.7-0.5,1.4-1.2,1.5c-0.7,0.2-1.4-0.2-1.7-0.9l-1-2.2c-0.2-0.3-0.4-0.6-0.8-0.8   s-0.7-0.1-1.1,0c-0.6,0.3-1,1-0.8,1.7c0.2,0.8-0.2,1.5-1,1.8c-0.7,0.3-1.6-0.1-1.9-0.8L47.6,53c-0.2-0.5-0.6-0.8-1.1-1   s-1-0.2-1.5,0c-1,0.4-1.4,1.6-1,2.5l9,20.8c0.3,0.6,0.1,1.3-0.4,1.7c-0.5,0.4-1.2,0.5-1.8,0.1L50,76.6L44.3,73   c-0.4-0.3-0.9-0.4-1.4-0.3s-0.9,0.4-1.2,0.8c-0.6,0.9-0.3,2.1,0.6,2.7c0.1,0,0.9,0.6,1.1,0.7l13.2,8.2l0.1,0.1   C57.5,85.7,59,86.6,59.4,86.8z"></path>		<path d="M64.1,91c-2.2,0-4.3-0.5-6.1-1.3c-0.9-0.4-2.5-1.4-3-1.8l-13.1-8.2c-0.2-0.1-1-0.7-1.2-0.8c-2.3-1.5-3-4.7-1.6-7.1   c0.8-1.2,1.9-2,3.3-2.3c1.4-0.3,2.8-0.1,3.9,0.6l1.6,1l-6.8-15.5c-0.6-1.3-0.6-2.7-0.1-4c0.5-1.3,1.5-2.3,2.8-2.9   c1.3-0.6,2.8-0.6,4-0.1c1.3,0.6,2.3,1.5,2.8,2.7l3.5,8c0.3-0.3,0.7-0.5,1-0.6c1.1-0.5,2.4-0.5,3.6-0.1c0.7,0.3,1.3,0.7,1.7,1.2   c0.4-0.4,0.8-0.6,1.2-0.8c1.1-0.5,2.4-0.5,3.6-0.1c0.7,0.3,1.3,0.8,1.7,1.3c0.4-0.4,0.8-0.6,1.2-0.8l0.2-0.1l0.1,0.3   c1-0.4,2.2-0.4,3.3,0c1.2,0.4,2.1,1.4,2.5,2.5l4.2,9.6c2.1,5.7,0.1,12.3-4.7,15.8c-1.2,0.9-3.1,1.8-3.7,2.1   C68.3,90.6,66.2,91,64.1,91z M43.6,69.8c-0.4,0-0.7,0-1.1,0.1c-1.2,0.3-2.3,1-2.9,2.1c-1.3,2.2-0.7,5.1,1.4,6.5   c0.4,0.3,1,0.7,1.2,0.8l13.1,8.2c0.5,0.4,2.1,1.4,3,1.8c1.8,0.8,3.8,1.3,5.9,1.3c2.1,0,4-0.4,5.8-1.3c0.7-0.3,2.5-1.2,3.7-2.1   c4.6-3.4,6.5-9.7,4.5-15.2c0-0.1-0.1-0.2-0.1-0.3l-4.1-9.4c-0.4-1-1.2-1.9-2.3-2.3c-1-0.4-2-0.4-3,0L69,61l-0.5,0.2L68,60   c-0.3,0.2-0.6,0.4-1,0.7L66.9,61l-0.2-0.3c-0.3-0.5-1-1-1.7-1.3c-1.1-0.4-2.2-0.4-3.2,0.1c-0.4,0.2-0.8,0.4-1.2,0.8l-0.2,0.2   l-0.2-0.2c-0.4-0.5-1-0.9-1.7-1.2c-1.1-0.4-2.2-0.4-3.2,0.1c-0.4,0.2-0.8,0.4-1.1,0.7l-0.3,0.3l-3.7-8.6c-0.5-1.1-1.4-2-2.6-2.5   c-1.1-0.4-2.4-0.4-3.6,0.1c-2.4,1.1-3.5,3.8-2.5,6.2L49,72.5l-3-2C45.2,70,44.4,69.8,43.6,69.8z M64.3,88.1c-1.7,0-3.4-0.3-5-1   l0,0c-0.4-0.2-1.9-1.1-2.7-1.6l-0.1-0.1l-13.2-8.2c-0.1,0-0.3-0.2-0.5-0.3c-0.2-0.1-0.4-0.3-0.5-0.3h0l-0.1,0   c-1-0.7-1.3-2.1-0.7-3c0.4-0.5,0.8-0.8,1.4-0.9c0.6-0.1,1.1,0,1.6,0.3l6.5,4.1c0.6,0.4,1.2,0.2,1.5-0.1c0.4-0.3,0.6-0.9,0.3-1.4   l-9-20.8c-0.2-0.5-0.2-1.1,0-1.7c0.2-0.5,0.6-0.9,1.1-1.2c0.6-0.2,1.1-0.2,1.7,0c0.6,0.3,1,0.6,1.2,1.1l5.1,11.8   c0.1,0.3,0.4,0.5,0.7,0.7c0.3,0.1,0.6,0.1,0.9,0c0.7-0.3,1-0.8,0.9-1.5c-0.2-0.8,0.2-1.6,0.9-2l0.1,0c0.4-0.1,0.7-0.2,1.2,0   c0.5,0.2,0.7,0.6,0.9,0.9l1,2.2c0.3,0.6,0.8,0.9,1.4,0.8c0.6-0.1,1-0.6,1-1.3v-1c0.1-0.6,0.5-1,0.9-1.2c0.5-0.1,0.8-0.1,1.3,0   c0.5,0.2,0.7,0.6,0.9,0.9l0.9,2.1c0.3,0.5,0.8,0.8,1.3,0.8c0.6-0.2,1-0.6,1.1-1.2l0.1-0.8c0-0.4,0.1-0.7,0.4-0.9   c0.2-0.2,0.5-0.3,0.7-0.4c0.4-0.1,0.8-0.1,1.2,0c0.5,0.2,0.7,0.6,0.9,0.9l4,9.4c1.7,4.5,0.2,9.7-3.7,12.5   c-0.8,0.6-2.1,1.3-3.2,1.7C67.4,87.8,65.9,88.1,64.3,88.1z M59.5,86.6c3,1.3,6.3,1.3,9.2,0.1c1-0.4,2.3-1.1,3.1-1.7   c3.7-2.6,5.2-7.6,3.5-11.9l0-0.1l-4-9.2c-0.2-0.3-0.3-0.5-0.7-0.7c-0.2-0.1-0.6-0.1-0.8,0c-0.2,0.1-0.3,0.2-0.5,0.3   c-0.1,0.1-0.2,0.4-0.2,0.6l-0.1,0.8c-0.1,0.8-0.7,1.4-1.5,1.6c-0.8,0.1-1.5-0.3-1.9-1l-0.9-2.1c-0.2-0.3-0.3-0.5-0.7-0.7   c-0.3-0.1-0.6-0.1-0.9,0c-0.3,0.1-0.5,0.5-0.6,0.8l0,0.9c0,0.9-0.6,1.6-1.4,1.7c-0.8,0.2-1.6-0.2-2-1l-1-2.2   c-0.2-0.3-0.3-0.5-0.7-0.7c-0.3-0.1-0.5-0.1-0.8,0l-0.1,0c-0.4,0.2-0.8,0.8-0.6,1.4c0.2,0.9-0.2,1.8-1.2,2.1   c-0.4,0.2-0.8,0.2-1.2,0c-0.4-0.2-0.8-0.5-1-0.9l-5.1-11.8c-0.2-0.4-0.5-0.7-1-0.9c-0.4-0.2-0.9-0.2-1.3,0   c-0.4,0.2-0.7,0.5-0.9,0.9c-0.2,0.4-0.2,0.9,0,1.3l9,20.8c0.3,0.7,0.1,1.5-0.5,2c-0.6,0.5-1.4,0.5-2.1,0.1l-6.5-4.1   c-0.4-0.3-0.8-0.4-1.2-0.3c-0.4,0.1-0.8,0.3-1,0.7c-0.5,0.7-0.3,1.8,0.5,2.3c0.1,0,0.3,0.1,0.7,0.4c0.2,0.1,0.4,0.3,0.4,0.3   l13.2,8.2l0.1,0.1C57.6,85.5,59.1,86.4,59.5,86.6z"></path>	</g>	<g>		<g>			<path d="M55.8,69.1c-0.6,0-1.1-0.3-1.4-0.9L52.2,63c-0.3-0.8,0-1.6,0.8-2c0.8-0.3,1.6,0,2,0.8l2.2,5.1c0.3,0.8,0,1.6-0.8,2    C56.2,69,56,69.1,55.8,69.1z"></path>			<path d="M55.8,69.3c-0.7,0-1.3-0.4-1.6-1L52,63.1c-0.4-0.9,0-1.9,0.9-2.3c1-0.4,1.9,0,2.3,0.9l2.2,5.1c0.4,0.9,0,1.9-0.9,2.3    C56.3,69.2,56.1,69.3,55.8,69.3z M53.6,61.1c-0.2,0-0.3,0-0.5,0.1c-0.6,0.3-0.9,1-0.7,1.7l2.2,5.2c0.2,0.5,0.6,0.7,1.2,0.7    c0.1,0,0.3-0.1,0.5-0.2c0.7-0.3,0.9-1,0.7-1.7l-2.2-5.1C54.5,61.4,54.1,61.1,53.6,61.1z"></path>		</g>	</g>	<g>		<g>			<path d="M61.8,68.5c-0.6,0-1.1-0.3-1.4-0.9l-2-4.5c-0.3-0.8,0-1.6,0.8-2c0.8-0.3,1.6,0,2,0.8l2,4.5c0.3,0.8,0,1.6-0.8,2    C62.2,68.4,62,68.5,61.8,68.5z"></path>			<path d="M61.8,68.8c-0.7,0-1.3-0.4-1.6-1l-2-4.5c-0.4-0.9,0-1.9,0.9-2.3c1-0.4,1.9,0,2.3,0.9l2,4.5c0.4,0.9,0,1.9-0.9,2.3l-0.1,0    c-0.1,0-0.2,0-0.2,0C62.1,68.7,61.9,68.8,61.8,68.8z M59.8,61.2c-0.2,0-0.3,0-0.5,0.1c-0.6,0.3-0.9,1-0.7,1.7l2,4.5    c0.2,0.5,0.7,0.8,1.2,0.8c0.1,0,0.2,0,0.2,0c0.1,0,0.2,0,0.3-0.1c0.6-0.3,0.9-1,0.6-1.7L61,62C60.7,61.5,60.3,61.2,59.8,61.2z"></path>		</g>	</g>	<g>		<g>			<path d="M67.9,67.9c-0.6,0-1.1-0.3-1.4-0.9L65,63.4c-0.3-0.8,0-1.6,0.8-2c0.8-0.3,1.6,0,2,0.8l1.6,3.6c0.3,0.8,0,1.6-0.8,2    C68.3,67.9,68.1,67.9,67.9,67.9z"></path>			<path d="M67.9,68.2c-0.7,0-1.3-0.4-1.6-1l-1.5-3.6c-0.4-0.9,0-1.9,0.9-2.3c1-0.4,1.9,0,2.3,0.9l1.6,3.6c0.4,0.9,0,1.9-0.9,2.3    C68.3,68.2,68.1,68.2,67.9,68.2z M66.4,61.5c-0.2,0-0.3,0-0.5,0.1c-0.6,0.3-0.9,1-0.7,1.7l1.5,3.6c0.2,0.5,0.6,0.7,1.2,0.7    c0.2,0,0.4,0,0.6-0.1c0.6-0.3,0.9-1,0.6-1.7l-1.6-3.6C67.3,61.8,66.9,61.5,66.4,61.5z"></path>		</g>	</g></g><g>	<g>		<g>			<path d="M53.3,50.4c-0.6,0-1.1-0.3-1.4-0.9c-0.3-0.8,0-1.6,0.8-2l3.7-1.6c0.8-0.3,1.6,0,2,0.8c0.3,0.8,0,1.6-0.8,2l-3.7,1.6    C53.7,50.3,53.5,50.4,53.3,50.4z"></path>			<path d="M53.3,50.7c-0.7,0-1.3-0.4-1.6-1c-0.4-1,0-1.9,0.9-2.3l3.7-1.6c0.9-0.4,1.9,0,2.3,0.9c0.4,1,0,1.9-0.9,2.3l-3.8,1.6    c-0.1,0-0.2,0-0.2,0C53.6,50.6,53.4,50.7,53.3,50.7z M57,46c-0.2,0-0.3,0-0.5,0.1l-3.7,1.6c-0.7,0.3-0.9,1-0.7,1.7    c0.2,0.5,0.6,0.7,1.2,0.7c0.1,0,0.2,0,0.2,0c0.1,0,0.2,0,0.3-0.1l3.7-1.6c0.7-0.3,0.9-1,0.7-1.7C57.9,46.3,57.5,46,57,46z"></path>		</g>	</g>	<g>		<g>			<path d="M48.9,45.4c-0.2,0-0.4,0-0.5-0.1c-0.8-0.3-1.1-1.2-0.8-1.9l1.5-3.8c0.3-0.8,1.2-1.1,1.9-0.8c0.8,0.3,1.1,1.2,0.8,1.9    l-1.5,3.8C50,45.1,49.5,45.4,48.9,45.4z"></path>			<path d="M48.9,45.6c-0.2,0-0.5,0-0.6-0.1c-0.4-0.2-0.7-0.5-0.9-0.9c-0.2-0.4-0.2-0.9,0-1.3l1.5-3.8c0.2-0.4,0.5-0.8,0.9-0.9    c0.4-0.2,0.9-0.2,1.3,0c0.4,0.2,0.7,0.5,0.9,0.9c0.2,0.4,0.2,0.9,0,1.3l-1.5,3.8C50.2,45.3,49.6,45.6,48.9,45.6z M50.4,38.9    c-0.2,0-0.3,0-0.5,0.1c-0.3,0.1-0.5,0.4-0.6,0.7l-1.5,3.8c-0.1,0.3-0.1,0.6,0,0.9c0.1,0.3,0.4,0.5,0.7,0.6l0.1,0.1    c0,0,0.2,0,0.3,0c0.5,0,0.9-0.3,1.2-0.8l1.5-3.8c0.1-0.3,0.1-0.6,0-0.9c-0.1-0.3-0.4-0.5-0.7-0.6C50.8,39,50.6,38.9,50.4,38.9z"></path>		</g>	</g>	<g>		<g>			<path d="M42.3,45.1c-0.6,0-1.1-0.3-1.4-0.9l-1.6-3.7c-0.3-0.8,0-1.6,0.8-2c0.8-0.3,1.6,0,2,0.8l1.6,3.7c0.3,0.8,0,1.6-0.8,2    C42.7,45,42.5,45.1,42.3,45.1z"></path>			<path d="M42.3,45.4c-0.7,0-1.3-0.4-1.6-1l-1.6-3.7c-0.4-0.9,0-1.9,0.9-2.3c1-0.4,1.9,0,2.3,0.9l1.6,3.7c0.4,0.9,0,1.9-0.9,2.3    l-0.1,0c-0.1,0-0.2,0-0.2,0C42.6,45.3,42.4,45.4,42.3,45.4z M40.7,38.6c-0.2,0-0.3,0-0.5,0.1c-0.6,0.3-0.9,1-0.7,1.7l1.6,3.7    c0.2,0.5,0.7,0.7,1.2,0.7c0.1,0,0.2,0,0.2,0c0.1,0,0.2,0,0.3-0.1c0.6-0.3,0.9-1,0.6-1.7l-1.6-3.7C41.6,38.9,41.2,38.6,40.7,38.6z    "></path>		</g>	</g>	<g>		<g>			<path d="M37.3,49.5c-0.2,0-0.4,0-0.6-0.1L33,47.9c-0.8-0.3-1.1-1.2-0.8-1.9c0.3-0.8,1.2-1.1,1.9-0.8l3.8,1.5    c0.8,0.3,1.1,1.2,0.8,1.9C38.5,49.1,37.9,49.5,37.3,49.5z"></path>			<path d="M37.3,49.8c-0.2,0-0.5,0-0.7-0.1l-3.7-1.5c-0.4-0.2-0.8-0.5-0.9-0.9c-0.2-0.4-0.2-0.9,0-1.3c0.2-0.4,0.5-0.7,0.9-0.9    c0.4-0.2,0.9-0.2,1.3,0l3.8,1.5c0.4,0.2,0.8,0.5,0.9,0.9c0.2,0.4,0.2,0.9,0,1.3C38.7,49.3,38,49.8,37.3,49.8z M33.5,45.3    c-0.2,0-0.3,0-0.5,0.1c-0.3,0.1-0.5,0.4-0.6,0.7c-0.1,0.3-0.1,0.7,0,1c0.1,0.3,0.4,0.5,0.7,0.6l3.7,1.5c0.2,0.1,0.3,0.1,0.5,0.1    c0.5,0,1-0.3,1.2-0.7c0.1-0.3,0.1-0.6,0-0.9c-0.1-0.3-0.4-0.5-0.7-0.6L34,45.4C33.9,45.4,33.7,45.3,33.5,45.3z"></path>		</g>	</g>	<g>		<g>			<path d="M33.2,57.7c-0.6,0-1.1-0.3-1.4-0.9c-0.3-0.8,0-1.6,0.8-2l3.7-1.6c0.8-0.3,1.6,0,2,0.8c0.3,0.8,0,1.6-0.8,2l-3.7,1.6    C33.7,57.6,33.4,57.7,33.2,57.7z"></path>			<path d="M33.2,58c-0.7,0-1.3-0.4-1.6-1c-0.4-1,0-1.9,0.9-2.3l3.7-1.6c0.9-0.4,1.9,0,2.3,0.9c0.4,1,0,1.9-0.9,2.3l-3.8,1.6    c0,0-0.1,0-0.1,0C33.5,57.9,33.3,58,33.2,58z M36.9,53.3c-0.2,0-0.3,0-0.5,0.1L32.7,55c-0.7,0.3-0.9,1-0.7,1.7    c0.2,0.5,0.6,0.7,1.2,0.7c0.1,0,0.2,0,0.3-0.1c0.1,0,0.1,0,0.2,0l3.7-1.6c0.7-0.3,0.9-1,0.7-1.7C37.8,53.6,37.4,53.3,36.9,53.3z"></path>		</g>	</g></g><g>	<g>		<g>			<path d="M43.3,88.9H29.2c-4.5,0-8.1-3.6-8.1-8.1V17.3c0-4.5,3.6-8.1,8.1-8.1h30.4c4.5,0,8.1,3.6,8.1,8.1v36.4    c0,0.8-0.7,1.5-1.5,1.5s-1.5-0.7-1.5-1.5V17.3c0-2.8-2.3-5.1-5.1-5.1H29.2c-2.8,0-5.1,2.3-5.1,5.1v63.5c0,2.8,2.3,5.1,5.1,5.1    h14.1c0.8,0,1.5,0.7,1.5,1.5S44.2,88.9,43.3,88.9z"></path>			<path d="M43.3,89.2H29.2c-4.6,0-8.4-3.7-8.4-8.4V17.3c0-4.6,3.7-8.3,8.4-8.3h30.4c4.6,0,8.4,3.7,8.4,8.3v36.4    c0,0.9-0.8,1.8-1.8,1.8s-1.8-0.8-1.8-1.8V17.3c0-2.7-2.2-4.8-4.9-4.8H29.2c-2.7,0-4.9,2.2-4.9,4.8v63.5c0,2.7,2.2,4.9,4.9,4.9    h14.1c0.9,0,1.8,0.8,1.8,1.8C45,88.4,44.3,89.2,43.3,89.2z M29.2,9.5c-4.3,0-7.9,3.5-7.9,7.8v63.5c0,4.3,3.5,7.9,7.9,7.9h14.1    c0.8,0,1.3-0.6,1.3-1.3c0-0.7-0.6-1.3-1.3-1.3H29.2c-3,0-5.4-2.4-5.4-5.4V17.3c0-2.9,2.4-5.3,5.4-5.3h30.4c3,0,5.4,2.4,5.4,5.3    v36.4c0,0.7,0.6,1.3,1.3,1.3s1.3-0.6,1.3-1.3V17.3c0-4.3-3.5-7.8-7.9-7.8H29.2z"></path>		</g>	</g>	<g>		<g>			<path d="M49.1,20.3h-9.2c-0.8,0-1.5-0.7-1.5-1.5s0.7-1.5,1.5-1.5h9.2c0.8,0,1.5,0.7,1.5,1.5S49.9,20.3,49.1,20.3z"></path>			<path d="M49.1,20.5h-9.2c-0.9,0-1.8-0.8-1.8-1.8S39,17,39.9,17h9.2c0.9,0,1.7,0.8,1.7,1.8S50,20.5,49.1,20.5z M39.9,17.5    c-0.7,0-1.3,0.6-1.3,1.3s0.6,1.3,1.3,1.3h9.2c0.7,0,1.2-0.6,1.2-1.3s-0.6-1.3-1.2-1.3H39.9z"></path>		</g>	</g></g></svg>