<svg xmlns="http://www.w3.org/2000/svg" xmlns:xlink="http://www.w3.org/1999/xlink" x="0px" y="0px" viewBox="0 0 50 50" style="enable-background:new 0 0 50 50;" xml:space="preserve"><g>	<path d="M36.8,6.5L36.3,6v0c-3.1-2.9-7.2-4.4-11.5-4.4c-2.2,0-4.3,0.5-6.2,1.3c-2,0.8-3.8,2-5.3,3.5c-3.1,3-4.9,7.1-5,11.4  c0,0.2,0,0.4,0,0.6c0,1.5,0.2,3,0.6,4.5C9,23.4,9.2,24,9.4,24.5v0l0.5,1.1v0l0,0l10.9,20.1c0.8,1.6,2.4,2.5,4.2,2.5  c1.8,0,3.3-0.9,4.2-2.5L40,25.7v0l0,0l0.5-1v0c0.2-0.6,0.4-1.1,0.6-1.7c0.4-1.5,0.6-3,0.6-4.5C41.7,13.9,39.9,9.7,36.8,6.5z   M39.5,22.4c-0.1,0.5-0.3,1.1-0.5,1.5l-0.4,1L27.7,45c-0.6,1-1.6,1.6-2.7,1.6c-1.2,0-2.2-0.6-2.7-1.6l-10.8-20l-0.5-1  c-0.1-0.3-0.2-0.6-0.3-0.9c-0.1-0.2-0.1-0.4-0.2-0.6c-0.4-1.5-0.6-3-0.5-4.5c0.2-7.7,6.4-14,14-14.5c0.3,0,0.6,0,1,0H25  c4,0,7.8,1.6,10.6,4.4c2.9,2.9,4.5,6.7,4.5,10.7C40.1,19.7,39.9,21.1,39.5,22.4z"></path>	<path d="M25,48.5c-1.9,0-3.5-1-4.4-2.6L9.6,25.7l-0.5-1.1c-0.2-0.5-0.4-1.1-0.6-1.7c-0.4-1.5-0.6-3-0.6-4.5c0-0.2,0-0.4,0-0.6  c0.1-4.4,2-8.5,5.1-11.6c1.6-1.5,3.4-2.7,5.4-3.6c2-0.8,4.2-1.3,6.3-1.3c0,0,0.1,0,0.1,0c4.1,0,8,1.4,11,4.1v0l0.9,0.9  c3.2,3.2,5,7.5,5,12.1c0,1.5-0.2,3-0.6,4.5c-0.2,0.6-0.4,1.2-0.6,1.7l0,0.1l-0.5,1.1L29.4,45.9C28.5,47.5,26.8,48.5,25,48.5z   M10.2,25.5L10.2,25.5L21,45.6c0.8,1.5,2.3,2.4,3.9,2.4c1.7,0,3.1-0.9,3.9-2.4l10.9-20.1l0.4-1c0.2-0.5,0.4-1.1,0.6-1.7  c0.4-1.4,0.6-2.9,0.6-4.4c0-4.4-1.7-8.6-4.9-11.7l-0.5-0.4C33,3.4,29,1.9,24.8,1.9c-2.1,0-4.1,0.4-6.1,1.2c-2,0.8-3.7,2-5.2,3.5  c-3.1,3-4.8,7-5,11.2c0,0.2,0,0.4,0,0.6c0,1.5,0.2,3,0.6,4.4c0.2,0.6,0.4,1.1,0.6,1.7l0,0.1L10.2,25.5z M25,46.9  c-1.3,0-2.4-0.7-3-1.8l-10.8-20L10.7,24c-0.1-0.3-0.2-0.6-0.3-0.9c-0.1-0.2-0.1-0.4-0.2-0.6c-0.4-1.5-0.6-3-0.5-4.6  c0.2-7.7,6.5-14.3,14.3-14.8c0.3,0,0.6,0,1,0H25c4.1,0,7.9,1.6,10.8,4.5c2.9,2.9,4.5,6.8,4.5,10.9c0,1.4-0.2,2.8-0.6,4.1  c-0.1,0.5-0.3,1-0.5,1.6l-0.4,1L27.9,45.1C27.3,46.2,26.2,46.9,25,46.9z M24.8,3.6c-0.4,0-0.6,0-0.9,0c-7.5,0.5-13.5,6.8-13.8,14.3  c0,1.5,0.1,3,0.5,4.4c0.1,0.2,0.1,0.4,0.2,0.6c0.1,0.3,0.2,0.6,0.3,0.9l0.4,1l10.8,20c0.5,0.9,1.4,1.5,2.5,1.5c1.1,0,2-0.6,2.5-1.5  l10.9-20.1l0.4-0.9c0.2-0.6,0.4-1.1,0.5-1.5v0c0.4-1.3,0.5-2.6,0.5-4c0-4-1.6-7.7-4.4-10.5C32.6,5.1,28.9,3.6,25,3.6H24.8z"></path></g><g>	<path d="M24.9,10c-4.7,0-8.6,3.8-8.6,8.6c0,4.7,3.8,8.6,8.6,8.6c4.7,0,8.6-3.8,8.6-8.6C33.5,13.9,29.7,10,24.9,10z M24.9,25.6  c-3.8,0-6.9-3.1-6.9-7c0-3.8,3.1-6.9,6.9-6.9c3.8,0,7,3.1,7,6.9C31.9,22.5,28.8,25.6,24.9,25.6z"></path>	<path d="M24.9,27.5c-4.9,0-8.9-4-8.9-8.9c0-4.9,4-8.9,8.9-8.9c4.9,0,8.9,4,8.9,8.9C33.8,23.5,29.8,27.5,24.9,27.5z M24.9,10.3  c-4.6,0-8.3,3.7-8.3,8.3c0,4.6,3.7,8.3,8.3,8.3c4.6,0,8.3-3.7,8.3-8.3C33.2,14.1,29.5,10.3,24.9,10.3z M24.9,25.9  c-4,0-7.2-3.2-7.2-7.2c0-4,3.2-7.2,7.2-7.2c4,0,7.2,3.2,7.2,7.2C32.2,22.6,28.9,25.9,24.9,25.9z M24.9,12c-3.7,0-6.7,3-6.7,6.7  c0,3.7,3,6.7,6.7,6.7c3.7,0,6.7-3,6.7-6.7C31.6,15,28.6,12,24.9,12z"></path></g></svg>