<svg xmlns="http://www.w3.org/2000/svg" width="130" height="130" viewBox="0 0 130 130" fill="none"><path d="M35.4718 11.7583V104.225C35.4718 111.018 29.8756 116.678 22.4464 117.967C21.4113 118.145 20.3384 118.242 19.2386 118.242C10.2675 118.242 3 111.966 3 104.225V11.7583H35.4718Z" stroke="currentcolor" stroke-width="5.66559" stroke-linecap="round" stroke-linejoin="round"></path><path d="M35.4718 78.5186H3" stroke="currentcolor" stroke-width="5.66559" stroke-linecap="round" stroke-linejoin="round"></path><path d="M35.4718 44.3594H3" stroke="currentcolor" stroke-width="5.66559" stroke-linecap="round" stroke-linejoin="round"></path><path d="M35.4719 89.938H42.2218H46.1737H58.8163H64.1213H71.4696H86.0208H107.92H127V117.967H107.92H86.0208H64.1213H42.2218H22.4465" stroke="currentcolor" stroke-width="5.66559" stroke-linecap="round" stroke-linejoin="round"></path><path d="M66.0082 60.7814L85.3468 52.0798L102.259 44.4673L117.269 69.3212L100.356 76.9337L90.3283 81.2683" stroke="currentcolor" stroke-width="5.66559" stroke-linecap="round" stroke-linejoin="round"></path><path d="M35.4718 50.3275L58.8539 15.9634L86.8509 30.1587L54.2066 78.5726" stroke="currentcolor" stroke-width="5.66559" stroke-linecap="round" stroke-linejoin="round"></path><path d="M19.2333 107.357C22.8659 107.357 25.8107 104.412 25.8107 100.78C25.8107 97.1469 22.8659 94.2021 19.2333 94.2021C15.6007 94.2021 12.6559 97.1469 12.6559 100.78C12.6559 104.412 15.6007 107.357 19.2333 107.357Z" stroke="currentcolor" stroke-width="5.66559" stroke-linecap="round" stroke-linejoin="round"></path></svg>