<svg xmlns="http://www.w3.org/2000/svg" xmlns:xlink="http://www.w3.org/1999/xlink" x="0px" y="0px" viewBox="0 0 100 100" style="enable-background:new 0 0 100 100;" xml:space="preserve"><g>	<g class="wdt-clock-01">		<path d="M90,53.2c0,11.1-4.5,21.1-11.7,28.4C71.1,88.8,61.1,93.3,50,93.3c-11,0-21-4.5-28.3-11.8c-3.6-3.6-6.5-8.1-8.6-12.9   c-2-4.9-3.1-10.1-3.1-15.5c0-10.7,4.2-20.4,10.9-27.6c3.3-3.5,7.2-6.4,11.6-8.5c4.3-2.1,9.1-3.5,14.2-3.9v5.5   c-2.7,0.3-5.3,0.8-7.8,1.7c-2.9,1-5.5,2.3-8,3.9l0,0l-0.7,0.5l-0.1,0h0c-4.5,3.2-8.2,7.5-10.8,12.4c-2.5,4.8-3.9,10.2-3.9,16   c0,9.6,3.9,18.3,10.1,24.5C31.8,84,40.5,87.9,50,87.9c9.5,0,18.2-3.9,24.4-10.2c6.3-6.3,10.1-14.9,10.1-24.5   c0-0.7,0.3-1.4,0.8-1.9c0.5-0.5,1.2-0.8,1.9-0.8c0.7,0,1.4,0.3,1.9,0.8C89.7,51.8,90,52.5,90,53.2z"></path>		<path d="M45.1,14.9V6.8c0,0,0-0.1,0.1-0.1c0.1,0,0.1,0,0.2,0l12.6,8l0.1,0.1c0,0,0.1,0.1,0.1,0.2c0,0.1,0,0.1-0.1,0.2L58,15.2   l-12.6,8c-0.1,0-0.1,0-0.2,0c-0.1,0-0.1-0.1-0.1-0.1V14.9z"></path>	</g>	<g class="wdt-clock-02">		<path d="M34.5,38.7c0.8-0.8,2.1-0.8,2.9,0L51,52.3c0.8,0.8,0.8,2.1,0,3c-0.8,0.8-2.1,0.8-3,0L34.5,41.6   C33.7,40.8,33.7,39.5,34.5,38.7z"></path>		<path d="M78.8,24.3c0.8,0.8,0.8,2.1,0,3L51,55.2c-0.8,0.8-2.1,0.8-2.9,0c-0.8-0.8-0.8-2.2,0-3l27.8-27.9   C76.7,23.5,78,23.5,78.8,24.3L78.8,24.3z"></path>	</g>	<g class="wdt-clock-03">		<path d="M51,23.7v5.8c0,0.6-0.5,1-1,1c-0.6,0-1-0.5-1-1v-5.8c0-0.6,0.5-1,1-1C50.6,22.7,51,23.2,51,23.7z"></path>		<path d="M20.6,52.2h5.8c0.6,0,1,0.5,1,1c0,0.6-0.5,1-1,1h-5.8c-0.6,0-1-0.5-1-1C19.6,52.7,20,52.2,20.6,52.2z"></path>		<path d="M49,82.7v-5.8c0-0.6,0.5-1,1-1c0.6,0,1,0.5,1,1v5.8c0,0.6-0.5,1-1,1C49.4,83.7,49,83.3,49,82.7z"></path>		<path d="M79.4,54.2h-5.8c-0.6,0-1-0.5-1-1c0-0.6,0.5-1,1-1h5.8c0.6,0,1,0.5,1,1C80.4,53.8,80,54.2,79.4,54.2z"></path>		<path d="M36.2,27.2l1.5,2.7c0.3,0.5,0.1,1.1-0.4,1.4c-0.5,0.3-1.1,0.1-1.4-0.4l-1.5-2.7c-0.3-0.5-0.1-1.1,0.4-1.4   C35.3,26.5,35.9,26.7,36.2,27.2z"></path>		<path d="M25,37.6l2.7,1.5c0.5,0.3,0.6,0.9,0.4,1.4c-0.3,0.5-0.9,0.6-1.4,0.4L24,39.4c-0.5-0.3-0.6-0.9-0.4-1.4   C23.9,37.5,24.6,37.3,25,37.6z"></path>		<path d="M24,67.1l2.7-1.5c0.5-0.3,1.1-0.1,1.4,0.4c0.3,0.5,0.1,1.1-0.4,1.4L25,68.9c-0.5,0.3-1.1,0.1-1.4-0.4   C23.4,68,23.5,67.4,24,67.1z"></path>		<path d="M34.4,78.3l1.5-2.7c0.3-0.5,0.9-0.6,1.4-0.4c0.5,0.3,0.6,0.9,0.4,1.4l-1.5,2.7c-0.3,0.5-0.9,0.6-1.4,0.4   C34.3,79.4,34.1,78.8,34.4,78.3z"></path>		<path d="M75,68.9l-2.7-1.6c-0.5-0.3-0.6-0.9-0.4-1.4c0.3-0.5,0.9-0.6,1.4-0.4l2.7,1.5c0.5,0.3,0.6,0.9,0.4,1.4   C76.1,69,75.4,69.1,75,68.9z"></path>		<path d="M76,39.4l-2.7,1.5c-0.5,0.3-1.1,0.1-1.4-0.4c-0.3-0.5-0.1-1.1,0.4-1.4l2.7-1.5c0.5-0.3,1.1-0.1,1.4,0.4   C76.6,38.5,76.5,39.1,76,39.4z"></path>		<path d="M65.6,28.2L64,30.9c-0.3,0.5-0.9,0.6-1.4,0.4c-0.5-0.3-0.6-0.9-0.4-1.4l1.5-2.7c0.3-0.5,0.9-0.6,1.4-0.4   C65.7,27.1,65.9,27.7,65.6,28.2z"></path>		<path d="M63.8,79.3l-1.5-2.7c-0.3-0.5-0.1-1.1,0.4-1.4c0.5-0.3,1.1-0.1,1.4,0.4l1.5,2.7c0.3,0.5,0.1,1.1-0.4,1.4   S64.1,79.8,63.8,79.3z"></path>	</g></g></svg>