<svg xmlns="http://www.w3.org/2000/svg" xmlns:xlink="http://www.w3.org/1999/xlink" x="0px" y="0px" viewBox="0 0 50 50" style="enable-background:new 0 0 50 50;" xml:space="preserve"><g>	<g>		<path d="M40.3,34.1c0,0-0.1-0.1-0.1-0.1l-6.4-3.7h0l-0.1,0c0,0-0.1,0-0.1,0c-0.6-0.3-1.2-0.4-1.8-0.3c-0.5,0.1-1,0.3-1.5,0.6   c-0.9,0.6-1.6,1.5-2.1,2.3l0,0h0c-0.2,0.3-0.5,0.6-0.7,0.8c-0.2,0.2-0.4,0.3-0.5,0.4c-2.6-1.3-4.8-2.9-6.6-4.9   c-1.5-1.6-2.8-3.5-4.2-5.8c0-0.1,0-0.2,0.3-0.5c0.2-0.3,0.6-0.6,1.1-0.9c0.3-0.2,0.6-0.4,0.8-0.6c0.9-0.7,1.5-1.3,1.8-2.1   c0.2-0.4,0.3-0.8,0.3-1.2c0-0.7-0.2-1.3-0.7-1.9l-4.1-6.9c-0.3-0.5-0.7-0.8-1.3-0.8c-2.4-0.2-4.5,0.3-6.2,1.7   c-1.6,1.3-2.7,3.3-3.1,5.8c-0.1,0.7-0.2,1.5-0.2,2.2c0,3.1,1,6.5,2.8,9.9c1.2,2.1,2.7,4.2,4.4,6.2c1.7,2,3.7,3.8,5.7,5.3v0   c1,0.7,1.9,1.3,2.9,1.9l0,0l0.3,0.2h0c2.3,1.4,4.2,2.3,6,2.9c1.4,0.4,2.8,0.7,4.2,0.7c0.7,0,1.3,0,2-0.1c1.6-0.2,2.9-0.6,4-1.1   c1.5-0.7,2.7-1.7,3.5-3.1c0.7-1.2,1.1-2.5,1.1-3.6C41.8,35.9,41.3,34.8,40.3,34.1z M39.5,39.8L39.4,40c-0.6,1.1-1.5,1.8-2.7,2.4   c-1,0.4-2.1,0.8-3.6,1c-1.8,0.3-3.6,0.1-5.5-0.5c-1.7-0.5-3.5-1.4-5.7-2.8L21.6,40c-0.9-0.6-1.8-1.2-2.8-1.8c-3.9-3-7.5-7-9.7-11   c-2.2-3.9-3-7.7-2.5-11.1C7,14,7.8,12.4,9.1,11.3c1.1-0.9,2.5-1.4,4.2-1.4c0.3,0,0.6,0,0.9,0l0,0c0,0,0,0,0,0h0l4.1,7l0,0l0,0l0,0   c0.2,0.3,0.3,0.5,0.4,0.8c0,0.2,0,0.5-0.1,0.8c-0.2,0.4-0.6,0.9-1.3,1.4l0,0l0,0l0,0c-0.2,0.2-0.4,0.3-0.7,0.5l0,0   c-0.5,0.3-1.1,0.8-1.5,1.3c-0.4,0.5-0.6,1.1-0.5,1.8l0,0l0.1,0.2l0.1,0.3l0,0c1.4,2.4,2.8,4.4,4.3,6c2,2.1,4.3,3.8,7.1,5.2h0   c0.4,0.2,0.8,0.2,1.2,0.1c0.4-0.1,0.7-0.4,1.1-0.8c0.2-0.2,0.5-0.5,0.8-1c0.7-0.9,1.2-1.5,1.8-1.9c0.3-0.2,0.5-0.3,0.8-0.3   c0.3,0,0.5,0,0.9,0.2c0,0,0,0,0.1,0l6.4,3.7h0c0,0,0,0,0,0c0,0,0,0,0,0c0.5,0.4,0.8,1,0.8,1.8C40.2,38,40,38.9,39.5,39.8z"></path>		<path d="M31.3,45.4c-1.4,0-2.9-0.2-4.3-0.7c-1.8-0.6-3.8-1.5-6-2.9h0l-0.5-0.3c-0.9-0.6-1.8-1.1-2.8-1.8l-0.1-0.1   c-2-1.5-3.9-3.3-5.7-5.3c-1.8-2-3.3-4.1-4.4-6.2c-1.9-3.4-2.9-6.8-2.9-10c0-0.8,0.1-1.5,0.2-2.3c0.4-2.6,1.5-4.6,3.2-6   c1.7-1.4,3.9-2,6.4-1.7c0.7,0.1,1.2,0.4,1.5,1L20,16c0.5,0.6,0.7,1.3,0.7,2c0,0.4-0.1,0.9-0.3,1.3c-0.3,0.8-1,1.5-1.9,2.2   c-0.2,0.2-0.5,0.4-0.8,0.6c-0.3,0.2-0.8,0.6-1,0.8c-0.1,0.1-0.1,0.2-0.2,0.2c1.3,2.3,2.6,4.1,4.1,5.7c1.8,1.9,3.9,3.5,6.4,4.7   c0.1-0.1,0.2-0.1,0.3-0.3c0.2-0.2,0.4-0.5,0.6-0.8l0.1-0.1c0.6-0.8,1.3-1.7,2.1-2.3c0.5-0.4,1-0.6,1.6-0.7c0.6-0.1,1.3,0,1.9,0.3   c0,0,0.1,0,0.1,0l0.1,0.1l6.4,3.7c0,0,0.1,0.1,0.2,0.1c1.1,0.8,1.7,1.9,1.7,3.4c0,1.2-0.4,2.5-1.1,3.8c-0.8,1.4-2,2.5-3.6,3.2   c-1.1,0.5-2.4,0.9-4.1,1.1C32.6,45.4,32,45.4,31.3,45.4z M21.1,41.3L21.1,41.3c2.4,1.4,4.3,2.4,6.1,2.9c1.4,0.4,2.7,0.6,4.1,0.6   c0.6,0,1.2,0,1.9-0.1c1.6-0.2,2.9-0.6,3.9-1.1c1.5-0.7,2.6-1.7,3.3-2.9c0.6-1.1,1-2.4,1-3.5c0-1.3-0.5-2.3-1.4-2.9l0,0   c0,0-0.1-0.1-0.1-0.1l-6.6-3.8c-0.5-0.3-1.1-0.3-1.6-0.3c-0.5,0.1-0.9,0.2-1.3,0.6c-0.8,0.6-1.5,1.4-2.1,2.2L28.3,33   c-0.2,0.3-0.5,0.6-0.6,0.8c-0.2,0.2-0.4,0.4-0.6,0.5L27,34.4l-0.1-0.1c-2.6-1.3-4.8-3-6.7-5c-1.5-1.6-2.9-3.5-4.2-5.9l0-0.1   c0-0.2,0.1-0.4,0.3-0.7c0.2-0.2,0.6-0.5,1.1-0.9c0.3-0.2,0.5-0.4,0.8-0.6c0.9-0.6,1.4-1.3,1.7-2c0.2-0.4,0.2-0.7,0.2-1.1   c0-0.6-0.2-1.2-0.6-1.7l-4.1-7c-0.2-0.4-0.6-0.6-1-0.7C11.9,8.5,9.9,9,8.3,10.3c-1.6,1.3-2.6,3.2-3,5.6c-0.1,0.7-0.2,1.5-0.2,2.2   c0,3,1,6.4,2.8,9.7c1.1,2,2.6,4.2,4.4,6.1c1.7,2,3.7,3.8,5.7,5.3l0.1,0.1c0.9,0.6,1.8,1.2,2.6,1.7L21.1,41.3z M31.3,43.8   c-1.3,0-2.5-0.2-3.8-0.6c-1.7-0.5-3.6-1.4-5.7-2.8l-0.3-0.2c-0.8-0.5-1.8-1.1-2.8-1.8c-4-3-7.5-7-9.8-11.1c-2.2-4-3-7.8-2.5-11.3   c0.4-2.1,1.3-3.9,2.6-5c1.2-1,2.7-1.4,4.4-1.4c0.3,0,0.6,0,0.9,0l0.2,0l0.1,0.2l4.1,7l-0.1,0.1l-0.1,0.1l0.2-0.2   c0.3,0.4,0.4,0.7,0.5,0.9c0,0.3,0,0.6-0.1,0.9c-0.2,0.5-0.7,1-1.4,1.6c-0.2,0.2-0.5,0.4-0.7,0.6c-0.6,0.4-1.1,0.8-1.5,1.3   c-0.4,0.5-0.5,1-0.4,1.5l0.1,0.3l0.1,0.1c1.4,2.4,2.7,4.3,4.3,6c2,2.1,4.2,3.7,7,5.1l0.1,0c0.3,0.2,0.7,0.2,1,0.1   c0.3-0.1,0.6-0.4,1-0.7c0.2-0.2,0.5-0.5,0.8-1c0.7-0.9,1.3-1.6,1.8-2c0.3-0.2,0.6-0.3,0.9-0.4c0.3,0,0.7,0,1,0.2l0.1,0.1l6.3,3.6   h0.2l0,0.1c0.6,0.5,0.9,1.1,0.9,2c0,0.8-0.3,1.8-0.7,2.7l-0.2,0.3c-0.6,1.1-1.6,1.9-2.9,2.5c-1,0.5-2.1,0.8-3.7,1   C32.5,43.8,31.9,43.8,31.3,43.8z M13.3,10.3c-1.6,0-2.9,0.4-4,1.3c-1.2,1-2.1,2.6-2.4,4.6c-0.5,3.3,0.3,7,2.4,10.9   c2.2,4,5.7,8,9.6,10.9c0.9,0.7,1.9,1.3,2.7,1.8l0.3,0.2c2.1,1.3,3.9,2.2,5.6,2.7c1.8,0.6,3.5,0.7,5.3,0.4c1.5-0.2,2.6-0.5,3.5-1   c1.2-0.5,2-1.3,2.6-2.3l0.1-0.2c0.4-0.8,0.7-1.7,0.7-2.4c0-0.7-0.2-1.2-0.6-1.5h-0.2l0-0.1l-6.3-3.6c-0.2-0.1-0.5-0.1-0.7-0.1   c-0.2,0-0.4,0.1-0.6,0.3c-0.5,0.3-1,1-1.7,1.9c-0.3,0.5-0.6,0.8-0.9,1c-0.4,0.4-0.8,0.7-1.2,0.9c-0.5,0.2-1,0.2-1.4,0l-0.1,0   c-2.8-1.4-5.2-3.2-7.2-5.3c-1.6-1.7-2.9-3.5-4.3-5.9l0,0l-0.5-1l0.1-0.1c-0.1-0.6,0.1-1.2,0.6-1.8c0.4-0.5,1-1,1.6-1.4   c0.3-0.2,0.5-0.4,0.7-0.5l0.1-0.1c0.6-0.4,1-0.9,1.2-1.3c0.1-0.2,0.1-0.4,0.1-0.6c0-0.2-0.1-0.4-0.3-0.6l-0.1-0.1l-4-6.8h-0.1l0,0   C13.7,10.3,13.5,10.3,13.3,10.3z"></path>	</g>	<g>		<path d="M30.4,7.5l3,1.2C32.3,8.2,31.3,7.8,30.4,7.5z"></path>		<path d="M33.2,9l-3-1.2l0.2-0.6c1,0.3,2.1,0.7,3,1.2L33.2,9z"></path>	</g>	<g>		<path d="M45.2,26.2L45.2,26.2c0,0.4-0.3,0.8-0.8,0.9h0c-0.4,0-0.8-0.3-0.8-0.8c-0.5-8.5-4-14.4-10.3-17.6c-1-0.5-2-0.9-3-1.2   c-3.4-1.1-6.3-1-6.5-1c-0.4,0-0.8-0.3-0.8-0.8c0-0.4,0.3-0.8,0.8-0.8c0.2,0,5.1-0.2,10.2,2.4l0.2,0.1C38.9,9.7,44.6,15,45.2,26.2z   "></path>		<path d="M44.5,27.4c-0.7,0-1.1-0.5-1.2-1C42.8,17.9,39.4,12.1,33.2,9c-0.9-0.5-1.9-0.9-2.9-1.2c-3-1-5.6-1-6.3-1   c-0.3,0-0.6-0.1-0.8-0.3c-0.2-0.2-0.4-0.5-0.4-0.8c0-0.6,0.5-1.1,1.1-1.2c1.3,0,5.7,0.1,10.4,2.4l0.2,0.1   c4.7,2.4,10.5,7.7,11.2,19.1v0c0,0.3-0.1,0.6-0.3,0.8C45.1,27.2,44.8,27.3,44.5,27.4C44.5,27.4,44.5,27.4,44.5,27.4z M24,6.2   c0.9,0,3.5,0.1,6.5,1c1,0.3,2.1,0.7,3,1.2c6.4,3.2,9.9,9.2,10.4,17.8c0,0.3,0.2,0.5,0.5,0.5c0.2,0,0.3-0.1,0.4-0.2   c0.1-0.1,0.1-0.2,0.1-0.4l0.3,0l-0.3,0C44.3,15.1,38.7,9.9,34.1,7.6l-0.2-0.1c-4.5-2.2-8.8-2.4-10-2.3c-0.3,0-0.5,0.2-0.5,0.5   c0,0.1,0.1,0.2,0.2,0.3C23.6,6.1,23.7,6.2,24,6.2C23.9,6.2,23.9,6.2,24,6.2z"></path>	</g>	<g>		<polygon points="38.4,25.9 38.4,25.2 38.7,25.2 38.8,25.8   "></polygon>	</g>	<g>		<path d="M40,25.4L40,25.4c0,0.4-0.3,0.8-0.8,0.9h0c-0.4,0-0.8-0.3-0.8-0.8c-0.2-3-0.9-5.5-2.1-7.6c-1.2-2.1-2.9-3.6-5.1-4.7   c-3.2-1.6-6.4-1.6-6.6-1.6c-0.4,0-0.8-0.3-0.8-0.8c0-0.4,0.3-0.8,0.8-0.8h0.2c0.8,0,3.9,0.1,7.2,1.7C35.4,13.5,39.5,17.3,40,25.4z   "></path>		<path d="M39.3,26.6c-0.6,0-1.1-0.5-1.2-1c-0.2-2.9-0.9-5.4-2-7.4c-1.2-2-2.8-3.5-5-4.6C28.2,12,25.2,12,24.7,12   c-0.3,0-0.6-0.1-0.8-0.3c-0.2-0.2-0.3-0.5-0.4-0.8c0-0.3,0.1-0.6,0.3-0.8c0.2-0.2,0.5-0.4,0.8-0.4l0.2,0c1.2,0,4.2,0.2,7.3,1.8   c3.5,1.7,7.8,5.5,8.2,13.9v0c0,0.3-0.1,0.6-0.3,0.8C39.8,26.5,39.6,26.6,39.3,26.6L39.3,26.6z M24.7,11.4c0.9,0,3.8,0.1,6.7,1.6   c2.2,1.1,4,2.8,5.2,4.9c1.2,2.1,1.9,4.7,2.1,7.7c0,0.3,0.2,0.5,0.5,0.5c0.2,0,0.3-0.1,0.4-0.2c0.1-0.1,0.1-0.2,0.1-0.4v0   c-0.5-8.1-4.6-11.7-7.9-13.4c-3.1-1.6-6.2-1.7-7.1-1.7h-0.2c-0.1,0-0.2,0.1-0.3,0.2c-0.1,0.1-0.1,0.2-0.1,0.3   c0,0.1,0.1,0.3,0.2,0.4C24.4,11.3,24.5,11.4,24.7,11.4C24.6,11.4,24.7,11.4,24.7,11.4z"></path>	</g>	<g>		<rect x="33.5" y="25.7" transform="matrix(0.9969 -7.819124e-02 7.819124e-02 0.9969 -1.9323 2.7084)" width="0.3" height="0.6"></rect>	</g>	<g>		<path d="M35.1,25.9L35.1,25.9c0,0.4-0.3,0.8-0.8,0.9h0c-0.4,0-0.8-0.3-0.8-0.8c-0.3-4.8-2.5-7.2-4.7-8.3c-2.2-1.2-4.4-1.1-4.6-1.1   h0c-0.4,0-0.8-0.3-0.8-0.8c0,0,0,0,0,0c0-0.4,0.3-0.8,0.8-0.8c0.1,0,2.6-0.1,5.3,1.3C32,17.6,34.8,20.4,35.1,25.9z"></path>		<path d="M34.3,27.1c-0.7,0-1.1-0.5-1.2-1c-0.2-3.9-1.8-6.6-4.6-8.1c-2.2-1.1-4.4-1.1-4.4-1.1c0,0,0,0,0,0c-0.7,0-1.2-0.5-1.2-1.1   c0-0.6,0.5-1.1,1.1-1.2c0.5,0,2.9,0,5.4,1.3c2.5,1.3,5.5,4,5.9,9.9v0c0,0.3-0.1,0.6-0.3,0.8C34.9,27,34.6,27.1,34.3,27.1   C34.3,27.1,34.3,27.1,34.3,27.1z M24.3,16.3c0.6,0,2.6,0.1,4.6,1.1c3,1.6,4.7,4.4,4.9,8.6c0,0.3,0.2,0.5,0.5,0.5   c0.2,0,0.3-0.1,0.4-0.2c0.1-0.1,0.1-0.2,0.1-0.4v0c-0.3-4.5-2.1-7.7-5.5-9.4c-2.4-1.2-4.7-1.2-5.1-1.2c-0.3,0-0.5,0.2-0.5,0.5   c0,0.3,0.3,0.5,0.5,0.5C24.1,16.3,24.2,16.3,24.3,16.3z"></path>	</g></g></svg>