<svg xmlns="http://www.w3.org/2000/svg" width="12" height="14" viewBox="0 0 12 14" fill="none"><path d="M5.565 0C2.5 0 0 2.185 0 4.87C0 6.146 0.908 8.06 2.7 10.559C4.02 12.4 5.36 13.9 5.373 13.918C5.39748 13.9443 5.42723 13.9653 5.4603 13.9794C5.49337 13.9935 5.52904 14.0005 5.565 14C5.60096 14.0005 5.63663 13.9935 5.6697 13.9794C5.70277 13.9653 5.73252 13.9443 5.757 13.918C5.77 13.903 7.11 12.388 8.432 10.536C10.222 8.027 11.132 6.121 11.132 4.87C11.13 2.185 8.634 0 5.565 0ZM5.565 7.218C4.89863 7.25871 4.24308 7.035 3.7406 6.59543C3.23812 6.15585 2.92925 5.53587 2.881 4.87C2.929 4.20395 3.23777 3.58371 3.74027 3.14393C4.24278 2.70414 4.89847 2.4803 5.565 2.521C6.23153 2.4803 6.88722 2.70414 7.38973 3.14393C7.89224 3.58371 8.201 4.20395 8.249 4.87C8.20075 5.53587 7.89188 6.15585 7.3894 6.59543C6.88692 7.035 6.23137 7.25871 5.565 7.218Z" fill="currentcolor"></path></svg>