<svg xmlns="http://www.w3.org/2000/svg" width="21" height="14" viewBox="0 0 21 14" fill="none"><path d="M9.085 6.254C9.08553 5.75953 9.28219 5.28547 9.63183 4.93583C9.98147 4.58619 10.4555 4.38953 10.95 4.389H14.25V1.194C14.2484 0.877818 14.1221 0.575034 13.8985 0.351457C13.675 0.127879 13.3722 0.001577 13.056 0L1.195 0C0.878644 0.00131422 0.575605 0.127501 0.351812 0.351106C0.128019 0.574712 0.00157906 0.877645 0 1.194L0 8.139C0.00131614 8.45553 0.12764 8.75872 0.351461 8.98254C0.575283 9.20636 0.878472 9.33268 1.195 9.334H2.631V11.572C2.63101 11.6976 2.66825 11.8204 2.73802 11.9248C2.8078 12.0292 2.90697 12.1106 3.023 12.1586C3.13903 12.2067 3.2667 12.2193 3.38988 12.1948C3.51305 12.1703 3.62619 12.1098 3.715 12.021L6.4 9.334H9.085V6.254Z" fill="currentcolor"></path><path d="M18.292 13.364V12.031H19.076C19.3462 12.0307 19.6052 11.9233 19.7962 11.7322C19.9873 11.5412 20.0947 11.2822 20.095 11.012V6.254C20.0947 5.98382 19.9873 5.72479 19.7962 5.53374C19.6052 5.3427 19.3462 5.23527 19.076 5.235H10.951C10.6808 5.23527 10.4218 5.3427 10.2308 5.53374C10.0397 5.72479 9.93227 5.98382 9.93201 6.254V11.012C9.93227 11.2822 10.0397 11.5412 10.2308 11.7322C10.4218 11.9233 10.6808 12.0307 10.951 12.031H15.426L17.208 13.813C17.2968 13.9018 17.41 13.9623 17.5331 13.9868C17.6563 14.0113 17.784 13.9987 17.9 13.9506C18.016 13.9026 18.1152 13.8212 18.185 13.7168C18.2548 13.6124 18.292 13.4896 18.292 13.364Z" fill="currentcolor"></path></svg>