<svg width="76" height="76" viewBox="0 0 76 76" fill="none" xmlns="http://www.w3.org/2000/svg">
<path d="M68.3996 40.4321C68.3996 48.8681 64.9796 56.4681 59.5076 62.0161C54.0356 67.4881 46.4356 70.9081 37.9996 70.9081C29.6396 70.9081 22.0396 67.4881 16.4916 61.9401C13.7556 59.2041 11.5516 55.7841 9.95561 52.1361C8.43561 48.4121 7.59961 44.4601 7.59961 40.3561C7.59961 32.2241 10.7916 24.8521 15.8836 19.3801C18.3916 16.7201 21.3556 14.5161 24.6996 12.9201C27.9676 11.3241 31.6156 10.2601 35.4916 9.95605V14.1361C33.4396 14.3641 31.4636 14.7441 29.5636 15.4281C27.3596 16.1881 25.3836 17.1761 23.4836 18.3921L22.9516 18.7721H22.8756C19.4556 21.2041 16.6436 24.4721 14.6676 28.1961C12.7676 31.8441 11.7036 35.9481 11.7036 40.3561C11.7036 47.6521 14.6676 54.2641 19.3796 58.9761C24.1676 63.8401 30.7796 66.8041 37.9996 66.8041C45.2196 66.8041 51.8316 63.8401 56.5436 59.0521C61.3316 54.2641 64.2196 47.7281 64.2196 40.4321C64.2196 39.9001 64.4476 39.3681 64.8276 38.9881C65.2076 38.6081 65.7396 38.3801 66.2716 38.3801C66.8036 38.3801 67.3356 38.6081 67.7156 38.9881C68.1716 39.3681 68.3996 39.9001 68.3996 40.4321Z" fill="white"/>
<path d="M34.2754 11.324V5.16804C34.2754 5.16804 34.2754 5.09204 34.3514 5.09204C34.4274 5.09204 34.4274 5.09204 34.5034 5.09204L44.0794 11.172L44.1554 11.248C44.1554 11.248 44.2314 11.324 44.2314 11.4C44.2314 11.476 44.2314 11.476 44.1554 11.552H44.0794L34.5034 17.632C34.4274 17.632 34.4274 17.632 34.3514 17.632C34.2754 17.632 34.2754 17.556 34.2754 17.556V11.324Z" fill="white"/>
<path d="M26.2197 29.4121C26.8277 28.8041 27.8157 28.8041 28.4237 29.4121L38.7597 39.7481C39.3677 40.3561 39.3677 41.3441 38.7597 42.0281C38.1517 42.6361 37.1637 42.6361 36.4797 42.0281L26.2197 31.6161C25.6117 31.0081 25.6117 30.0201 26.2197 29.4121Z" fill="white"/>
<path d="M59.8876 18.468C60.4956 19.076 60.4956 20.064 59.8876 20.748L38.7596 41.952C38.1516 42.56 37.1636 42.56 36.5556 41.952C35.9476 41.344 35.9476 40.28 36.5556 39.672L57.6836 18.468C58.2916 17.86 59.2796 17.86 59.8876 18.468Z" fill="white"/>
<path d="M38.7593 18.012V22.42C38.7593 22.876 38.3793 23.18 37.9993 23.18C37.5433 23.18 37.2393 22.8 37.2393 22.42V18.012C37.2393 17.556 37.6193 17.252 37.9993 17.252C38.4553 17.252 38.7593 17.632 38.7593 18.012Z" fill="white"/>
<path d="M15.6555 39.6719H20.0635C20.5195 39.6719 20.8235 40.0519 20.8235 40.4319C20.8235 40.8879 20.4435 41.1919 20.0635 41.1919H15.6555C15.1995 41.1919 14.8955 40.8119 14.8955 40.4319C14.8955 40.0519 15.1995 39.6719 15.6555 39.6719Z" fill="white"/>
<path d="M37.2393 62.8518V58.4438C37.2393 57.9878 37.6193 57.6838 37.9993 57.6838C38.4553 57.6838 38.7593 58.0638 38.7593 58.4438V62.8518C38.7593 63.3078 38.3793 63.6118 37.9993 63.6118C37.5433 63.6118 37.2393 63.3078 37.2393 62.8518Z" fill="white"/>
<path d="M60.3438 41.1919H55.9358C55.4798 41.1919 55.1758 40.8119 55.1758 40.4319C55.1758 39.9759 55.5558 39.6719 55.9358 39.6719H60.3438C60.7998 39.6719 61.1038 40.0519 61.1038 40.4319C61.1038 40.8879 60.7998 41.1919 60.3438 41.1919Z" fill="white"/>
<path d="M27.5113 20.6719L28.6513 22.7239C28.8793 23.1039 28.7273 23.5599 28.3473 23.7879C27.9673 24.0159 27.5113 23.8639 27.2833 23.4839L26.1433 21.4319C25.9153 21.0519 26.0673 20.5959 26.4473 20.3679C26.8273 20.1399 27.2833 20.2919 27.5113 20.6719Z" fill="white"/>
<path d="M18.9997 28.5759L21.0517 29.7159C21.4317 29.9439 21.5077 30.3999 21.3557 30.7799C21.1277 31.1599 20.6717 31.2359 20.2917 31.0839L18.2397 29.9439C17.8597 29.7159 17.7837 29.2599 17.9357 28.8799C18.1637 28.4999 18.6957 28.3479 18.9997 28.5759Z" fill="white"/>
<path d="M18.2397 50.9959L20.2917 49.8559C20.6717 49.6279 21.1277 49.7799 21.3557 50.1599C21.5837 50.5399 21.4317 50.9959 21.0517 51.2239L18.9997 52.3639C18.6197 52.5919 18.1637 52.4399 17.9357 52.0599C17.7837 51.6799 17.8597 51.2239 18.2397 50.9959Z" fill="white"/>
<path d="M26.1433 59.508L27.2833 57.456C27.5113 57.076 27.9673 57 28.3473 57.152C28.7273 57.38 28.8033 57.836 28.6513 58.216L27.5113 60.268C27.2833 60.648 26.8273 60.724 26.4473 60.572C26.0673 60.344 25.9153 59.888 26.1433 59.508Z" fill="white"/>
<path d="M56.9997 52.3639L54.9477 51.1479C54.5677 50.9199 54.4917 50.4639 54.6437 50.0839C54.8717 49.7039 55.3277 49.6279 55.7077 49.7799L57.7597 50.9199C58.1397 51.1479 58.2157 51.6039 58.0637 51.9839C57.8357 52.4399 57.3037 52.5159 56.9997 52.3639Z" fill="white"/>
<path d="M57.7593 29.9439L55.7073 31.0839C55.3273 31.3119 54.8713 31.1599 54.6433 30.7799C54.4153 30.3999 54.5673 29.9439 54.9473 29.7159L56.9993 28.5759C57.3793 28.3479 57.8353 28.4999 58.0633 28.8799C58.2153 29.2599 58.1393 29.7159 57.7593 29.9439Z" fill="white"/>
<path d="M49.8556 21.4318L48.6396 23.4838C48.4116 23.8638 47.9556 23.9398 47.5756 23.7878C47.1956 23.5598 47.1196 23.1038 47.2716 22.7238L48.4116 20.6718C48.6396 20.2918 49.0956 20.2158 49.4756 20.3678C49.9316 20.5958 50.0836 21.0518 49.8556 21.4318Z" fill="white"/>
<path d="M48.4874 60.2681L47.3474 58.216C47.1194 57.836 47.2714 57.38 47.6514 57.152C48.0314 56.924 48.4874 57.076 48.7154 57.456L49.8554 59.5081C50.0834 59.8881 49.9314 60.344 49.5514 60.572C49.1714 60.8 48.7154 60.6481 48.4874 60.2681Z" fill="white"/>
</svg>
