<svg xmlns="http://www.w3.org/2000/svg" xmlns:xlink="http://www.w3.org/1999/xlink" x="0px" y="0px" viewBox="0 0 210 60" style="enable-background:new 0 0 210 60;" xml:space="preserve"><g>	<path d="M53,50.3c4.1-4,7-8.7,8.1-14.6c-5.4,0.9-9.1,1.2-18.6,5.3C46.4,43.6,49.6,46.6,53,50.3z"></path>	<path d="M5.4,35.5c2.5,13.2,13.8,22.8,27.8,22.8c4.8,0,9.2-1.1,13.2-3.2C28.9,38.1,13.3,36.6,5.4,35.5z"></path>	<path d="M33.2,12.9c10.7,0,18.5,8.9,18.5,16.4c4.4-1.2,7.6-1.4,9.8-1.7C60.2,13.1,48,1.7,33.2,1.7C18.4,1.7,6.4,12.9,5,27.3  c1.7,0.2,5.7,0.4,10,1.4C15,21.4,23.4,12.9,33.2,12.9L33.2,12.9z"></path>	<path d="M44.8,31.3C44.6,25,39.6,20,33.2,20c-5.9,0-10.9,4.7-11.4,10.6c0,0,6.7,2.1,12.6,5.4C34.5,35.9,40.4,32.6,44.8,31.3  L44.8,31.3z"></path>	<path d="M76.9,17.7h18.9V23H84.6v4.3h9.6v5h-9.6v10.1h-7.7V17.7z"></path>	<path d="M115.1,38.3h-8.7l-1.2,4.1h-7.8l9.3-24.7h8.3l9.3,24.7h-8L115.1,38.3L115.1,38.3z M113.6,32.9l-2.7-8.9l-2.7,8.9H113.6  L113.6,32.9z"></path>	<path d="M126.9,42.3V17.7h12.7c2.4,0,4.2,0.2,5.4,0.6c1.3,0.4,2.3,1.2,3,2.2c0.8,1.1,1.2,2.4,1.2,4c0,1.4-0.3,2.6-0.9,3.5  c-0.6,1-1.4,1.8-2.4,2.4c-0.7,0.4-1.5,0.7-2.7,1c0.9,0.3,1.6,0.6,2,0.9c0.3,0.2,0.7,0.6,1.2,1.3c0.5,0.7,0.9,1.2,1.1,1.5l3.7,7.2  h-8.6l-4.1-7.5c-0.5-1-1-1.6-1.4-1.9c-0.6-0.4-1.2-0.6-1.9-0.6h-0.7v10L126.9,42.3L126.9,42.3z M134.6,27.7h3.2c0.3,0,1-0.1,2-0.3  c0.5-0.1,0.9-0.4,1.2-0.8c0.3-0.4,0.5-0.9,0.5-1.4c0-0.8-0.3-1.4-0.8-1.8c-0.5-0.4-1.5-0.6-2.8-0.6h-3.4L134.6,27.7L134.6,27.7z"></path>	<path d="M151.2,17.7h8.5l5,8.3l5-8.3h8.4L168.5,32v10.3h-7.7V32L151.2,17.7z"></path>	<path d="M195.8,38.3h-8.7l-1.2,4.1h-7.8l9.3-24.7h8.3l9.3,24.7h-8L195.8,38.3L195.8,38.3z M194.2,32.9l-2.7-8.9l-2.7,8.9H194.2  L194.2,32.9z"></path></g></svg>