<svg xmlns="http://www.w3.org/2000/svg" width="184" height="183" viewBox="0 0 184 183" fill="none"><ellipse cx="91.8232" cy="91.138" rx="91.8232" ry="91.138" fill="#040404"></ellipse><path d="M91.8231 143.902C121.342 143.902 145.272 119.972 145.272 90.4528C145.272 60.9335 121.342 37.0034 91.8231 37.0034C62.3039 37.0034 38.3738 60.9335 38.3738 90.4528C38.3738 119.972 62.3039 143.902 91.8231 143.902Z" fill="currentcolor"></path><path d="M101.047 14.1063C100.82 13.5692 100.48 13.1514 100.025 12.8493C99.5701 12.549 99.031 12.3736 98.4062 12.3233C97.7217 12.2692 97.1006 12.3736 96.5392 12.6385C95.9797 12.9033 95.5265 13.3062 95.1777 13.8471C94.8308 14.388 94.6275 15.0315 94.5678 15.7738C94.5081 16.5161 94.6069 17.1857 94.8643 17.7807C95.1217 18.3756 95.5059 18.8475 96.017 19.1963C96.528 19.5469 97.1249 19.7484 97.8094 19.8025C98.7308 19.8752 99.5011 19.6775 100.117 19.2075C100.732 18.7375 101.141 18.066 101.34 17.195L97.4587 16.8854L97.5669 15.5313L103.263 15.9845L103.159 17.3088C102.985 18.1033 102.642 18.8195 102.127 19.4574C101.612 20.0953 100.969 20.5858 100.199 20.9271C99.4283 21.2703 98.5909 21.4046 97.6881 21.3337C96.7164 21.2554 95.8473 20.9607 95.0788 20.4459C94.3123 19.9312 93.7247 19.2522 93.3181 18.4129C92.9115 17.5718 92.7474 16.6467 92.8276 15.6339C92.9078 14.623 93.2156 13.7333 93.7509 12.9686C94.2861 12.2021 94.9744 11.6276 95.8193 11.2396C96.6623 10.8536 97.5669 10.6969 98.5274 10.7734C99.6279 10.861 100.587 11.2098 101.4 11.8178C102.215 12.4259 102.776 13.2428 103.084 14.2649L101.045 14.1026L101.047 14.1063Z" fill="white"></path><path d="M112.162 20.241L106.037 18.8496C105.94 19.5005 106.061 20.0694 106.399 20.5543C106.738 21.0392 107.217 21.3526 107.839 21.4925C108.73 21.6958 109.446 21.4645 109.985 20.8024L111.776 21.209C111.365 21.8916 110.789 22.3952 110.047 22.7216C109.305 23.048 108.463 23.1039 107.521 22.8894C106.755 22.716 106.108 22.3877 105.58 21.9047C105.052 21.4234 104.686 20.8303 104.485 20.1253C104.284 19.4222 104.276 18.6575 104.463 17.8331C104.649 17.0087 104.981 16.3204 105.459 15.7721C105.936 15.2219 106.516 14.847 107.199 14.6456C107.881 14.4441 108.616 14.4311 109.402 14.6101C110.159 14.7817 110.795 15.1007 111.311 15.5651C111.828 16.0295 112.184 16.5965 112.378 17.2679C112.572 17.9394 112.582 18.6631 112.406 19.4389C112.337 19.7392 112.257 20.0078 112.164 20.241H112.162ZM110.793 18.5232C110.922 17.9095 110.815 17.3705 110.472 16.9042C110.129 16.438 109.642 16.1339 109.012 15.9903C108.439 15.8598 107.908 15.9306 107.419 16.2029C106.928 16.4734 106.574 16.9117 106.356 17.5141L110.793 18.5213V18.5232Z" fill="white"></path><path d="M116.847 18.3103L115.388 22.6207C115.289 22.9135 115.288 23.1448 115.381 23.3182C115.474 23.4917 115.687 23.6334 116.015 23.7453L117.003 24.0792L116.548 25.4221L115.276 24.9912C114.551 24.745 114.053 24.3888 113.781 23.9188C113.508 23.4488 113.503 22.8314 113.76 22.0686L115.219 17.7583L114.299 17.4468L114.743 16.1319L115.662 16.4433L116.317 14.5073L117.942 15.0576L117.287 16.9936L119.18 17.6352L118.736 18.9501L116.843 18.3085L116.847 18.3103Z" fill="white"></path><path d="M127.292 18.825L122.814 28.1787L121.279 27.4438L125.757 18.0902L127.292 18.825Z" fill="white"></path><path d="M133.783 25.2242C134.083 25.7185 134.221 26.2649 134.197 26.8655C134.172 27.4661 133.967 28.0853 133.583 28.725L131.086 32.8824L129.64 32.0133L132.007 28.0741C132.386 27.4437 132.52 26.8655 132.406 26.3377C132.292 25.8117 131.964 25.3846 131.418 25.0563C130.871 24.7281 130.338 24.6367 129.816 24.7822C129.293 24.9276 128.842 25.3137 128.463 25.946L126.096 29.8852L124.638 29.0085L128.874 21.9621L130.332 22.8387L129.847 23.6444C130.259 23.499 130.701 23.4561 131.17 23.5157C131.638 23.5773 132.082 23.7321 132.499 23.9839C133.053 24.3177 133.481 24.7299 133.783 25.2242Z" fill="white"></path><path d="M147.446 32.8548L146.533 33.8974L144.457 32.0771L138.535 38.8307L137.255 37.7098L143.177 30.9561L141.09 29.1264L142.004 28.0838L147.445 32.8548H147.446Z" fill="white"></path><path d="M142.88 42.4734C142.727 41.7702 142.772 41.0727 143.013 40.3788C143.253 39.685 143.69 39.0564 144.322 38.495C144.947 37.9392 145.622 37.5849 146.349 37.4282C147.077 37.2734 147.782 37.3181 148.466 37.5606C149.149 37.8049 149.753 38.2209 150.276 38.8065C150.798 39.394 151.141 40.0412 151.305 40.7481C151.467 41.455 151.43 42.1619 151.193 42.865C150.955 43.5701 150.524 44.2005 149.901 44.7563C149.276 45.3121 148.597 45.6627 147.864 45.8119C147.129 45.9593 146.415 45.9071 145.717 45.6553C145.02 45.4035 144.41 44.9838 143.888 44.3963C143.371 43.8163 143.037 43.1765 142.884 42.4734H142.88ZM146.04 44.1259C146.45 44.2732 146.89 44.2975 147.362 44.1967C147.832 44.0979 148.291 43.8498 148.737 43.4526C149.183 43.0553 149.483 42.6338 149.64 42.1899C149.796 41.7441 149.826 41.3114 149.731 40.8899C149.636 40.4683 149.442 40.0953 149.151 39.7671C148.86 39.4407 148.513 39.2075 148.108 39.0676C147.704 38.9278 147.275 38.9128 146.821 39.0247C146.368 39.1366 145.917 39.3903 145.471 39.7857C144.809 40.3751 144.449 40.998 144.391 41.6564C144.331 42.3148 144.531 42.9005 144.986 43.4134C145.277 43.7398 145.628 43.9767 146.038 44.124L146.04 44.1259Z" fill="white"></path><path d="M158.614 50.1468L151.804 54.7555L150.851 53.3473L151.655 52.8046C151.224 52.771 150.808 52.6311 150.403 52.3812C150 52.1313 149.661 51.8049 149.389 51.402C149.027 50.8667 148.812 50.3109 148.749 49.7364C148.684 49.162 148.788 48.6043 149.06 48.0671C149.333 47.5281 149.778 47.0506 150.396 46.6328L154.4 43.9228L155.346 45.3198L151.552 47.8881C150.942 48.3003 150.579 48.7684 150.459 49.2944C150.34 49.8185 150.459 50.3463 150.815 50.8723C151.172 51.4001 151.617 51.7079 152.153 51.7955C152.688 51.8851 153.259 51.7228 153.869 51.3106L157.662 48.7442L158.615 50.1524L158.614 50.1468Z" fill="white"></path><path d="M158.403 53.5207C159.13 53.5394 159.785 53.7408 160.368 54.1269C160.952 54.513 161.42 55.0576 161.773 55.7589C162.219 56.6467 162.377 57.4897 162.249 58.2843C162.118 59.0788 161.715 59.7745 161.034 60.3713L160.21 58.7319C160.507 58.4148 160.684 58.0586 160.742 57.6632C160.799 57.2678 160.715 56.8462 160.492 56.4023C160.178 55.7794 159.71 55.3952 159.085 55.2478C158.46 55.1005 157.752 55.2254 156.961 55.6227C156.17 56.02 155.644 56.5161 155.387 57.1074C155.127 57.6986 155.155 58.3066 155.467 58.9296C155.909 59.8099 156.588 60.1979 157.506 60.0934L158.33 61.7329C157.476 61.8951 156.681 61.7926 155.946 61.427C155.211 61.0614 154.626 60.4441 154.187 59.5731C153.835 58.8699 153.68 58.1686 153.723 57.4692C153.766 56.7679 153.997 56.1207 154.417 55.5257C154.837 54.9307 155.424 54.4439 156.179 54.0635C156.935 53.683 157.677 53.5039 158.405 53.5207H158.403Z" fill="white"></path><path d="M166.005 67.1549C165.913 67.7088 165.665 68.205 165.261 68.647C164.856 69.089 164.302 69.4322 163.597 69.6784L159.018 71.2768L158.462 69.684L162.801 68.1695C163.496 67.9271 163.968 67.5671 164.218 67.0896C164.468 66.6121 164.488 66.0731 164.278 65.4725C164.067 64.872 163.716 64.4598 163.222 64.2378C162.728 64.0159 162.133 64.0252 161.439 64.2677L157.101 65.7822L156.539 64.1763L166.964 60.5374L167.525 62.1433L163.961 63.3873C164.384 63.544 164.759 63.8014 165.083 64.1576C165.408 64.5139 165.656 64.9391 165.831 65.4371C166.038 66.0284 166.096 66.6009 166.005 67.1549Z" fill="white"></path><path d="M161.105 80.3823C161.284 80.1473 161.527 80.0092 161.833 79.9682C162.138 79.9272 162.409 79.9943 162.644 80.1734C162.879 80.3524 163.017 80.5949 163.06 80.9008C163.101 81.1973 163.03 81.4622 162.853 81.6972C162.676 81.9322 162.431 82.0702 162.125 82.1131C161.82 82.1541 161.549 82.0851 161.314 81.9079C161.079 81.7308 160.941 81.492 160.902 81.1955C160.861 80.8896 160.93 80.6191 161.107 80.3841L161.105 80.3823Z" fill="white"></path><path d="M168.594 99.336C169.129 99.1066 169.547 98.7634 169.845 98.3083C170.144 97.8514 170.317 97.3105 170.364 96.6857C170.416 96.0012 170.308 95.3801 170.039 94.8205C169.772 94.261 169.368 93.8096 168.825 93.4646C168.282 93.1195 167.639 92.92 166.895 92.864C166.15 92.8081 165.483 92.9106 164.89 93.1699C164.296 93.4292 163.826 93.8152 163.478 94.3281C163.131 94.8411 162.931 95.4398 162.879 96.1243C162.81 97.0475 163.011 97.8141 163.483 98.4296C163.955 99.0432 164.628 99.4479 165.501 99.6438L165.792 95.7606L167.146 95.8613L166.719 101.559L165.395 101.46C164.6 101.291 163.882 100.949 163.243 100.438C162.603 99.9254 162.111 99.2857 161.764 98.5172C161.417 97.7488 161.279 96.9114 161.346 96.0086C161.419 95.0369 161.711 94.1659 162.222 93.3956C162.733 92.6253 163.409 92.0359 164.248 91.6256C165.087 91.2152 166.012 91.0474 167.023 91.1239C168.034 91.2003 168.926 91.5043 169.692 92.0359C170.461 92.5675 171.039 93.2538 171.431 94.0969C171.82 94.9399 171.981 95.8408 171.908 96.8032C171.826 97.9036 171.481 98.8641 170.877 99.6811C170.27 100.498 169.459 101.063 168.437 101.376L168.59 99.3379L168.594 99.336Z" fill="white"></path><path d="M162.51 110.473L163.873 104.34C163.222 104.247 162.654 104.37 162.17 104.712C161.687 105.053 161.376 105.534 161.238 106.155C161.04 107.049 161.273 107.763 161.939 108.298L161.54 110.091C160.856 109.684 160.35 109.11 160.02 108.369C159.69 107.629 159.63 106.787 159.839 105.846C160.009 105.079 160.335 104.43 160.814 103.9C161.294 103.371 161.885 103.001 162.588 102.796C163.291 102.591 164.056 102.58 164.88 102.762C165.705 102.945 166.395 103.275 166.947 103.749C167.499 104.223 167.878 104.801 168.083 105.484C168.288 106.166 168.303 106.901 168.128 107.686C167.96 108.444 167.645 109.082 167.182 109.6C166.72 110.119 166.154 110.477 165.483 110.674C164.811 110.872 164.088 110.883 163.312 110.712C163.012 110.645 162.743 110.564 162.51 110.473ZM164.222 109.096C164.836 109.223 165.375 109.113 165.839 108.768C166.304 108.423 166.606 107.934 166.746 107.304C166.872 106.731 166.8 106.2 166.527 105.711C166.253 105.223 165.815 104.87 165.211 104.654L164.222 109.096Z" fill="white"></path><path d="M164.461 115.151L160.143 113.711C159.85 113.614 159.617 113.612 159.445 113.705C159.272 113.798 159.13 114.011 159.02 114.343L158.69 115.333L157.345 114.886L157.77 113.612C158.013 112.885 158.367 112.385 158.837 112.112C159.305 111.838 159.923 111.829 160.688 112.084L165.005 113.524L165.311 112.605L166.628 113.043L166.322 113.963L168.262 114.61L167.719 116.238L165.779 115.591L165.147 117.488L163.83 117.049L164.463 115.153L164.461 115.151Z" fill="white"></path><path d="M163.994 125.594L154.62 121.159L155.348 119.622L164.722 124.057L163.994 125.594Z" fill="white"></path><path d="M157.625 132.118C157.132 132.42 156.586 132.562 155.985 132.54C155.385 132.517 154.764 132.316 154.122 131.935L149.955 129.457L150.817 128.007L154.767 130.358C155.4 130.734 155.98 130.865 156.506 130.749C157.032 130.634 157.457 130.302 157.783 129.755C158.11 129.209 158.197 128.673 158.052 128.153C157.905 127.631 157.515 127.183 156.882 126.806L152.932 124.456L153.801 122.994L160.866 127.198L159.997 128.66L159.19 128.179C159.337 128.591 159.382 129.031 159.324 129.5C159.264 129.968 159.111 130.412 158.861 130.831C158.531 131.387 158.119 131.816 157.627 132.12L157.625 132.118Z" fill="white"></path><path d="M150.056 145.814L149.007 144.904L150.818 142.82L144.037 136.93L145.152 135.647L151.934 141.537L153.754 139.443L154.802 140.353L150.056 145.816V145.814Z" fill="white"></path><path d="M140.413 141.293C141.114 141.136 141.814 141.177 142.51 141.416C143.205 141.655 143.836 142.088 144.401 142.716C144.959 143.337 145.318 144.012 145.475 144.738C145.634 145.465 145.593 146.17 145.352 146.855C145.111 147.539 144.699 148.144 144.114 148.67C143.53 149.196 142.884 149.541 142.178 149.707C141.471 149.873 140.766 149.839 140.059 149.604C139.354 149.369 138.722 148.94 138.162 148.319C137.604 147.698 137.248 147.019 137.099 146.286C136.948 145.553 136.996 144.837 137.246 144.139C137.494 143.442 137.912 142.83 138.496 142.304C139.072 141.785 139.712 141.448 140.415 141.291L140.413 141.293ZM138.776 144.46C138.63 144.87 138.608 145.312 138.71 145.782C138.811 146.252 139.063 146.709 139.46 147.153C139.859 147.597 140.281 147.896 140.728 148.05C141.174 148.205 141.609 148.233 142.028 148.136C142.45 148.039 142.823 147.843 143.147 147.552C143.474 147.26 143.705 146.911 143.843 146.506C143.981 146.101 143.994 145.672 143.88 145.219C143.767 144.766 143.511 144.316 143.112 143.873C142.521 143.214 141.896 142.856 141.236 142.8C140.577 142.744 139.992 142.946 139.481 143.404C139.154 143.697 138.919 144.05 138.774 144.46H138.776Z" fill="white"></path><path d="M132.817 157.059L128.178 150.272L129.582 149.311L130.129 150.111C130.161 149.681 130.299 149.263 130.547 148.858C130.795 148.453 131.119 148.114 131.522 147.84C132.056 147.474 132.61 147.258 133.184 147.191C133.758 147.123 134.316 147.224 134.855 147.495C135.394 147.765 135.875 148.207 136.297 148.823L139.024 152.814L137.632 153.765L135.047 149.983C134.631 149.375 134.161 149.013 133.635 148.895C133.109 148.778 132.583 148.899 132.059 149.259C131.533 149.619 131.227 150.065 131.142 150.6C131.056 151.135 131.22 151.706 131.636 152.314L134.221 156.097L132.817 157.057V157.059Z" fill="white"></path><path d="M129.434 156.867C129.419 157.594 129.22 158.251 128.838 158.836C128.455 159.422 127.912 159.892 127.211 160.248C126.325 160.7 125.484 160.862 124.69 160.735C123.895 160.608 123.197 160.207 122.597 159.53L124.233 158.698C124.55 158.995 124.908 159.17 125.303 159.224C125.699 159.28 126.12 159.194 126.562 158.969C127.183 158.653 127.566 158.182 127.711 157.557C127.856 156.93 127.728 156.223 127.327 155.434C126.926 154.645 126.428 154.121 125.835 153.866C125.242 153.608 124.634 153.638 124.014 153.955C123.136 154.401 122.752 155.082 122.86 155.998L121.224 156.829C121.058 155.977 121.157 155.182 121.519 154.446C121.881 153.709 122.496 153.12 123.365 152.679C124.067 152.323 124.766 152.165 125.467 152.206C126.169 152.245 126.818 152.474 127.414 152.89C128.011 153.306 128.502 153.892 128.884 154.645C129.267 155.399 129.451 156.139 129.436 156.867H129.434Z" fill="white"></path><path d="M115.838 164.529C115.284 164.439 114.786 164.195 114.342 163.792C113.898 163.389 113.553 162.837 113.303 162.134L111.684 157.563L113.273 156.999L114.808 161.332C115.055 162.026 115.416 162.496 115.894 162.744C116.371 162.992 116.91 163.009 117.511 162.796C118.112 162.584 118.522 162.229 118.742 161.735C118.962 161.241 118.949 160.646 118.705 159.952L117.17 155.619L118.774 155.052L122.459 165.46L120.855 166.027L119.594 162.468C119.44 162.893 119.184 163.268 118.83 163.594C118.475 163.921 118.05 164.171 117.552 164.348C116.961 164.557 116.388 164.617 115.836 164.529H115.838Z" fill="white"></path><path d="M102.589 159.689C102.826 159.866 102.964 160.108 103.007 160.414C103.05 160.72 102.983 160.991 102.806 161.226C102.629 161.461 102.386 161.601 102.08 161.643C101.786 161.684 101.519 161.617 101.284 161.44C101.049 161.263 100.909 161.02 100.866 160.715C100.823 160.409 100.89 160.138 101.067 159.903C101.245 159.668 101.482 159.528 101.778 159.487C102.084 159.444 102.354 159.512 102.589 159.689Z" fill="white"></path><path d="M83.6712 167.261C83.9025 167.797 84.2475 168.213 84.7045 168.509C85.1615 168.806 85.7042 168.975 86.329 169.02C87.0135 169.069 87.6346 168.959 88.1923 168.688C88.75 168.418 89.1995 168.011 89.5426 167.467C89.8858 166.922 90.0835 166.278 90.1358 165.534C90.188 164.79 90.0835 164.122 89.8206 163.529C89.5576 162.938 89.1696 162.468 88.6567 162.123C88.1419 161.778 87.5432 161.58 86.8587 161.532C85.9355 161.466 85.1689 161.672 84.5572 162.147C83.9454 162.623 83.5444 163.298 83.3523 164.171L87.2373 164.445L87.1422 165.799L81.4424 165.396L81.5356 164.072C81.7016 163.276 82.0392 162.558 82.5484 161.914C83.0576 161.271 83.6955 160.776 84.4639 160.426C85.2323 160.075 86.066 159.933 86.9706 159.997C87.9424 160.066 88.8152 160.353 89.5874 160.862C90.3596 161.369 90.9527 162.043 91.3667 162.88C91.7808 163.718 91.9524 164.641 91.8815 165.654C91.8106 166.666 91.5104 167.558 90.9825 168.328C90.4547 169.099 89.7702 169.68 88.929 170.076C88.0878 170.469 87.187 170.634 86.2246 170.566C85.1223 170.488 84.1617 170.149 83.343 169.548C82.5223 168.947 81.9534 168.136 81.6364 167.116L83.6749 167.26L83.6712 167.261Z" fill="white"></path><path d="M72.5088 161.23L78.6469 162.565C78.7383 161.912 78.6115 161.345 78.2683 160.864C77.9251 160.383 77.442 160.073 76.8209 159.939C75.9275 159.745 75.2132 159.982 74.6816 160.65L72.8892 160.26C73.2921 159.574 73.8647 159.064 74.6033 158.732C75.3419 158.399 76.1831 158.335 77.1268 158.54C77.8953 158.708 78.5443 159.029 79.0778 159.506C79.6093 159.984 79.9805 160.573 80.1894 161.275C80.3983 161.976 80.4132 162.741 80.2323 163.567C80.0532 164.393 79.7268 165.083 79.2549 165.637C78.7831 166.191 78.2067 166.572 77.526 166.78C76.8452 166.989 76.1103 167.006 75.3232 166.836C74.566 166.672 73.9263 166.359 73.404 165.9C72.8836 165.441 72.5218 164.876 72.3222 164.207C72.1227 163.537 72.1059 162.813 72.2756 162.036C72.3409 161.733 72.4192 161.467 72.5125 161.232L72.5088 161.23ZM73.8945 162.936C73.7715 163.55 73.8834 164.089 74.2303 164.552C74.5772 165.014 75.0677 165.314 75.6981 165.451C76.2726 165.576 76.8023 165.499 77.2891 165.225C77.7759 164.949 78.1265 164.509 78.3392 163.904L73.8927 162.936H73.8945Z" fill="white"></path><path d="M67.8342 163.201L69.2535 158.877C69.3505 158.585 69.3505 158.351 69.2535 158.18C69.1584 158.008 68.9458 157.867 68.6138 157.758L67.6215 157.432L68.0636 156.085L69.3393 156.505C70.0667 156.744 70.5685 157.096 70.8445 157.564C71.1205 158.033 71.1317 158.648 70.8818 159.415L69.4624 163.738L70.3838 164.04L69.9511 165.359L69.0297 165.057L68.3918 166.998L66.7617 166.463L67.3996 164.521L65.499 163.898L65.9317 162.58L67.8323 163.203L67.8342 163.201Z" fill="white"></path><path d="M57.3865 162.781L61.7807 153.389L63.3213 154.108L58.9271 163.501L57.3865 162.781Z" fill="white"></path><path d="M50.8395 156.442C50.5337 155.951 50.3919 155.405 50.4106 154.804C50.4292 154.203 50.6288 153.582 51.0074 152.939L53.4675 148.759L54.9204 149.615L52.589 153.575C52.216 154.209 52.0873 154.789 52.2048 155.315C52.3223 155.841 52.6562 156.264 53.2045 156.587C53.7529 156.91 54.2882 156.997 54.8085 156.848C55.3289 156.699 55.7765 156.307 56.1496 155.673L58.481 151.713L59.947 152.577L55.7747 159.661L54.3087 158.797L54.7862 157.988C54.374 158.137 53.9338 158.185 53.4656 158.128C52.9975 158.072 52.5517 157.919 52.1321 157.673C51.5744 157.344 51.1436 156.934 50.8377 156.443L50.8395 156.442Z" fill="white"></path><path d="M37.1101 148.936L38.0147 147.884L40.1074 149.686L45.9676 142.878L47.2564 143.988L41.3962 150.796L43.5 152.607L42.5955 153.659L37.1101 148.938V148.936Z" fill="white"></path><path d="M41.5904 139.277C41.7489 139.978 41.7116 140.677 41.4766 141.373C41.2416 142.069 40.8107 142.701 40.1841 143.27C39.5648 143.831 38.8934 144.193 38.166 144.354C37.4404 144.516 36.7336 144.477 36.0491 144.24C35.3646 144.003 34.7565 143.593 34.2287 143.011C33.7009 142.429 33.3521 141.785 33.1823 141.078C33.0126 140.373 33.0443 139.667 33.2756 138.96C33.5069 138.253 33.9321 137.619 34.5514 137.057C35.1706 136.496 35.8458 136.138 36.5788 135.985C37.3118 135.83 38.028 135.877 38.7274 136.121C39.4268 136.367 40.0404 136.781 40.5683 137.363C41.0886 137.938 41.43 138.575 41.5885 139.277H41.5904ZM38.4159 137.652C38.0037 137.509 37.5635 137.488 37.0935 137.592C36.6235 137.697 36.1684 137.949 35.7264 138.35C35.2844 138.751 34.9878 139.174 34.8349 139.622C34.6838 140.069 34.6558 140.502 34.7547 140.922C34.8535 141.341 35.0512 141.714 35.344 142.039C35.6387 142.363 35.9875 142.593 36.3922 142.729C36.797 142.865 37.226 142.876 37.6792 142.761C38.1324 142.645 38.58 142.388 39.0221 141.987C39.6786 141.392 40.033 140.765 40.0852 140.107C40.1393 139.446 39.9341 138.863 39.4734 138.355C39.1787 138.031 38.8262 137.798 38.414 137.654L38.4159 137.652Z" fill="white"></path><path d="M25.7869 131.747L32.5536 127.079L33.5197 128.479L32.7214 129.03C33.1523 129.059 33.5701 129.196 33.9767 129.442C34.3814 129.688 34.7227 130.011 35.0006 130.412C35.368 130.943 35.5863 131.497 35.6571 132.072C35.728 132.646 35.6292 133.204 35.3606 133.745C35.0939 134.286 34.6518 134.769 34.0382 135.192L30.0599 137.938L29.1031 136.55L32.8725 133.948C33.4787 133.53 33.8386 133.058 33.9524 132.532C34.0662 132.006 33.9431 131.48 33.5812 130.956C33.2194 130.432 32.7718 130.128 32.2365 130.044C31.7012 129.96 31.1305 130.128 30.5243 130.546L26.7549 133.148L25.7887 131.747H25.7869Z" fill="white"></path><path d="M25.9642 128.366C25.2368 128.354 24.5803 128.157 23.9928 127.776C23.4053 127.396 22.9334 126.857 22.5734 126.157C22.1183 125.273 21.9523 124.432 22.0754 123.638C22.1985 122.843 22.5958 122.142 23.2691 121.539L24.1084 123.171C23.8137 123.49 23.6403 123.848 23.5862 124.246C23.5321 124.643 23.6198 125.062 23.8473 125.505C24.1663 126.124 24.6381 126.504 25.2648 126.646C25.8915 126.788 26.5984 126.657 27.3855 126.252C28.1726 125.848 28.6929 125.348 28.9466 124.753C29.2002 124.158 29.1685 123.552 28.8496 122.932C28.4001 122.056 27.7175 121.675 26.8017 121.787L25.9624 120.155C26.8147 119.986 27.6093 120.081 28.3479 120.439C29.0865 120.797 29.6777 121.411 30.1235 122.278C30.4835 122.977 30.6439 123.677 30.6066 124.378C30.5693 125.079 30.3454 125.728 29.9314 126.327C29.5173 126.926 28.9354 127.418 28.1819 127.804C27.4302 128.19 26.6898 128.379 25.9624 128.366H25.9642Z" fill="white"></path><path d="M18.2403 114.8C18.3261 114.246 18.5704 113.746 18.9696 113.301C19.3706 112.855 19.9208 112.506 20.6239 112.254L25.1879 110.615L25.7586 112.202L21.4334 113.756C20.7414 114.004 20.2714 114.369 20.0271 114.849C19.7828 115.328 19.766 115.867 19.9823 116.466C20.1968 117.064 20.5531 117.473 21.0492 117.691C21.5453 117.909 22.1403 117.894 22.8323 117.644L27.1575 116.091L27.732 117.691L17.3413 121.425L16.7668 119.825L20.3199 118.549C19.8947 118.396 19.5179 118.142 19.1915 117.79C18.8651 117.437 18.6115 117.012 18.4324 116.516C18.2198 115.927 18.1582 115.354 18.244 114.8H18.2403Z" fill="white"></path><path d="M23.0205 101.532C22.8433 101.769 22.6027 101.908 22.2968 101.953C21.9909 101.998 21.7205 101.931 21.4836 101.756C21.2467 101.578 21.1069 101.338 21.0621 101.032C21.0192 100.737 21.0863 100.47 21.2635 100.234C21.4407 99.9967 21.6813 99.8569 21.9872 99.8121C22.2931 99.7673 22.5635 99.8345 22.8004 100.01C23.0373 100.185 23.1772 100.422 23.2201 100.719C23.2648 101.024 23.1977 101.295 23.0224 101.532H23.0205Z" fill="white"></path><path d="M15.3605 82.6487C14.8271 82.8818 14.413 83.2287 14.1183 83.6875C13.8236 84.1464 13.6558 84.6891 13.6147 85.3139C13.57 85.9984 13.6837 86.6195 13.956 87.1753C14.2284 87.7311 14.6368 88.1806 15.1833 88.5201C15.7298 88.8595 16.3733 89.0554 17.1193 89.1039C17.8635 89.1524 18.5312 89.0461 19.1225 88.7793C19.7137 88.5145 20.18 88.1247 20.5232 87.608C20.8664 87.0933 21.0603 86.4927 21.1051 85.8063C21.1666 84.8831 20.9578 84.1165 20.4803 83.5066C20.0028 82.8967 19.3258 82.4976 18.451 82.3111L18.1936 86.1961L16.8395 86.1066L17.2163 80.4049L18.5405 80.4926C19.337 80.6548 20.0588 80.9887 20.7022 81.496C21.3476 82.0015 21.8456 82.6375 22.1981 83.404C22.5506 84.1706 22.6979 85.0043 22.6382 85.907C22.5748 86.8806 22.2895 87.7535 21.784 88.5276C21.2786 89.3016 20.609 89.8984 19.7734 90.3162C18.9378 90.734 18.0146 90.9112 17.0018 90.844C15.989 90.7769 15.0975 90.4822 14.3235 89.9562C13.5513 89.4321 12.9657 88.7495 12.5665 87.9121C12.1693 87.0728 12.0014 86.1719 12.0648 85.2095C12.1375 84.1072 12.4733 83.1448 13.0701 82.3223C13.6688 81.4997 14.4764 80.9271 15.4948 80.6063L15.3605 82.6468V82.6487Z" fill="white"></path><path d="M21.3455 71.4563L20.038 77.6C20.6908 77.6877 21.2578 77.559 21.7372 77.214C22.2184 76.8689 22.5243 76.384 22.6567 75.761C22.8469 74.8658 22.6063 74.1533 21.9367 73.6254L22.3191 71.8312C23.0073 72.2322 23.5184 72.8011 23.8541 73.5378C24.1898 74.2764 24.2588 75.1157 24.0574 76.0594C23.8933 76.8279 23.5743 77.4807 23.1006 78.0141C22.6268 78.5494 22.0375 78.9224 21.3362 79.1332C20.6349 79.3458 19.872 79.3626 19.0439 79.1873C18.2177 79.0119 17.5257 78.6893 16.9699 78.2193C16.4141 77.7493 16.0299 77.1748 15.8191 76.494C15.6083 75.8132 15.586 75.0784 15.7538 74.2913C15.9161 73.5322 16.2238 72.8925 16.6808 72.3684C17.1378 71.8461 17.701 71.4824 18.3687 71.2791C19.0383 71.0758 19.762 71.0572 20.5398 71.2232C20.8419 71.2866 21.1105 71.3649 21.3455 71.4563ZM19.6464 72.8496C19.0309 72.7283 18.4937 72.844 18.033 73.1927C17.5723 73.5415 17.2739 74.0339 17.1396 74.6662C17.0184 75.2407 17.0949 75.7704 17.3728 76.2572C17.6507 76.7439 18.0927 77.0927 18.6989 77.3016L19.6464 72.8496Z" fill="white"></path><path d="M19.3501 66.7932L23.6809 68.1921C23.9737 68.2872 24.2069 68.2872 24.3785 68.1921C24.5501 68.097 24.6899 67.8825 24.7981 67.5505L25.1189 66.5564L26.4674 66.9928L26.0552 68.2704C25.8202 68.9997 25.4696 69.5033 25.0033 69.7812C24.537 70.0591 23.9215 70.074 23.1531 69.8259L18.8222 68.4271L18.5238 69.3503L17.2033 68.9232L17.5017 68L15.5564 67.3714L16.0842 65.7394L18.0296 66.368L18.6451 64.4655L19.9656 64.8927L19.3501 66.7951V66.7932Z" fill="white"></path><path d="M19.7229 56.3463L29.1362 60.6976L28.4219 62.242L19.0085 57.8906L19.7229 56.3463Z" fill="white"></path><path d="M26.0324 49.7683C26.523 49.4605 27.0676 49.315 27.6682 49.3318C28.2687 49.3486 28.8917 49.5445 29.537 49.9193L33.7261 52.3608L32.8775 53.8175L28.9066 51.5028C28.2706 51.1317 27.6905 51.0067 27.1646 51.1279C26.6405 51.2473 26.2171 51.583 25.8963 52.1333C25.5755 52.6835 25.4916 53.2188 25.6426 53.7391C25.7937 54.2595 26.1891 54.7053 26.8233 55.0746L30.7941 57.3892L29.938 58.8589L22.8337 54.7202L23.6898 53.2505L24.5012 53.7242C24.3501 53.3139 24.2997 52.8737 24.3557 52.4037C24.4098 51.9355 24.5609 51.4898 24.8052 51.0683C25.1316 50.5087 25.5382 50.076 26.0287 49.7701L26.0324 49.7683Z" fill="white"></path><path d="M33.4763 36.003L34.532 36.9038L32.7396 39.004L39.5735 44.8344L38.4693 46.1288L31.6355 40.2984L29.8337 42.4097L28.7781 41.5088L33.4745 36.003H33.4763Z" fill="white"></path><path d="M43.1564 40.4402C42.4551 40.6025 41.7575 40.5689 41.06 40.3358C40.3624 40.1045 39.7283 39.6755 39.1575 39.0525C38.5943 38.4352 38.2287 37.7656 38.0646 37.0401C37.9004 36.3145 37.934 35.6095 38.169 34.9213C38.404 34.2349 38.8106 33.6269 39.3907 33.0953C39.9707 32.5656 40.6123 32.2131 41.3174 32.0397C42.0224 31.8662 42.7293 31.8942 43.4362 32.1236C44.1449 32.353 44.7809 32.7745 45.3442 33.3919C45.9075 34.0092 46.2693 34.6825 46.426 35.4155C46.5826 36.1485 46.5416 36.8647 46.2991 37.5642C46.0567 38.2655 45.6463 38.8791 45.0663 39.4107C44.4937 39.9348 43.8577 40.2779 43.1564 40.4402ZM44.766 37.2583C44.9077 36.8461 44.9245 36.4041 44.8201 35.9359C44.7138 35.4659 44.4601 35.0108 44.0572 34.5706C43.6544 34.1305 43.2291 33.8358 42.7815 33.6847C42.3339 33.5355 41.9012 33.5094 41.4796 33.6101C41.06 33.7108 40.6888 33.9104 40.3661 34.2051C40.0435 34.4998 39.8141 34.8504 39.6798 35.257C39.5455 35.6636 39.5362 36.0926 39.6537 36.5439C39.7712 36.9972 40.0304 37.4429 40.4333 37.8831C41.0301 38.5359 41.6587 38.8884 42.3189 38.9388C42.9792 38.9891 43.5611 38.7821 44.0684 38.3195C44.3911 38.0249 44.6242 37.6705 44.766 37.2583Z" fill="white"></path><path d="M50.6157 24.6032L55.3158 31.3494L53.9207 32.3211L53.3667 31.5247C53.3387 31.9556 53.2045 32.3752 52.9601 32.7818C52.7158 33.1884 52.3931 33.5316 51.994 33.8095C51.4643 34.1788 50.9103 34.4008 50.3378 34.4716C49.7633 34.5444 49.2056 34.4474 48.6629 34.1825C48.1201 33.9177 47.637 33.4794 47.2099 32.8676L44.4458 28.9005L45.8297 27.9362L48.4484 31.6945C48.8699 32.2988 49.3436 32.6569 49.8696 32.7688C50.3956 32.8807 50.9197 32.7557 51.4438 32.3902C51.966 32.0265 52.2682 31.577 52.3502 31.0417C52.4323 30.5064 52.2626 29.9356 51.841 29.3313L49.2224 25.5731L50.6175 24.6014L50.6157 24.6032Z" fill="white"></path><path d="M53.9953 24.7659C54.0047 24.0385 54.1968 23.3801 54.5754 22.7907C54.9521 22.2014 55.4912 21.7258 56.1887 21.3639C57.0709 20.9051 57.9102 20.7354 58.7067 20.8547C59.5031 20.9741 60.2044 21.3695 60.8105 22.0391L59.1823 22.8859C58.8615 22.593 58.5034 22.4196 58.1061 22.3692C57.7088 22.317 57.291 22.4065 56.849 22.6359C56.2316 22.9567 55.853 23.4305 55.7131 24.059C55.5732 24.6857 55.7094 25.3926 56.116 26.1778C56.5244 26.963 57.0262 27.4816 57.6211 27.7333C58.2161 27.9851 58.8242 27.9497 59.4415 27.627C60.3163 27.1738 60.693 26.4893 60.5774 25.5735L62.2056 24.7268C62.3791 25.5791 62.2877 26.3737 61.9333 27.1141C61.579 27.8546 60.9672 28.4477 60.1036 28.8972C59.4061 29.259 58.7066 29.425 58.0054 29.3914C57.3041 29.3579 56.6531 29.1359 56.0526 28.7256C55.452 28.3153 54.9577 27.7333 54.5679 26.9836C54.1781 26.2338 53.9879 25.4952 53.9953 24.7678V24.7659Z" fill="white"></path><path d="M67.5209 16.9823C68.0749 17.0662 68.5766 17.3068 69.0224 17.7059C69.47 18.1051 69.8206 18.6534 70.0762 19.3547L71.7361 23.9112L70.1526 24.4894L68.5785 20.1716C68.3267 19.4797 67.9592 19.0134 67.4799 18.7691C66.9987 18.5266 66.4597 18.5135 65.8628 18.7318C65.2641 18.95 64.8575 19.3081 64.6412 19.8042C64.4248 20.3022 64.4435 20.8953 64.6952 21.5873L66.2694 25.9051L64.671 26.487L60.8904 16.1131L62.4888 15.5312L63.7813 19.0787C63.9324 18.6534 64.1842 18.2748 64.5348 17.9465C64.8855 17.6183 65.3089 17.3627 65.805 17.1818C66.3944 16.9673 66.9651 16.9021 67.5209 16.986V16.9823Z" fill="white"></path><path d="M80.8163 21.6996C80.5794 21.5242 80.4377 21.2836 80.3911 20.9778C80.3444 20.6737 80.4097 20.4014 80.585 20.1646C80.7603 19.9277 81.0009 19.7859 81.3068 19.7393C81.6015 19.6945 81.8682 19.7598 82.1051 19.937C82.342 20.1123 82.4837 20.3529 82.5304 20.6569C82.577 20.9628 82.5117 21.2333 82.3364 21.4701C82.1611 21.707 81.9261 21.8488 81.6295 21.8935C81.3236 21.9402 81.0532 21.8749 80.8163 21.6996Z" fill="white"></path><path d="M110.505 73.6567C110.505 72.8283 109.834 72.1567 109.005 72.1567L95.5054 72.1567C94.677 72.1567 94.0054 72.8283 94.0054 73.6567C94.0054 74.4851 94.677 75.1567 95.5054 75.1567L107.505 75.1567L107.505 87.1567C107.505 87.9851 108.177 88.6567 109.005 88.6567C109.834 88.6567 110.505 87.9851 110.505 87.1567L110.505 73.6567ZM76.0873 108.696L110.066 74.7173L107.945 72.596L73.966 106.575L76.0873 108.696Z" fill="black"></path></svg>