<svg xmlns="http://www.w3.org/2000/svg" xmlns:xlink="http://www.w3.org/1999/xlink" x="0px" y="0px" viewBox="0 0 210 60" style="enable-background:new 0 0 210 60;" xml:space="preserve"><g>	<path d="M69.5,22.4V30h3.1V11.9h-3.1v7.5H61v-7.5h-3.1V30H61v-7.6L69.5,22.4L69.5,22.4z M84.9,11.9V30H88V11.9L84.9,11.9L84.9,11.9  z M109.7,24.4l-9.5-12.5h-2.9V30h3.1V17.2l9.8,12.8h2.6V11.9h-3.1L109.7,24.4L109.7,24.4z M121.9,11.9V30h3.1V11.9L121.9,11.9  L121.9,11.9z M141.8,14.9h5.6v-2.9H133v2.9h5.6V30h3.1V14.9z M155.4,11.9V30h3.1V11.9L155.4,11.9L155.4,11.9z M176.9,11.8H174  L166.2,30h3.2l1.8-4.4h8.4l1.8,4.4h3.3L176.9,11.8L176.9,11.8z M178.5,22.8h-6.1l3-7.2L178.5,22.8z M192.2,30h12.5v-2.9h-9.3V11.9  h-3.1V30z"></path>	<path d="M20.6,9.8v8.6h10V9.8h7.8v25.7v8.1h8.1V1.7H30.5h-10H4.7v41.9h15.9v14.7l10-7.9V26.9h-10v8.6h-7.8V9.8H20.6z"></path></g></svg>