<svg width="78" height="83" viewBox="0 0 78 83" fill="none" xmlns="http://www.w3.org/2000/svg">
<path d="M10.6996 55.5L18.8996 37.5C18.8996 37.5 18.8996 37.5 18.8996 37.4L19.6996 35.7L12.0996 32.3L2.59965 53.3L10.1996 56.7L10.6996 55.5ZM47.4996 37C47.8996 36.4 48.3996 35.8 48.7996 35.2C49.2996 34.4 49.6996 33.6 50.1996 32.8C51.4996 30.1 52.4996 27.1 53.1996 23.8C53.7996 20.7 54.0996 17.4 53.9996 13.9C52.5996 13.9 51.0996 13.8 49.5996 13.6C47.9996 13.3 46.3996 12.9 44.8996 12.3C43.5996 11.8 42.3996 11.1 41.1996 10.3C40.2996 9.7 39.4996 8.9 38.7996 8.1C38.0996 8.9 37.1996 9.7 36.3996 10.3C35.1996 11.1 33.9996 11.8 32.6996 12.3C31.1996 12.9 29.5996 13.3 27.9996 13.6C26.4996 13.8 24.9996 13.9 23.5996 13.9C23.5996 17.3 23.7996 20.6 24.3996 23.8C24.9996 27.1 25.9996 30.1 27.3996 32.8C27.7996 33.7 28.2996 34.5 28.7996 35.3C29.1996 35.9 29.5996 36.6 30.0996 37.2L33.3996 36.2C34.1996 36 34.5996 35.9 35.0996 35.9C35.5996 35.9 36.0996 36 36.7996 36.3C36.7996 36.3 36.7996 36.3 36.8996 36.3L38.7996 37.2L39.1996 37C39.5996 36.9 39.7996 36.8 39.8996 36.7C42.7996 35.6 42.8996 35.7 45.9996 36.6L46.6996 36.8C46.9996 36.8 47.2996 36.9 47.4996 37ZM28.7996 37.5C28.3996 37 28.0996 36.5 27.6996 35.9C27.1996 35.1 26.6996 34.2 26.1996 33.3C24.7996 30.5 23.7996 27.3 23.0996 24C22.3996 20.6 22.1996 16.9 22.1996 13.2V12.5H22.8996C24.3996 12.6 25.9996 12.5 27.6996 12.2C29.1996 12 30.5996 11.6 32.0996 11C33.2996 10.5 34.3996 9.9 35.4996 9.1C36.4996 8.4 37.3996 7.5 38.1996 6.5L38.7996 6L39.2996 6.6C40.0996 7.6 40.9996 8.5 41.9996 9.2C43.0996 10 44.1996 10.6 45.3996 11.1C46.7996 11.7 48.2996 12.1 49.7996 12.3C51.4996 12.6 53.0996 12.6 54.5996 12.6H55.2996V13.3C55.3996 17.1 55.0996 20.7 54.3996 24.1C53.6996 27.5 52.6996 30.6 51.2996 33.4C50.8996 34.3 50.3996 35.1 49.8996 35.9C49.5996 36.4 49.2996 36.9 48.8996 37.4C49.2996 37.5 49.7996 37.6 50.1996 37.7C51.1996 37.9 52.1996 38.1 53.2996 38.2C54.3996 38.3 52.9996 38.2 53.7996 38.3C54.8996 38.4 55.3996 38.5 55.7996 38.4C56.1996 38.3 56.5996 38.1 57.2996 37.7L57.5996 37.5L56.7996 35.7C56.7996 35.7 56.7996 35.7 56.7996 35.6C56.6996 35.3 56.7996 34.9 57.0996 34.7L65.8997 30.7C66.1997 30.6 66.5997 30.7 66.7997 31L76.8997 53.2C76.8997 53.2 76.8997 53.2 76.8997 53.3C76.9996 53.6 76.8997 54 76.5996 54.2L67.7997 58.2C67.4996 58.3 67.0996 58.2 66.8997 57.9L66.3997 56.7L60.8996 59.7C61.1996 60.3 61.2996 61 61.1996 61.6C61.0996 62.5 60.6996 63.3 60.0996 64C58.9996 65.1 57.7996 65.3 56.6996 65.1C56.3996 65 56.0996 64.9 55.8996 64.8C55.8996 64.9 55.8996 65 55.8996 65.1C55.8996 66.1 55.4996 67 54.7996 67.8C53.9996 68.6 52.9996 69 51.9996 68.9C51.6996 68.9 51.3996 68.8 51.1996 68.8C51.1996 69 51.1996 69.2 51.1996 69.4C51.1996 70.4 50.7996 71.4 50.0996 72.2C49.2996 73 48.3996 73.3 47.3996 73.3C46.8996 73.3 46.4996 73.2 45.9996 73C45.9996 73.1 45.9996 73.2 45.9996 73.3C45.9996 74.3 45.5996 75.2 44.8996 75.9C43.9996 76.7 42.9996 77 41.9996 77C40.9996 77 39.9996 76.6 39.2996 75.8L39.0996 75.6L38.8996 75.8C38.0996 76.6 37.1996 76.9 36.1996 76.9C35.1996 76.9 34.1996 76.5 33.4996 75.8C32.7996 75.1 32.3996 74.1 32.3996 73.1C31.7996 73.5 31.0996 73.6 30.3996 73.6C29.3996 73.6 28.3996 73.2 27.6996 72.5C26.9996 71.7 26.5996 70.7 26.5996 69.7C26.5996 69.5 26.5996 69.3 26.5996 69.1C26.2996 69.2 25.9996 69.2 25.6996 69.2C24.6996 69.2 23.7996 68.8 22.9996 68.1C22.2996 67.3 21.8996 66.3 21.8996 65.3C21.8996 65.2 21.8996 65.1 21.8996 65C21.4996 65.1 20.9996 65.2 20.5996 65.2C19.5996 65.2 18.5996 64.8 17.8996 64.1C17.1996 63.4 16.8996 62.6 16.7996 61.7C16.6996 61 16.7996 60.4 17.0996 59.8L11.6996 56.7L11.1996 57.8C11.0996 58.1 10.6996 58.3 10.2996 58.1L1.49965 54.1C1.19965 53.9 0.999647 53.6 1.19965 53.2L11.2996 31C11.3996 30.7 11.7996 30.5 12.1996 30.7L20.9996 34.7C21.2996 34.9 21.4996 35.2 21.2996 35.6L20.4996 37.4L21.3996 37.9C21.3996 37.9 21.5996 38 21.6996 38.1C22.0996 38.3 22.1996 38.4 22.9996 38.3L26.3996 37.9C26.9996 37.8 27.3996 37.8 27.8996 37.7C28.0996 37.7 28.3996 37.6 28.7996 37.5ZM12.1996 55.5L17.6996 58.7L17.7996 58.6L21.5996 54.7C22.3996 53.9 23.2996 53.6 24.2996 53.6C25.2996 53.6 26.2996 54 26.9996 54.7C27.6996 55.5 28.0996 56.5 28.0996 57.5C28.0996 57.6 28.0996 57.7 28.0996 57.8C28.4996 57.6 28.9996 57.6 29.3996 57.6C30.3996 57.6 31.3996 58 32.0996 58.7C32.7996 59.5 33.1996 60.5 33.1996 61.5C33.1996 61.7 33.1996 61.9 33.1996 62.1C33.4996 62 33.7996 62 34.0996 62C35.0996 62 36.0996 62.4 36.7996 63.1C37.4996 63.9 37.8996 64.9 37.8996 65.9C37.8996 66 37.8996 66.1 37.8996 66.2C38.2996 66.1 38.6996 66 39.0996 66C40.0996 66 41.0996 66.4 41.7996 67.1C41.9996 67.3 42.1996 67.5 42.2996 67.8C42.3996 68 42.4996 68.2 42.5996 68.4L44.5996 70.4L44.6996 70.5L45.2996 71.1C45.7996 71.6 46.3996 71.9 47.0996 71.9C47.6996 71.9 48.3996 71.7 48.8996 71.2C49.3996 70.7 49.5996 70.1 49.5996 69.4C49.5996 68.7 49.3996 68.1 48.8996 67.6L45.2996 64C44.9996 63.7 44.9996 63.3 45.2996 63.1C45.5996 62.8 45.9996 62.8 46.1996 63.1L49.8996 66.7C50.4996 67.3 51.1996 67.6 51.7996 67.6C52.3996 67.6 53.0996 67.4 53.5996 66.9C54.0996 66.4 54.2996 65.8 54.2996 65.1C54.2996 64.5 54.0996 63.8 53.6996 63.3L49.9996 59.6C49.6996 59.3 49.6996 58.9 49.9996 58.7C50.2996 58.4 50.6996 58.4 50.8996 58.7L54.5996 62.4C55.2996 63.1 55.9996 63.7 56.7996 63.8C57.4996 64 58.1996 63.8 58.8996 63.1C59.2996 62.7 59.5996 62.1 59.5996 61.5C59.6996 60.9 59.4996 60.3 59.1996 59.8C56.6996 57.2 53.7996 54.7 50.8996 52.4C47.9996 50.2 44.9996 48.2 41.9996 46.6C41.4996 46.3 41.1996 46.1 40.8996 46C40.6996 45.9 40.5996 45.8 40.4996 45.8C40.3996 45.8 40.0996 45.9 39.3996 46.2H39.2996C37.7996 46.8 37.4996 47.4 36.9996 48.6C36.7996 49 36.5996 49.4 36.3996 50C36.1996 50.4 35.9996 50.8 35.6996 51.1C34.8996 52.1 33.8996 52.9 32.7996 53.3C31.6996 53.7 30.3996 53.6 29.2996 53C28.9996 52.9 28.7996 52.7 28.4996 52.5C27.9996 52 27.7996 51.5 27.7996 50.8C27.7996 50.2 27.8996 49.6 28.0996 48.9L28.2996 47.8C29.1996 43.9 29.5996 42 30.6996 40.7C31.6996 39.5 33.1996 39 36.0996 38L36.7996 37.8L36.0996 37.5C35.5996 37.3 35.2996 37.2 34.8996 37.2C34.4996 37.2 34.0996 37.3 33.4996 37.5L29.2996 38.8C28.6996 39 28.1996 39.1 27.6996 39.2C27.1996 39.3 26.6996 39.4 26.0996 39.5L22.6996 39.9C21.4996 40 21.2996 39.9 20.5996 39.5C20.5996 39.5 20.4996 39.4 20.2996 39.3L19.3996 38.8L12.1996 55.5ZM18.3996 59.9C18.3996 60 18.3996 60 18.3996 59.9C18.0996 60.4 17.8996 61 17.9996 61.6C18.0996 62.2 18.2996 62.7 18.6996 63.2C19.1996 63.7 19.7996 63.9 20.4996 63.9C21.0996 63.9 21.7996 63.6 22.2996 63.1L26.1996 59.1C26.6996 58.6 26.8996 58 26.8996 57.3C26.8996 56.6 26.6996 56 26.1996 55.5C25.6996 55 25.0996 54.8 24.3996 54.8C23.7996 54.8 23.0996 55 22.5996 55.5L18.7996 59.4C18.6996 59.5 18.6996 59.5 18.5996 59.6C18.4996 59.8 18.4996 59.9 18.3996 59.9ZM27.6996 59.6L23.7996 63.6C23.2996 64.1 23.0996 64.7 23.0996 65.4C23.0996 66.1 23.2996 66.7 23.7996 67.2C24.2996 67.7 24.8996 67.9 25.5996 67.9C26.1996 67.9 26.8996 67.6 27.3996 67.2L27.5996 67C29.1996 65.4 28.4996 66.1 29.3996 65.2L31.1996 63.4C31.6996 62.9 31.8996 62.2 31.8996 61.6C31.8996 60.9 31.6996 60.3 31.1996 59.8C30.6996 59.3 30.0996 59.1 29.3996 59.1C28.6996 59.1 28.1996 59.1 27.6996 59.6ZM32.1996 64.2L30.3996 66.1C28.2996 68.2 28.8996 67.6 28.5996 67.9L28.4996 68C28.0996 68.5 27.7996 69.1 27.7996 69.8C27.7996 70.5 27.9996 71.1 28.4996 71.6C28.9996 72.1 29.5996 72.3 30.2996 72.3C30.8996 72.3 31.5996 72.1 32.0996 71.6L35.9996 67.6C36.3996 67.1 36.6996 66.5 36.6996 65.9C36.6996 65.3 36.4996 64.6 35.9996 64.1C35.4996 63.6 34.8996 63.4 34.1996 63.4C33.4996 63.4 32.8996 63.7 32.3996 64.1L32.1996 64.2ZM37.4996 68.1L34.3996 71.3C33.8996 71.8 33.6996 72.4 33.6996 73.1C33.6996 73.8 33.8996 74.4 34.3996 74.9C34.8996 75.4 35.4996 75.6 36.1996 75.6C36.8996 75.6 37.4996 75.3 37.9996 74.9L41.0996 71.8C41.4996 71.4 41.6996 71 41.7996 70.5C41.8996 70 41.8996 69.5 41.6996 69C41.5996 68.8 41.5996 68.7 41.4996 68.5C41.3996 68.4 41.2996 68.2 41.1996 68.1C40.6996 67.6 40.0996 67.4 39.3996 67.4C38.5996 67.3 37.9996 67.6 37.4996 68.1ZM43.8996 71.3L43.0996 70.5C43.0996 70.6 43.0996 70.6 43.0996 70.7C42.8996 71.4 42.5996 72.1 42.0996 72.6L40.0996 74.6L40.2996 74.8C40.7996 75.3 41.4996 75.6 42.0996 75.6C42.6996 75.6 43.3996 75.4 43.8996 74.9C44.3996 74.4 44.5996 73.8 44.6996 73.2C44.6996 72.6 44.4996 71.9 44.0996 71.4C43.9996 71.5 43.8996 71.4 43.8996 71.3C43.8996 71.4 43.8996 71.4 43.8996 71.3ZM51.8996 51.4C54.7996 53.6 57.5996 56.1 60.0996 58.6L65.7997 55.5L58.1996 38.7L57.9996 38.8C57.0996 39.3 56.6996 39.5 56.0996 39.7C55.4996 39.8 54.8996 39.7 53.6996 39.6C53.2996 39.5 54.6996 39.7 53.1996 39.5C52.0996 39.4 51.0996 39.2 49.9996 39C48.8996 38.8 47.7996 38.5 46.4996 38.1C45.9996 38 45.8996 37.9 45.7996 37.9C43.1996 37.1 42.9996 37.1 40.5996 38C40.1996 38.2 39.9996 38.2 39.7996 38.3L38.9996 38.5C38.0996 38.8 37.3996 39.1 36.7996 39.3C34.1996 40.2 32.7996 40.7 31.9996 41.6C31.0996 42.6 30.6996 44.4 29.8996 48.1L29.6996 49.2C29.5996 49.8 29.4996 50.4 29.4996 50.8C29.4996 51.1 29.5996 51.3 29.7996 51.5C29.9996 51.6 30.1996 51.8 30.2996 51.8C31.0996 52.2 31.9996 52.3 32.7996 52C33.5996 51.7 34.3996 51.1 34.9996 50.3C35.1996 50 35.3996 49.7 35.5996 49.4C35.7996 48.9 35.9996 48.5 36.1996 48.1C36.8996 46.6 37.1996 45.8 39.1996 45H39.2996C40.1996 44.6 40.5996 44.5 41.0996 44.5C41.3996 44.5 41.5996 44.7 41.9996 44.9C42.1996 45 42.4996 45.2 42.9996 45.5C45.8996 47.1 48.9996 49.1 51.8996 51.4ZM67.2997 55.5L67.7997 56.7L75.3997 53.3L65.8997 32.3L58.2996 35.7L67.2997 55.5ZM32.3996 23.7L36.4996 27.8L45.0996 19L47.4996 21.4L36.4996 32.6L29.9996 26.1L32.3996 23.7Z" fill="white"/>
<path d="M18.3996 59.9C18.3996 60 18.3996 60 18.3996 59.9ZM18.3996 59.9C18.0996 60.4 17.8996 61 17.9996 61.6C18.0996 62.2 18.2996 62.7 18.6996 63.2C19.1996 63.7 19.7996 63.9 20.4996 63.9C21.0996 63.9 21.7996 63.6 22.2996 63.1L26.1996 59.1C26.6996 58.6 26.8996 58 26.8996 57.3C26.8996 56.6 26.6996 56 26.1996 55.5C25.6996 55 25.0996 54.8 24.3996 54.8C23.7996 54.8 23.0996 55 22.5996 55.5L18.7996 59.4C18.6996 59.5 18.6996 59.5 18.5996 59.6C18.4996 59.8 18.4996 59.9 18.3996 59.9ZM43.8996 71.3L43.0996 70.5C43.0996 70.6 43.0996 70.6 43.0996 70.7C42.8996 71.4 42.5996 72.1 42.0996 72.6L40.0996 74.6L40.2996 74.8C40.7996 75.3 41.4996 75.6 42.0996 75.6C42.6996 75.6 43.3996 75.4 43.8996 74.9C44.3996 74.4 44.5996 73.8 44.6996 73.2C44.6996 72.6 44.4996 71.9 44.0996 71.4C43.9996 71.5 43.8996 71.4 43.8996 71.3ZM43.8996 71.3C43.8996 71.4 43.8996 71.4 43.8996 71.3ZM10.6996 55.5L18.8996 37.5C18.8996 37.5 18.8996 37.5 18.8996 37.4L19.6996 35.7L12.0996 32.3L2.59965 53.3L10.1996 56.7L10.6996 55.5ZM47.4996 37C47.8996 36.4 48.3996 35.8 48.7996 35.2C49.2996 34.4 49.6996 33.6 50.1996 32.8C51.4996 30.1 52.4996 27.1 53.1996 23.8C53.7996 20.7 54.0996 17.4 53.9996 13.9C52.5996 13.9 51.0996 13.8 49.5996 13.6C47.9996 13.3 46.3996 12.9 44.8996 12.3C43.5996 11.8 42.3996 11.1 41.1996 10.3C40.2996 9.7 39.4996 8.9 38.7996 8.1C38.0996 8.9 37.1996 9.7 36.3996 10.3C35.1996 11.1 33.9996 11.8 32.6996 12.3C31.1996 12.9 29.5996 13.3 27.9996 13.6C26.4996 13.8 24.9996 13.9 23.5996 13.9C23.5996 17.3 23.7996 20.6 24.3996 23.8C24.9996 27.1 25.9996 30.1 27.3996 32.8C27.7996 33.7 28.2996 34.5 28.7996 35.3C29.1996 35.9 29.5996 36.6 30.0996 37.2L33.3996 36.2C34.1996 36 34.5996 35.9 35.0996 35.9C35.5996 35.9 36.0996 36 36.7996 36.3C36.7996 36.3 36.7996 36.3 36.8996 36.3L38.7996 37.2L39.1996 37C39.5996 36.9 39.7996 36.8 39.8996 36.7C42.7996 35.6 42.8996 35.7 45.9996 36.6L46.6996 36.8C46.9996 36.8 47.2996 36.9 47.4996 37ZM28.7996 37.5C28.3996 37 28.0996 36.5 27.6996 35.9C27.1996 35.1 26.6996 34.2 26.1996 33.3C24.7996 30.5 23.7996 27.3 23.0996 24C22.3996 20.6 22.1996 16.9 22.1996 13.2V12.5H22.8996C24.3996 12.6 25.9996 12.5 27.6996 12.2C29.1996 12 30.5996 11.6 32.0996 11C33.2996 10.5 34.3996 9.9 35.4996 9.1C36.4996 8.4 37.3996 7.5 38.1996 6.5L38.7996 6L39.2996 6.6C40.0996 7.6 40.9996 8.5 41.9996 9.2C43.0996 10 44.1996 10.6 45.3996 11.1C46.7996 11.7 48.2996 12.1 49.7996 12.3C51.4996 12.6 53.0996 12.6 54.5996 12.6H55.2996V13.3C55.3996 17.1 55.0996 20.7 54.3996 24.1C53.6996 27.5 52.6996 30.6 51.2996 33.4C50.8996 34.3 50.3996 35.1 49.8996 35.9C49.5996 36.4 49.2996 36.9 48.8996 37.4C49.2996 37.5 49.7996 37.6 50.1996 37.7C51.1996 37.9 52.1996 38.1 53.2996 38.2C54.3996 38.3 52.9996 38.2 53.7996 38.3C54.8996 38.4 55.3996 38.5 55.7996 38.4C56.1996 38.3 56.5996 38.1 57.2996 37.7L57.5996 37.5L56.7996 35.7C56.7996 35.7 56.7996 35.7 56.7996 35.6C56.6996 35.3 56.7996 34.9 57.0996 34.7L65.8997 30.7C66.1997 30.6 66.5997 30.7 66.7997 31L76.8997 53.2C76.8997 53.2 76.8997 53.2 76.8997 53.3C76.9997 53.6 76.8996 54 76.5996 54.2L67.7997 58.2C67.4997 58.3 67.0997 58.2 66.8997 57.9L66.3997 56.7L60.8996 59.7C61.1996 60.3 61.2996 61 61.1996 61.6C61.0996 62.5 60.6996 63.3 60.0996 64C58.9996 65.1 57.7996 65.3 56.6996 65.1C56.3996 65 56.0996 64.9 55.8996 64.8C55.8996 64.9 55.8996 65 55.8996 65.1C55.8996 66.1 55.4996 67 54.7996 67.8C53.9996 68.6 52.9996 69 51.9996 68.9C51.6996 68.9 51.3996 68.8 51.1996 68.8C51.1996 69 51.1996 69.2 51.1996 69.4C51.1996 70.4 50.7996 71.4 50.0996 72.2C49.2996 73 48.3996 73.3 47.3996 73.3C46.8996 73.3 46.4996 73.2 45.9996 73C45.9996 73.1 45.9996 73.2 45.9996 73.3C45.9996 74.3 45.5996 75.2 44.8996 75.9C43.9996 76.7 42.9996 77 41.9996 77C40.9996 77 39.9996 76.6 39.2996 75.8L39.0996 75.6L38.8996 75.8C38.0996 76.6 37.1996 76.9 36.1996 76.9C35.1996 76.9 34.1996 76.5 33.4996 75.8C32.7996 75.1 32.3996 74.1 32.3996 73.1C31.7996 73.5 31.0996 73.6 30.3996 73.6C29.3996 73.6 28.3996 73.2 27.6996 72.5C26.9996 71.7 26.5996 70.7 26.5996 69.7C26.5996 69.5 26.5996 69.3 26.5996 69.1C26.2996 69.2 25.9996 69.2 25.6996 69.2C24.6996 69.2 23.7996 68.8 22.9996 68.1C22.2996 67.3 21.8996 66.3 21.8996 65.3C21.8996 65.2 21.8996 65.1 21.8996 65C21.4996 65.1 20.9996 65.2 20.5996 65.2C19.5996 65.2 18.5996 64.8 17.8996 64.1C17.1996 63.4 16.8996 62.6 16.7996 61.7C16.6996 61 16.7996 60.4 17.0996 59.8L11.6996 56.7L11.1996 57.8C11.0996 58.1 10.6996 58.3 10.2996 58.1L1.49965 54.1C1.19965 53.9 0.999647 53.6 1.19965 53.2L11.2996 31C11.3996 30.7 11.7996 30.5 12.1996 30.7L20.9996 34.7C21.2996 34.9 21.4996 35.2 21.2996 35.6L20.4996 37.4L21.3996 37.9C21.3996 37.9 21.5996 38 21.6996 38.1C22.0996 38.3 22.1996 38.4 22.9996 38.3L26.3996 37.9C26.9996 37.8 27.3996 37.8 27.8996 37.7C28.0996 37.7 28.3996 37.6 28.7996 37.5ZM12.1996 55.5L17.6996 58.7L17.7996 58.6L21.5996 54.7C22.3996 53.9 23.2996 53.6 24.2996 53.6C25.2996 53.6 26.2996 54 26.9996 54.7C27.6996 55.5 28.0996 56.5 28.0996 57.5C28.0996 57.6 28.0996 57.7 28.0996 57.8C28.4996 57.6 28.9996 57.6 29.3996 57.6C30.3996 57.6 31.3996 58 32.0996 58.7C32.7996 59.5 33.1996 60.5 33.1996 61.5C33.1996 61.7 33.1996 61.9 33.1996 62.1C33.4996 62 33.7996 62 34.0996 62C35.0996 62 36.0996 62.4 36.7996 63.1C37.4996 63.9 37.8996 64.9 37.8996 65.9C37.8996 66 37.8996 66.1 37.8996 66.2C38.2996 66.1 38.6996 66 39.0996 66C40.0996 66 41.0996 66.4 41.7996 67.1C41.9996 67.3 42.1996 67.5 42.2996 67.8C42.3996 68 42.4996 68.2 42.5996 68.4L44.5996 70.4L44.6996 70.5L45.2996 71.1C45.7996 71.6 46.3996 71.9 47.0996 71.9C47.6996 71.9 48.3996 71.7 48.8996 71.2C49.3996 70.7 49.5996 70.1 49.5996 69.4C49.5996 68.7 49.3996 68.1 48.8996 67.6L45.2996 64C44.9996 63.7 44.9996 63.3 45.2996 63.1C45.5996 62.8 45.9996 62.8 46.1996 63.1L49.8996 66.7C50.4996 67.3 51.1996 67.6 51.7996 67.6C52.3996 67.6 53.0996 67.4 53.5996 66.9C54.0996 66.4 54.2996 65.8 54.2996 65.1C54.2996 64.5 54.0996 63.8 53.6996 63.3L49.9996 59.6C49.6996 59.3 49.6996 58.9 49.9996 58.7C50.2996 58.4 50.6996 58.4 50.8996 58.7L54.5996 62.4C55.2996 63.1 55.9996 63.7 56.7996 63.8C57.4996 64 58.1996 63.8 58.8996 63.1C59.2996 62.7 59.5996 62.1 59.5996 61.5C59.6996 60.9 59.4996 60.3 59.1996 59.8C56.6996 57.2 53.7996 54.7 50.8996 52.4C47.9996 50.2 44.9996 48.2 41.9996 46.6C41.4996 46.3 41.1996 46.1 40.8996 46C40.6996 45.9 40.5996 45.8 40.4996 45.8C40.3996 45.8 40.0996 45.9 39.3996 46.2H39.2996C37.7996 46.8 37.4996 47.4 36.9996 48.6C36.7996 49 36.5996 49.4 36.3996 50C36.1996 50.4 35.9996 50.8 35.6996 51.1C34.8996 52.1 33.8996 52.9 32.7996 53.3C31.6996 53.7 30.3996 53.6 29.2996 53C28.9996 52.9 28.7996 52.7 28.4996 52.5C27.9996 52 27.7996 51.5 27.7996 50.8C27.7996 50.2 27.8996 49.6 28.0996 48.9L28.2996 47.8C29.1996 43.9 29.5996 42 30.6996 40.7C31.6996 39.5 33.1996 39 36.0996 38L36.7996 37.8L36.0996 37.5C35.5996 37.3 35.2996 37.2 34.8996 37.2C34.4996 37.2 34.0996 37.3 33.4996 37.5L29.2996 38.8C28.6996 39 28.1996 39.1 27.6996 39.2C27.1996 39.3 26.6996 39.4 26.0996 39.5L22.6996 39.9C21.4996 40 21.2996 39.9 20.5996 39.5C20.5996 39.5 20.4996 39.4 20.2996 39.3L19.3996 38.8L12.1996 55.5ZM27.6996 59.6L23.7996 63.6C23.2996 64.1 23.0996 64.7 23.0996 65.4C23.0996 66.1 23.2996 66.7 23.7996 67.2C24.2996 67.7 24.8996 67.9 25.5996 67.9C26.1996 67.9 26.8996 67.6 27.3996 67.2L27.5996 67C29.1996 65.4 28.4996 66.1 29.3996 65.2L31.1996 63.4C31.6996 62.9 31.8996 62.2 31.8996 61.6C31.8996 60.9 31.6996 60.3 31.1996 59.8C30.6996 59.3 30.0996 59.1 29.3996 59.1C28.6996 59.1 28.1996 59.1 27.6996 59.6ZM32.1996 64.2L30.3996 66.1C28.2996 68.2 28.8996 67.6 28.5996 67.9L28.4996 68C28.0996 68.5 27.7996 69.1 27.7996 69.8C27.7996 70.5 27.9996 71.1 28.4996 71.6C28.9996 72.1 29.5996 72.3 30.2996 72.3C30.8996 72.3 31.5996 72.1 32.0996 71.6L35.9996 67.6C36.3996 67.1 36.6996 66.5 36.6996 65.9C36.6996 65.3 36.4996 64.6 35.9996 64.1C35.4996 63.6 34.8996 63.4 34.1996 63.4C33.4996 63.4 32.8996 63.7 32.3996 64.1L32.1996 64.2ZM37.4996 68.1L34.3996 71.3C33.8996 71.8 33.6996 72.4 33.6996 73.1C33.6996 73.8 33.8996 74.4 34.3996 74.9C34.8996 75.4 35.4996 75.6 36.1996 75.6C36.8996 75.6 37.4996 75.3 37.9996 74.9L41.0996 71.8C41.4996 71.4 41.6996 71 41.7996 70.5C41.8996 70 41.8996 69.5 41.6996 69C41.5996 68.8 41.5996 68.7 41.4996 68.5C41.3996 68.4 41.2996 68.2 41.1996 68.1C40.6996 67.6 40.0996 67.4 39.3996 67.4C38.5996 67.3 37.9996 67.6 37.4996 68.1ZM51.8996 51.4C54.7996 53.6 57.5996 56.1 60.0996 58.6L65.7997 55.5L58.1996 38.7L57.9996 38.8C57.0996 39.3 56.6996 39.5 56.0996 39.7C55.4996 39.8 54.8996 39.7 53.6996 39.6C53.2996 39.5 54.6996 39.7 53.1996 39.5C52.0996 39.4 51.0996 39.2 49.9996 39C48.8996 38.8 47.7996 38.5 46.4996 38.1C45.9996 38 45.8996 37.9 45.7996 37.9C43.1996 37.1 42.9996 37.1 40.5996 38C40.1996 38.2 39.9996 38.2 39.7996 38.3L38.9996 38.5C38.0996 38.8 37.3996 39.1 36.7996 39.3C34.1996 40.2 32.7996 40.7 31.9996 41.6C31.0996 42.6 30.6996 44.4 29.8996 48.1L29.6996 49.2C29.5996 49.8 29.4996 50.4 29.4996 50.8C29.4996 51.1 29.5996 51.3 29.7996 51.5C29.9996 51.6 30.1996 51.8 30.2996 51.8C31.0996 52.2 31.9996 52.3 32.7996 52C33.5996 51.7 34.3996 51.1 34.9996 50.3C35.1996 50 35.3996 49.7 35.5996 49.4C35.7996 48.9 35.9996 48.5 36.1996 48.1C36.8996 46.6 37.1996 45.8 39.1996 45H39.2996C40.1996 44.6 40.5996 44.5 41.0996 44.5C41.3996 44.5 41.5996 44.7 41.9996 44.9C42.1996 45 42.4996 45.2 42.9996 45.5C45.8996 47.1 48.9996 49.1 51.8996 51.4ZM67.2997 55.5L67.7997 56.7L75.3997 53.3L65.8997 32.3L58.2996 35.7L67.2997 55.5ZM32.3996 23.7L36.4996 27.8L45.0996 19L47.4996 21.4L36.4996 32.6L29.9996 26.1L32.3996 23.7Z" stroke="white" stroke-width="1.5"/>
</svg>
