<svg width="100" height="100" viewBox="0 0 100 100" fill="none" xmlns="http://www.w3.org/2000/svg">
<path d="M64.0992 90.8C62.0992 90.8 59.9992 90.4 58.0992 89.5C57.1992 89.1 55.5992 88.1 55.0992 87.7L41.9992 79.5C41.7992 79.4 40.7992 78.7 40.7992 78.7C38.5992 77.3 37.8992 74.2 39.2992 71.9C39.9992 70.8 41.0992 70 42.3992 69.7C43.6992 69.4 44.9992 69.6 46.0992 70.3L48.3992 71.8L41.2992 55.5C40.1992 53 41.3992 50.1 43.8992 49C45.0992 48.5 46.4992 48.4 47.6992 48.9C48.8992 49.4 49.8992 50.3 50.3992 51.5L53.9992 59.8C54.2992 59.5 54.6992 59.2 55.1992 59C56.2992 58.5 57.4992 58.5 58.5992 58.9C59.2992 59.2 59.8992 59.6 60.3992 60.2C60.7992 59.8 61.1992 59.5 61.6992 59.3C62.7992 58.8 63.9992 58.8 65.0992 59.2C65.7992 59.5 66.4992 60 66.8992 60.6C67.2992 60.2 67.6992 59.9 68.1992 59.7L68.7992 61.1L68.2992 60C69.3992 59.5 70.5992 59.5 71.6992 59.9C72.7992 60.3 73.6992 61.2 74.0992 62.3L78.1992 71.7C78.1992 71.8 78.2992 71.9 78.2992 71.9C80.3992 77.5 78.3992 84 73.6992 87.4C72.4992 88.3 70.6992 89.2 69.9992 89.5C68.0992 90.4 66.0992 90.8 64.0992 90.8ZM59.3992 86.8C62.3992 88.1 65.7992 88.2 68.7992 86.9C69.7992 86.5 71.0992 85.8 71.8992 85.2C75.6992 82.5 77.1992 77.4 75.4992 73V72.9L71.4992 63.7C71.2992 63.4 71.0992 63.1 70.6992 62.9C70.3992 62.8 69.9992 62.8 69.6992 62.9C69.4992 63 69.2992 63.1 69.0992 63.3C68.8992 63.5 68.7992 63.8 68.7992 64.1L68.6992 64.9C68.5992 65.6 68.0992 66.1 67.3992 66.3C66.6992 66.4 66.0992 66 65.7992 65.4L64.8992 63.3C64.6992 63 64.4992 62.7 64.0992 62.5C63.6992 62.4 63.3992 62.4 62.9992 62.5C62.5992 62.7 62.2992 63.1 62.1992 63.5C62.1992 63.6 62.1992 63.7 62.1992 63.9V64.5C62.1992 65.2 61.6992 65.9 60.9992 66C60.2992 66.2 59.5992 65.8 59.2992 65.1L58.2992 62.9C58.0992 62.6 57.8992 62.3 57.4992 62.1C57.0992 61.9 56.7992 62 56.3992 62.1C55.7992 62.4 55.3992 63.1 55.5992 63.8C55.7992 64.6 55.3992 65.3 54.5992 65.6C53.8992 65.9 52.9992 65.5 52.6992 64.8L47.5992 53C47.3992 52.5 46.9992 52.2 46.4992 52C45.9992 51.8 45.4992 51.8 44.9992 52C43.9992 52.4 43.5992 53.6 43.9992 54.5L52.9992 75.3C53.2992 75.9 53.0992 76.6 52.5992 77C52.0992 77.4 51.3992 77.5 50.7992 77.1L49.9992 76.6L44.2992 73C43.8992 72.7 43.3992 72.6 42.8992 72.7C42.3992 72.8 41.9992 73.1 41.6992 73.5C41.0992 74.4 41.3992 75.6 42.2992 76.2C42.3992 76.2 43.1992 76.8 43.3992 76.9L56.5992 85.1L56.6992 85.2C57.4992 85.7 58.9992 86.6 59.3992 86.8Z" fill="white"/>
<path d="M64.0996 90.9999C61.8996 90.9999 59.7996 90.4999 57.9996 89.6999C57.0996 89.2999 55.4996 88.2999 54.9996 87.8999L41.8996 79.6999C41.6996 79.5999 40.8996 78.9999 40.6996 78.8999C38.3996 77.3999 37.6996 74.1999 39.0996 71.7999C39.8996 70.5999 40.9996 69.7999 42.3996 69.4999C43.7996 69.1999 45.1996 69.3999 46.2996 70.0999L47.8996 71.0999L41.0996 55.5999C40.4996 54.2999 40.4996 52.8999 40.9996 51.5999C41.4996 50.2999 42.4996 49.2999 43.7996 48.6999C45.0996 48.0999 46.5996 48.0999 47.7996 48.5999C49.0996 49.1999 50.0996 50.0999 50.5996 51.2999L54.0996 59.2999C54.3996 58.9999 54.7996 58.7999 55.0996 58.6999C56.1996 58.1999 57.4996 58.1999 58.6996 58.5999C59.3996 58.8999 59.9996 59.2999 60.3996 59.7999C60.7996 59.3999 61.1996 59.1999 61.5996 58.9999C62.6996 58.4999 63.9996 58.4999 65.1996 58.8999C65.8996 59.1999 66.4996 59.6999 66.8996 60.1999C67.2996 59.7999 67.6996 59.5999 68.0996 59.3999L68.2996 59.2999L68.3996 59.5999C69.3996 59.1999 70.5996 59.1999 71.6996 59.5999C72.8996 59.9999 73.7996 60.9999 74.1996 62.0999L78.3996 71.6999C80.4996 77.3999 78.4996 83.9999 73.6996 87.4999C72.4996 88.3999 70.5996 89.2999 69.9996 89.5999C68.2996 90.5999 66.1996 90.9999 64.0996 90.9999ZM43.5996 69.7999C43.1996 69.7999 42.8996 69.7999 42.4996 69.8999C41.2996 70.1999 40.1996 70.8999 39.5996 71.9999C38.2996 74.1999 38.8996 77.0999 40.9996 78.4999C41.3996 78.7999 41.9996 79.1999 42.1996 79.2999L55.2996 87.4999C55.7996 87.8999 57.3996 88.8999 58.2996 89.2999C60.0996 90.0999 62.0996 90.5999 64.1996 90.5999C66.2996 90.5999 68.1996 90.1999 69.9996 89.2999C70.6996 88.9999 72.4996 88.0999 73.6996 87.1999C78.2996 83.7999 80.1996 77.4999 78.1996 71.9999C78.1996 71.8999 78.0996 71.7999 78.0996 71.6999L73.9996 62.2999C73.5996 61.2999 72.7996 60.3999 71.6996 59.9999C70.6996 59.5999 69.6996 59.5999 68.6996 59.9999L68.9996 60.9999L68.4996 61.1999L67.9996 59.9999C67.6996 60.1999 67.3996 60.3999 66.9996 60.6999L66.8996 60.9999L66.6996 60.6999C66.3996 60.1999 65.6996 59.6999 64.9996 59.3999C63.8996 58.9999 62.7996 58.9999 61.7996 59.4999C61.3996 59.6999 60.9996 59.8999 60.5996 60.2999L60.3996 60.4999L60.1996 60.2999C59.7996 59.7999 59.1996 59.3999 58.4996 59.0999C57.3996 58.6999 56.2996 58.6999 55.2996 59.1999C54.8996 59.3999 54.4996 59.5999 54.1996 59.8999L53.8996 60.1999L50.1996 51.5999C49.6996 50.4999 48.7996 49.5999 47.5996 49.0999C46.4996 48.6999 45.1996 48.6999 43.9996 49.1999C41.5996 50.2999 40.4996 52.9999 41.4996 55.3999L48.9996 72.4999L45.9996 70.4999C45.1996 69.9999 44.3996 69.7999 43.5996 69.7999ZM64.2996 88.0999C62.5996 88.0999 60.8996 87.7999 59.2996 87.0999C58.8996 86.8999 57.3996 85.9999 56.5996 85.4999L56.4996 85.3999L43.2996 77.1999C43.1996 77.1999 42.9996 76.9999 42.7996 76.8999C42.5996 76.7999 42.3996 76.5999 42.2996 76.5999H42.1996C41.1996 75.8999 40.8996 74.4999 41.4996 73.5999C41.8996 73.0999 42.2996 72.7999 42.8996 72.6999C43.4996 72.5999 43.9996 72.6999 44.4996 72.9999L50.9996 77.0999C51.5996 77.4999 52.1996 77.2999 52.4996 76.9999C52.8996 76.6999 53.0996 76.0999 52.7996 75.5999L43.7996 54.7999C43.5996 54.2999 43.5996 53.6999 43.7996 53.0999C43.9996 52.5999 44.3996 52.1999 44.8996 51.8999C45.4996 51.6999 45.9996 51.6999 46.5996 51.8999C47.1996 52.1999 47.5996 52.4999 47.7996 52.9999L52.8996 64.7999C52.9996 65.0999 53.2996 65.2999 53.5996 65.4999C53.8996 65.5999 54.1996 65.5999 54.4996 65.4999C55.1996 65.1999 55.4996 64.6999 55.3996 63.9999C55.1996 63.1999 55.5996 62.3999 56.2996 61.9999H56.3996C56.7996 61.8999 57.0996 61.7999 57.5996 61.9999C58.0996 62.1999 58.2996 62.5999 58.4996 62.8999L59.4996 65.0999C59.7996 65.6999 60.2996 65.9999 60.8996 65.8999C61.4996 65.7999 61.8996 65.2999 61.8996 64.5999V63.5999C61.9996 62.9999 62.3996 62.5999 62.7996 62.3999C63.2996 62.2999 63.5996 62.2999 64.0996 62.3999C64.5996 62.5999 64.7996 62.9999 64.9996 63.2999L65.8996 65.3999C66.1996 65.8999 66.6996 66.1999 67.1996 66.1999C67.7996 65.9999 68.1996 65.5999 68.2996 64.9999L68.3996 64.1999C68.3996 63.7999 68.4996 63.4999 68.7996 63.2999C68.9996 63.0999 69.2996 62.9999 69.4996 62.8999C69.8996 62.7999 70.2996 62.7999 70.6996 62.8999C71.1996 63.0999 71.3996 63.4999 71.5996 63.7999L75.5996 73.1999C77.2996 77.6999 75.7996 82.8999 71.8996 85.6999C71.0996 86.2999 69.7996 86.9999 68.6996 87.3999C67.3996 87.7999 65.8996 88.0999 64.2996 88.0999ZM59.4996 86.5999C62.4996 87.8999 65.7996 87.8999 68.6996 86.6999C69.6996 86.2999 70.9996 85.5999 71.7996 84.9999C75.4996 82.3999 76.9996 77.3999 75.2996 73.0999V72.9999L71.2996 63.7999C71.0996 63.4999 70.9996 63.2999 70.5996 63.0999C70.3996 62.9999 69.9996 62.9999 69.7996 63.0999C69.5996 63.1999 69.4996 63.2999 69.2996 63.3999C69.1996 63.4999 69.0996 63.7999 69.0996 63.9999L68.9996 64.7999C68.8996 65.5999 68.2996 66.1999 67.4996 66.3999C66.6996 66.4999 65.9996 66.0999 65.5996 65.3999L64.6996 63.2999C64.4996 62.9999 64.3996 62.7999 63.9996 62.5999C63.6996 62.4999 63.3996 62.4999 63.0996 62.5999C62.7996 62.6999 62.5996 63.0999 62.4996 63.3999V64.2999C62.4996 65.1999 61.8996 65.8999 61.0996 65.9999C60.2996 66.1999 59.4996 65.7999 59.0996 64.9999L58.0996 62.7999C57.8996 62.4999 57.7996 62.2999 57.3996 62.0999C57.0996 61.9999 56.8996 61.9999 56.5996 62.0999H56.4996C56.0996 62.2999 55.6996 62.8999 55.8996 63.4999C56.0996 64.3999 55.6996 65.2999 54.6996 65.5999C54.2996 65.7999 53.8996 65.7999 53.4996 65.5999C53.0996 65.3999 52.6996 65.0999 52.4996 64.6999L47.3996 52.8999C47.1996 52.4999 46.8996 52.1999 46.3996 51.9999C45.9996 51.7999 45.4996 51.7999 45.0996 51.9999C44.6996 52.1999 44.3996 52.4999 44.1996 52.8999C43.9996 53.2999 43.9996 53.7999 44.1996 54.1999L53.1996 74.9999C53.4996 75.6999 53.2996 76.4999 52.6996 76.9999C52.0996 77.4999 51.2996 77.4999 50.5996 77.0999L44.0996 72.9999C43.6996 72.6999 43.2996 72.5999 42.8996 72.6999C42.4996 72.7999 42.0996 72.9999 41.8996 73.3999C41.3996 74.0999 41.5996 75.1999 42.3996 75.6999C42.4996 75.6999 42.6996 75.7999 43.0996 76.0999C43.2996 76.1999 43.4996 76.3999 43.4996 76.3999L56.6996 84.5999L56.7996 84.6999C57.5996 85.4999 59.0996 86.3999 59.4996 86.5999Z" fill="white"/>
<path d="M55.8 69.0999C55.2 69.0999 54.7001 68.7999 54.4001 68.1999L52.2001 62.9999C51.9001 62.1999 52.2001 61.3999 53.0001 60.9999C53.8001 60.6999 54.6001 60.9999 55.0001 61.7999L57.2001 66.8999C57.5001 67.6999 57.2001 68.4999 56.4001 68.8999C56.2001 68.9999 56 69.0999 55.8 69.0999Z" fill="white"/>
<path d="M55.7998 69.2998C55.0998 69.2998 54.4998 68.8998 54.1998 68.2998L51.9998 63.0998C51.5998 62.1998 51.9998 61.1998 52.8998 60.7998C53.8998 60.3998 54.7998 60.7998 55.1998 61.6998L57.3998 66.7998C57.7998 67.6998 57.3998 68.6998 56.4998 69.0998C56.2998 69.1998 56.0998 69.2998 55.7998 69.2998ZM53.5998 61.0998C53.3998 61.0998 53.2998 61.0998 53.0998 61.1998C52.4998 61.4998 52.1998 62.1998 52.3998 62.8998L54.5998 68.0998C54.7998 68.5998 55.1998 68.7998 55.7998 68.7998C55.8998 68.7998 56.0998 68.6998 56.2998 68.5998C56.9998 68.2998 57.1998 67.5998 56.9998 66.8998L54.7998 61.7998C54.4998 61.3998 54.0998 61.0998 53.5998 61.0998Z" fill="white"/>
<path d="M61.8002 68.5C61.2002 68.5 60.7002 68.2 60.4002 67.6L58.4002 63.1C58.1002 62.3 58.4002 61.5 59.2002 61.1C60.0002 60.8 60.8002 61.1 61.2002 61.9L63.2002 66.4C63.5002 67.2 63.2002 68 62.4002 68.4C62.2002 68.4 62.0002 68.5 61.8002 68.5Z" fill="white"/>
<path d="M61.8 68.8C61.1 68.8 60.5 68.4 60.2 67.8L58.2 63.3C57.8 62.4 58.2 61.4 59.1 61C60.1 60.6 61 61 61.4 61.9L63.4 66.4C63.8 67.3 63.4 68.3 62.5 68.7H62.4C62.3 68.7 62.2 68.7 62.2 68.7C62.1 68.7 61.9 68.8 61.8 68.8ZM59.8 61.2C59.6 61.2 59.5 61.2 59.3 61.3C58.7 61.6 58.4 62.3 58.6 63L60.6 67.5C60.8 68 61.3 68.3 61.8 68.3C61.9 68.3 62 68.3 62 68.3C62.1 68.3 62.2 68.3 62.3 68.2C62.9 67.9 63.2 67.2 62.9 66.5L61 62C60.7 61.5 60.3 61.2 59.8 61.2Z" fill="white"/>
<path d="M67.8999 67.8998C67.2999 67.8998 66.7999 67.5998 66.4999 66.9998L64.9999 63.3998C64.6999 62.5998 64.9999 61.7998 65.7999 61.3998C66.5999 61.0998 67.3999 61.3998 67.7999 62.1998L69.3999 65.7998C69.6999 66.5998 69.3999 67.3998 68.5999 67.7998C68.2999 67.8998 68.0999 67.8998 67.8999 67.8998Z" fill="white"/>
<path d="M67.8996 68.1998C67.1996 68.1998 66.5996 67.7998 66.2996 67.1998L64.7996 63.5998C64.3996 62.6998 64.7996 61.6998 65.6996 61.2998C66.6996 60.8998 67.5996 61.2998 67.9996 62.1998L69.5996 65.7998C69.9996 66.6998 69.5996 67.6998 68.6996 68.0998C68.2996 68.1998 68.0996 68.1998 67.8996 68.1998ZM66.3996 61.4998C66.1996 61.4998 66.0996 61.4998 65.8996 61.5998C65.2996 61.8998 64.9996 62.5998 65.1996 63.2998L66.6996 66.8998C66.8996 67.3998 67.2996 67.5998 67.8996 67.5998C68.0996 67.5998 68.2996 67.5998 68.4996 67.4998C69.0996 67.1998 69.3996 66.4998 69.0996 65.7998L67.4996 62.1998C67.2996 61.7998 66.8996 61.4998 66.3996 61.4998Z" fill="white"/>
<path d="M53.3002 50.3998C52.7002 50.3998 52.2002 50.0998 51.9002 49.4998C51.6002 48.6998 51.9002 47.8998 52.7002 47.4998L56.4002 45.8998C57.2002 45.5998 58.0002 45.8998 58.4002 46.6998C58.7002 47.4998 58.4002 48.2998 57.6002 48.6998L53.9002 50.2998C53.7002 50.2998 53.5002 50.3998 53.3002 50.3998Z" fill="white"/>
<path d="M53.3 50.6998C52.6 50.6998 52 50.2998 51.7 49.6998C51.3 48.6998 51.7 47.7998 52.6 47.3998L56.3 45.7998C57.2 45.3998 58.2 45.7998 58.6 46.6998C59 47.6998 58.6 48.5998 57.7 48.9998L53.9 50.5998C53.8 50.5998 53.7 50.5998 53.7 50.5998C53.6 50.5998 53.4 50.6998 53.3 50.6998ZM57 45.9998C56.8 45.9998 56.7 45.9998 56.5 46.0998L52.8 47.6998C52.1 47.9998 51.9 48.6998 52.1 49.3998C52.3 49.8998 52.7 50.0998 53.3 50.0998C53.4 50.0998 53.5 50.0998 53.5 50.0998C53.6 50.0998 53.7 50.0998 53.8 49.9998L57.5 48.3998C58.2 48.0998 58.4 47.3998 58.2 46.6998C57.9 46.2998 57.5 45.9998 57 45.9998Z" fill="white"/>
<path d="M48.9004 45.3999C48.7004 45.3999 48.5004 45.3999 48.4004 45.2999C47.6004 44.9999 47.3004 44.0999 47.6004 43.3999L49.1004 39.5999C49.4004 38.7999 50.3004 38.4999 51.0004 38.7999C51.8004 39.0999 52.1004 39.9999 51.8004 40.6999L50.3004 44.4999C50.0004 45.0999 49.5004 45.3999 48.9004 45.3999Z" fill="white"/>
<path d="M48.9 45.6C48.7 45.6 48.4 45.6 48.3 45.5C47.9 45.3 47.6 45 47.4 44.6C47.2 44.2 47.2 43.7 47.4 43.3L48.9 39.5C49.1 39.1 49.4 38.7 49.8 38.6C50.2 38.4 50.7 38.4 51.1 38.6C51.5 38.8 51.8 39.1 52 39.5C52.2 39.9 52.2 40.4 52 40.8L50.5 44.6C50.2 45.3 49.6 45.6 48.9 45.6ZM50.4 38.9C50.2 38.9 50.1 38.9 49.9 39C49.6 39.1 49.4 39.4 49.3 39.7L47.8 43.5C47.7 43.8 47.7 44.1 47.8 44.4C47.9 44.7 48.2 44.9 48.5 45L48.6 45.1C48.6 45.1 48.8 45.1 48.9 45.1C49.4 45.1 49.8 44.8 50.1 44.3L51.6 40.5C51.7 40.2 51.7 39.9 51.6 39.6C51.5 39.3 51.2 39.1 50.9 39C50.8 39 50.6 38.9 50.4 38.9Z" fill="white"/>
<path d="M42.3006 45.0999C41.7006 45.0999 41.2006 44.7999 40.9006 44.1999L39.3006 40.4999C39.0006 39.6999 39.3006 38.8999 40.1006 38.4999C40.9006 38.1999 41.7006 38.4999 42.1006 39.2999L43.7006 42.9999C44.0006 43.7999 43.7006 44.5999 42.9006 44.9999C42.7006 44.9999 42.5006 45.0999 42.3006 45.0999Z" fill="white"/>
<path d="M42.3004 45.3999C41.6004 45.3999 41.0004 44.9999 40.7004 44.3999L39.1004 40.6999C38.7004 39.7999 39.1004 38.7999 40.0004 38.3999C41.0004 37.9999 41.9004 38.3999 42.3004 39.2999L43.9004 42.9999C44.3004 43.8999 43.9004 44.8999 43.0004 45.2999H42.9004C42.8004 45.2999 42.7004 45.2999 42.7004 45.2999C42.6004 45.2999 42.4004 45.3999 42.3004 45.3999ZM40.7004 38.5999C40.5004 38.5999 40.4004 38.5999 40.2004 38.6999C39.6004 38.9999 39.3004 39.6999 39.5004 40.3999L41.1004 44.0999C41.3004 44.5999 41.8004 44.7999 42.3004 44.7999C42.4004 44.7999 42.5004 44.7999 42.5004 44.7999C42.6004 44.7999 42.7004 44.7999 42.8004 44.6999C43.4004 44.3999 43.7004 43.6999 43.4004 42.9999L41.8004 39.2999C41.6004 38.8999 41.2004 38.5999 40.7004 38.5999Z" fill="white"/>
<path d="M37.301 49.5001C37.101 49.5001 36.901 49.5001 36.701 49.4001L33.001 47.9001C32.201 47.6001 31.901 46.7001 32.201 46.0001C32.501 45.2001 33.401 44.9001 34.101 45.2001L37.901 46.7001C38.701 47.0001 39.001 47.9 38.701 48.6C38.501 49.1 37.901 49.5001 37.301 49.5001Z" fill="white"/>
<path d="M37.3006 49.8C37.1006 49.8 36.8006 49.8 36.6006 49.7L32.9006 48.2C32.5006 48 32.1006 47.7 32.0006 47.3C31.8006 46.9 31.8006 46.4 32.0006 46C32.2006 45.6 32.5006 45.3 32.9006 45.1C33.3006 44.9 33.8006 44.9 34.2006 45.1L38.0006 46.6C38.4006 46.8 38.8006 47.1 38.9006 47.5C39.1006 47.9 39.1006 48.4 38.9006 48.8C38.7006 49.3 38.0006 49.8 37.3006 49.8ZM33.5006 45.3C33.3006 45.3 33.2006 45.3 33.0006 45.4C32.7006 45.5 32.5006 45.8 32.4006 46.1C32.3006 46.4 32.3006 46.8 32.4006 47.1C32.5006 47.4 32.8006 47.6 33.1006 47.7L36.8006 49.2C37.0006 49.3 37.1006 49.3 37.3006 49.3C37.8006 49.3 38.3006 49 38.5006 48.6C38.6006 48.3 38.6006 48 38.5006 47.7C38.4006 47.4 38.1006 47.2 37.8006 47.1L34.0006 45.4C33.9006 45.4 33.7006 45.3 33.5006 45.3Z" fill="white"/>
<path d="M33.2006 57.6998C32.6006 57.6998 32.1006 57.3998 31.8006 56.7998C31.5006 55.9998 31.8006 55.1998 32.6006 54.7998L36.3006 53.1998C37.1006 52.8998 37.9006 53.1998 38.3006 53.9998C38.6006 54.7998 38.3006 55.5998 37.5006 55.9998L33.8006 57.5998C33.7006 57.5998 33.4006 57.6998 33.2006 57.6998Z" fill="white"/>
<path d="M33.2004 57.9999C32.5004 57.9999 31.9004 57.5999 31.6004 56.9999C31.2004 55.9999 31.6004 55.0999 32.5004 54.6999L36.2004 53.0999C37.1004 52.6999 38.1004 53.0999 38.5004 53.9999C38.9004 54.9999 38.5004 55.8999 37.6004 56.2999L33.8004 57.8999H33.7004C33.5004 57.8999 33.3004 57.9999 33.2004 57.9999ZM36.9004 53.2999C36.7004 53.2999 36.6004 53.2999 36.4004 53.3999L32.7004 54.9999C32.0004 55.2999 31.8004 55.9999 32.0004 56.6999C32.2004 57.1999 32.6004 57.3999 33.2004 57.3999C33.3004 57.3999 33.4004 57.3999 33.5004 57.2999C33.6004 57.2999 33.6004 57.2999 33.7004 57.2999L37.4004 55.6999C38.1004 55.3999 38.3004 54.6999 38.1004 53.9999C37.8004 53.5999 37.4004 53.2999 36.9004 53.2999Z" fill="white"/>
<path d="M43.2996 88.9H29.1996C24.6996 88.9 21.0996 85.3 21.0996 80.8V17.3C21.0996 12.8 24.6996 9.19995 29.1996 9.19995H59.5996C64.0996 9.19995 67.6996 12.8 67.6996 17.3V53.7C67.6996 54.5 66.9996 55.2 66.1996 55.2C65.3996 55.2 64.6996 54.5 64.6996 53.7V17.3C64.6996 14.5 62.3996 12.2 59.5996 12.2H29.1996C26.3996 12.2 24.0996 14.5 24.0996 17.3V80.8C24.0996 83.6 26.3996 85.9 29.1996 85.9H43.2996C44.0996 85.9 44.7996 86.6 44.7996 87.4C44.7996 88.2 44.1996 88.9 43.2996 88.9Z" fill="white"/>
<path d="M43.2998 89.2H29.1998C24.5998 89.2 20.7998 85.5 20.7998 80.8V17.3C20.7998 12.7 24.4998 9 29.1998 9H59.5998C64.1998 9 67.9998 12.7 67.9998 17.3V53.7C67.9998 54.6 67.1998 55.5 66.1998 55.5C65.1998 55.5 64.3998 54.7 64.3998 53.7V17.3C64.3998 14.6 62.1998 12.5 59.4998 12.5H29.1998C26.4998 12.5 24.2998 14.7 24.2998 17.3V80.8C24.2998 83.5 26.4998 85.7 29.1998 85.7H43.2998C44.1998 85.7 45.0998 86.5 45.0998 87.5C44.9998 88.4 44.2998 89.2 43.2998 89.2ZM29.1998 9.5C24.8998 9.5 21.2998 13 21.2998 17.3V80.8C21.2998 85.1 24.7998 88.7 29.1998 88.7H43.2998C44.0998 88.7 44.5998 88.1 44.5998 87.4C44.5998 86.7 43.9998 86.1 43.2998 86.1H29.1998C26.1998 86.1 23.7998 83.7 23.7998 80.7V17.3C23.7998 14.4 26.1998 12 29.1998 12H59.5998C62.5998 12 64.9998 14.4 64.9998 17.3V53.7C64.9998 54.4 65.5998 55 66.2998 55C66.9998 55 67.5998 54.4 67.5998 53.7V17.3C67.5998 13 64.0998 9.5 59.6998 9.5H29.1998Z" fill="white"/>
<path d="M49.0994 20.3H39.8994C39.0994 20.3 38.3994 19.6 38.3994 18.8C38.3994 18 39.0994 17.3 39.8994 17.3H49.0994C49.8994 17.3 50.5994 18 50.5994 18.8C50.5994 19.6 49.8994 20.3 49.0994 20.3Z" fill="white"/>
<path d="M49.0996 20.5H39.8996C38.9996 20.5 38.0996 19.7 38.0996 18.7C38.0996 17.7 38.9996 17 39.8996 17H49.0996C49.9996 17 50.7996 17.8 50.7996 18.8C50.7996 19.8 49.9996 20.5 49.0996 20.5ZM39.8996 17.5C39.1996 17.5 38.5996 18.1 38.5996 18.8C38.5996 19.5 39.1996 20.1 39.8996 20.1H49.0996C49.7996 20.1 50.2996 19.5 50.2996 18.8C50.2996 18.1 49.6996 17.5 49.0996 17.5H39.8996Z" fill="white"/>
</svg>
