<svg width="100" height="100" viewBox="0 0 100 100" fill="none" xmlns="http://www.w3.org/2000/svg">
<path d="M42.3998 10.9999C42.5998 10.7999 42.8998 10.6999 43.1998 10.6999C43.4998 10.6999 43.7998 10.7999 43.9998 10.9999L63.7998 30.7999C64.9998 31.9999 65.5998 33.5999 65.5998 35.1999V86.8999C65.5998 88.1999 64.4998 89.2999 63.1998 89.2999H23.1998C21.8998 89.2999 20.7998 88.1999 20.7998 86.8999V35.1999C20.7998 33.4999 21.4998 31.8999 22.5998 30.7999L42.3998 10.9999ZM23.1998 92.1999H63.2998C66.1998 92.1999 68.5998 89.7999 68.5998 86.8999V35.1999C68.5998 32.7999 67.5998 30.3999 65.8998 28.6999L46.0998 8.8999C44.5998 7.3999 41.8998 7.3999 40.3998 8.8999L20.4998 28.6999C18.7998 30.3999 17.7998 32.7999 17.7998 35.1999V86.8999C17.7998 89.7999 20.1998 92.1999 23.1998 92.1999Z" fill="white"/>
<path d="M63.3 92.5H23.2C20.1 92.5 17.5 90 17.5 87V35.2C17.5 32.7 18.5 30.3 20.3 28.5L40.2 8.7C41 7.9 42.1 7.5 43.2 7.5C44.3 7.5 45.5 7.9 46.2 8.7L66 28.5C67.8 30.3 68.8 32.7 68.8 35.2V86.9C68.8 90 66.4 92.5 63.3 92.5ZM43.3 8C42.3 8 41.3 8.3 40.6 9L20.7 28.9C19.1 30.5 18.1 32.9 18.1 35.2V86.9C18.1 89.7 20.4 91.9 23.3 91.9H63.4C66.2 91.9 68.4 89.6 68.4 86.9V35.2C68.4 32.9 67.4 30.5 65.8 28.9L45.9 9.1C45.2 8.4 44.2 8 43.3 8ZM63.2 89.5H23.2C21.8 89.5 20.5 88.3 20.5 86.9V35.2C20.5 33.5 21.2 31.8 22.4 30.6L42.2 10.8C42.7 10.3 43.7 10.3 44.2 10.8L64 30.6C65.2 31.8 65.9 33.4 65.9 35.2V86.9C65.8 88.3 64.6 89.5 63.2 89.5ZM43.2 11C43 11 42.7 11.1 42.6 11.2L22.8 31C21.7 32.1 21.1 33.6 21.1 35.2V86.9C21.1 88.1 22.1 89 23.3 89H63.3C64.5 89 65.4 88 65.4 86.9V35.2C65.4 33.6 64.8 32.1 63.7 31L43.8 11.2C43.7 11 43.4 11 43.2 11Z" fill="white"/>
<path d="M63.3002 92.3999H23.2002C20.2002 92.3999 17.7002 89.8999 17.7002 86.8999V35.1999C17.7002 32.6999 18.7002 30.2999 20.4002 28.5999L40.3002 8.79985C41.1002 7.99985 42.1002 7.59985 43.3002 7.59985C44.4002 7.59985 45.5002 7.99985 46.3002 8.79985L66.0002 28.5999C67.7002 30.2999 68.7002 32.7999 68.7002 35.1999V86.8999C68.8002 89.8999 66.3002 92.3999 63.3002 92.3999ZM43.2002 7.89985C42.1002 7.89985 41.1002 8.29985 40.4002 8.99985L20.6002 28.7999C18.9002 30.4999 17.9002 32.7999 17.9002 35.1999V86.8999C17.9002 89.7999 20.2002 92.0999 23.1002 92.0999H63.2002C66.1002 92.0999 68.4002 89.7999 68.4002 86.8999V35.1999C68.4002 32.7999 67.4002 30.4999 65.7002 28.7999L46.0002 8.99985C45.3002 8.29985 44.3002 7.89985 43.2002 7.89985ZM63.3002 89.4999H23.2002C21.8002 89.4999 20.6002 88.3999 20.6002 86.8999V35.1999C20.6002 33.4999 21.3002 31.7999 22.5002 30.5999L42.3002 10.7999C42.7002 10.3999 43.5002 10.2999 44.0002 10.6999L44.2002 10.8999L64.0002 30.6999C65.2002 31.8999 65.9002 33.5999 65.9002 35.2999V86.9999C65.8002 88.2999 64.7002 89.4999 63.3002 89.4999ZM43.2002 10.7999C42.9002 10.7999 42.7002 10.8999 42.5002 11.0999L22.7002 30.8999C21.6002 31.9999 20.9002 33.5999 20.9002 35.1999V86.8999C20.9002 88.0999 21.9002 89.1999 23.2002 89.1999H63.3002C64.5002 89.1999 65.6002 88.1999 65.6002 86.8999V35.1999C65.6002 33.5999 64.9002 31.9999 63.8002 30.8999L43.9002 11.0999C43.7002 10.8999 43.5002 10.7999 43.2002 10.7999Z" fill="white"/>
<path d="M63.3004 92.6999H23.2004C20.1004 92.6999 17.4004 90.0999 17.4004 86.8999V35.1999C17.4004 32.6999 18.4004 30.1999 20.2004 28.3999L40.1004 8.5999C41.0004 7.7999 42.0004 7.3999 43.3004 7.3999C44.5004 7.3999 45.7004 7.8999 46.5004 8.6999L66.2004 28.4999C67.9004 30.1999 69.0004 32.7999 69.0004 35.2999V86.9999C69.0004 88.4999 68.5004 89.8999 67.4004 90.9999C66.3004 91.9999 64.8004 92.6999 63.3004 92.6999ZM43.2004 8.0999C42.2004 8.0999 41.2004 8.4999 40.6004 9.0999L20.8004 28.9999C19.1004 30.6999 18.2004 32.8999 18.2004 35.1999V86.8999C18.2004 89.6999 20.4004 91.7999 23.2004 91.7999H63.3004C66.1004 91.7999 68.3004 89.5999 68.3004 86.8999V35.1999C68.3004 32.8999 67.3004 30.5999 65.7004 28.9999L45.8004 9.1999C45.2004 8.4999 44.2004 8.0999 43.2004 8.0999ZM63.3004 89.7999H23.2004C21.6004 89.7999 20.3004 88.4999 20.3004 86.9999V35.1999C20.3004 33.3999 21.0004 31.6999 22.3004 30.3999L42.1004 10.5999C42.6004 10.0999 43.5004 9.9999 44.1004 10.4999L44.3004 10.6999L64.1004 30.4999C65.4004 31.7999 66.1004 33.4999 66.1004 35.2999V86.9999C66.0004 88.4999 64.8004 89.7999 63.3004 89.7999ZM43.2004 10.9999C43.0004 10.9999 42.8004 11.0999 42.7004 11.1999L22.9004 31.0999C21.8004 32.1999 21.2004 33.6999 21.2004 35.1999V86.8999C21.2004 87.9999 22.1004 88.8999 23.3004 88.8999H63.4004C64.5004 88.8999 65.4004 87.9999 65.4004 86.8999V35.1999C65.4004 33.6999 64.8004 32.1999 63.7004 31.0999L43.7004 11.2999C43.6004 11.0999 43.4004 10.9999 43.2004 10.9999Z" fill="white"/>
<path d="M36.2012 25.1001C36.2012 29.1001 39.4012 32.3001 43.4012 32.3001C47.4012 32.3001 50.6012 29.1001 50.6012 25.1001C50.6012 21.1001 47.4012 17.9001 43.4012 17.9001C39.4012 17.9001 36.2012 21.1001 36.2012 25.1001ZM39.1012 25.1001C39.1012 22.8001 41.0012 20.9001 43.3012 20.9001C45.6012 20.9001 47.6012 22.8001 47.6012 25.1001C47.6012 27.4001 45.7012 29.4001 43.3012 29.4001C41.0012 29.3001 39.1012 27.4001 39.1012 25.1001Z" fill="white"/>
<path d="M43.401 32.5001C39.301 32.5001 36.001 29.2001 36.001 25.1001C36.001 21.0001 39.301 17.6001 43.401 17.6001C47.501 17.6001 50.801 20.9001 50.801 25.1001C50.801 29.3001 47.501 32.5001 43.401 32.5001ZM43.401 18.1001C39.601 18.1001 36.501 21.2001 36.501 25.1001C36.501 28.9001 39.601 32.0001 43.401 32.0001C47.201 32.0001 50.301 28.9001 50.301 25.1001C50.301 21.3001 47.201 18.1001 43.401 18.1001ZM43.301 29.6001C40.801 29.5001 38.901 27.5001 38.901 25.1001C38.901 22.6001 40.901 20.6001 43.301 20.6001C45.801 20.6001 47.901 22.6001 47.901 25.1001C47.901 27.6001 45.801 29.6001 43.301 29.6001ZM43.301 21.1001C41.101 21.1001 39.401 22.9001 39.401 25.1001C39.401 27.2001 41.201 29.1001 43.401 29.1001C45.601 29.1001 47.401 27.2001 47.401 25.1001C47.401 23.0001 45.501 21.1001 43.301 21.1001Z" fill="white"/>
<path d="M43.301 32.4001C39.301 32.4001 36.001 29.1 36.001 25.1C36.001 21.1 39.301 17.8 43.301 17.8C47.301 17.8 50.601 21.1 50.601 25.1C50.701 29.1 47.401 32.4001 43.301 32.4001ZM43.301 18C39.401 18 36.301 21.2 36.301 25C36.301 28.9 39.501 32 43.301 32C47.201 32 50.301 28.8 50.301 25C50.401 21.2 47.201 18 43.301 18ZM43.301 29.5C40.901 29.5 38.901 27.5 38.901 25.1C38.901 22.7 40.901 20.7001 43.301 20.7001C45.701 20.7001 47.701 22.7 47.701 25.1C47.701 27.5 45.801 29.5 43.301 29.5ZM43.301 21C41.001 21 39.201 22.8 39.201 25.1C39.201 27.4001 41.001 29.2001 43.301 29.2001C45.601 29.2001 47.401 27.4001 47.401 25.1C47.401 22.8 45.601 21 43.301 21Z" fill="white"/>
<path d="M43.3008 32.6C39.1008 32.6 35.8008 29.2 35.8008 25.1C35.8008 21 39.2008 17.5 43.3008 17.5C47.4008 17.5 50.8008 20.9 50.8008 25.1C50.8008 27.1 50.1008 28.9 48.7008 30.4C47.3008 31.8 45.4008 32.6 43.3008 32.6ZM43.3008 18.3C39.6008 18.3 36.5008 21.3 36.5008 25.1C36.5008 28.9 39.5008 31.9 43.3008 31.9C47.1008 31.9 50.1008 28.9 50.1008 25.1C50.1008 23.4 49.5008 21.7 48.2008 20.4C46.9008 19 45.1008 18.3 43.3008 18.3ZM43.3008 29.8C40.8008 29.8 38.7008 27.7 38.7008 25.2C38.7008 22.7 40.8008 20.6 43.3008 20.6C45.8008 20.6 48.0008 22.7 48.0008 25.2C48.0008 27.7 45.9008 29.8 43.3008 29.8ZM43.3008 21.3C41.1008 21.3 39.5008 23 39.5008 25.2C39.5008 27.4 41.2008 29.1 43.3008 29.1C45.4008 29.1 47.2008 27.4 47.2008 25.2C47.2008 23 45.5008 21.3 43.3008 21.3Z" fill="white"/>
<path d="M37.3998 72.6001C38.3998 75.0001 40.5998 76.5001 43.1998 76.5001C46.6998 76.5001 49.4998 73.7001 49.4998 70.2001C49.4998 66.7001 46.6998 63.9001 43.1998 63.9001C41.3998 63.9001 39.8998 62.4001 39.8998 60.6001C39.8998 58.8001 41.3998 57.3001 43.1998 57.3001C44.4998 57.3001 45.6998 58.1001 46.1998 59.3001C46.4998 60.0001 47.3998 60.4001 48.0998 60.0001C48.7998 59.7001 49.1998 58.8001 48.7998 58.1001C47.7998 55.8001 45.5998 54.4001 43.0998 54.4001C39.5998 54.4001 36.7998 57.2001 36.7998 60.7001C36.7998 64.2001 39.5998 67.0001 43.0998 67.0001C44.8998 67.0001 46.3998 68.5001 46.3998 70.3001C46.3998 72.1001 44.8998 73.6001 43.0998 73.6001C41.6998 73.6001 40.4998 72.8001 39.9998 71.5001C39.6998 70.7001 38.7998 70.4001 38.0998 70.7001C37.4998 71.0001 37.0998 71.8001 37.3998 72.6001Z" fill="white"/>
<path d="M43.2 76.8001C40.5 76.8001 38.2 75.2 37.2 72.7C36.8 71.8 37.3 70.8 38 70.5C38.4 70.3 38.9 70.3 39.3 70.5C39.7 70.7001 40 71.0001 40.2 71.4001C40.7 72.6001 41.8 73.3001 43.1 73.3001C44.8 73.3001 46.1 71.9001 46.1 70.3001C46.1 68.7001 44.7 67.3001 43.1 67.3001C39.5 67.3001 36.5 64.4 36.5 60.8C36.5 57.2 39.4 54.3 43.1 54.3C45.7 54.3 48 55.8 49 58.1C49.2 58.4 49.2 58.9 49.1 59.3C48.9 59.8 48.6 60.1 48.2 60.3C47.9 60.5 47.4 60.5001 47 60.4001C46.5 60.2001 46.2 59.9 46 59.5C45.5 58.4 44.4 57.7001 43.2 57.7001C41.5 57.7001 40.1 59.1001 40.1 60.7001C40.1 62.3001 41.5 63.8 43.2 63.8C46.8 63.8 49.7 66.7001 49.7 70.3001C49.7 73.9001 46.8 76.8001 43.2 76.8001ZM37.6 72.5C38.6 74.8 40.7 76.2 43.2 76.2C46.5 76.2 49.2 73.5 49.2 70.2C49.2 66.9 46.5 64.2 43.2 64.2C41.3 64.2 39.6 62.6 39.6 60.6C39.6 58.7 41.2 57.1 43.2 57.1C44.6 57.1 45.9 58 46.4 59.3C46.5 59.6 46.8 59.8001 47.1 59.9001C47.4 60.0001 47.7 60 47.9 59.8C48.2 59.7 48.5 59.4 48.6 59.1C48.7 58.8 48.7 58.5 48.5 58.3C47.5 56.1 45.4 54.7001 43 54.7001C39.7 54.7001 36.9 57.4001 36.9 60.7001C36.9 64.0001 39.6 66.7 43 66.7C44.9 66.7 46.5 68.3 46.5 70.2C46.5 72.1 44.9 73.7 43 73.7C41.5 73.7 40.2 72.8001 39.7 71.4001C39.6 71.1001 39.4 70.9 39.1 70.7C38.8 70.6 38.5 70.6 38.2 70.7C37.7 71.2 37.4 71.8 37.6 72.5Z" fill="white"/>
<path d="M43.1998 76.7C40.5998 76.7 38.1998 75.1 37.1998 72.7C36.8998 71.9 37.2998 70.9 38.0998 70.6C38.4998 70.4 38.8998 70.4 39.2998 70.6C39.6998 70.8 39.9998 71.1 40.1998 71.5C40.6998 72.7001 41.7998 73.5 43.1998 73.5C44.9998 73.5 46.3998 72.1001 46.3998 70.3001C46.3998 68.5001 44.9998 67.1 43.1998 67.1C39.6998 67.1 36.7998 64.2001 36.7998 60.7001C36.7998 57.2001 39.6998 54.3 43.1998 54.3C45.6998 54.3 47.9998 55.8 49.0998 58.1C49.2998 58.5 49.2998 58.9 49.0998 59.3C48.8998 59.7 48.5998 60.0001 48.1998 60.2001C47.7998 60.4001 47.3998 60.4001 46.9998 60.2001C46.5998 60.0001 46.2998 59.7 46.0998 59.3C45.5998 58.2 44.4998 57.4001 43.1998 57.4001C41.3998 57.4001 39.9998 58.8 39.9998 60.6C39.9998 62.4 41.3998 63.8 43.1998 63.8C46.6998 63.8 49.5998 66.7 49.5998 70.2C49.5998 73.7 46.7998 76.7 43.1998 76.7ZM37.4998 72.5C38.3998 74.8 40.6998 76.3001 43.1998 76.3001C46.5998 76.3001 49.2998 73.6 49.2998 70.2C49.2998 66.8 46.5998 64.1 43.1998 64.1C41.2998 64.1 39.6998 62.5 39.6998 60.6C39.6998 58.7 41.2998 57.1 43.1998 57.1C44.5998 57.1 45.7998 57.9001 46.3998 59.2001C46.4998 59.5001 46.7998 59.7001 47.0998 59.9001C47.3998 60.0001 47.7998 60.0001 48.0998 59.9001C48.3998 59.8001 48.6998 59.5001 48.7998 59.2001C48.8998 58.9001 48.8998 58.5001 48.7998 58.2001C47.7998 56.0001 45.5998 54.6 43.1998 54.6C39.7998 54.6 37.0998 57.3001 37.0998 60.7001C37.0998 64.1 39.7998 66.8001 43.1998 66.8001C45.0998 66.8001 46.6998 68.4001 46.6998 70.3001C46.6998 72.2001 45.0998 73.8001 43.1998 73.8001C41.7998 73.8001 40.4998 72.9 39.9998 71.6C39.8998 71.3 39.5998 71.0001 39.2998 70.9001C38.9998 70.8001 38.5998 70.8001 38.2998 70.9001C37.5998 71.1001 37.2998 71.8 37.4998 72.5Z" fill="white"/>
<path d="M43.2 77C40.5 77 38 75.3 37 72.8C36.6 71.8 37.1 70.7 38 70.4C38.4 70.2 38.9 70.2 39.4 70.4C39.8 70.6 40.2 71 40.4 71.4C40.9 72.6 41.9 73.3 43.2 73.3C44.9 73.3 46.1 72 46.1 70.3C46.1 68.6 44.8 67.3 43.2 67.3C39.5 67.3 36.5 64.3 36.5 60.7C36.5 57 39.5 54 43.2 54C45.8 54 48.2 55.5 49.3 57.9C49.5 58.4 49.5 58.8 49.3 59.3C49.1 59.7 48.7 60.1 48.3 60.3C47.8 60.5 47.3 60.5 46.9 60.3C46.5 60.1 46.1 59.7 45.9 59.3C45.4 58.2 44.4 57.5 43.2 57.5C41.5 57.5 40.2 58.8 40.2 60.4C40.2 62.1 41.5 63.4 43.2 63.4C46.9 63.4 49.8 66.4 49.8 70.1C49.9 73.9 46.9 77 43.2 77ZM37.7 72.4C38.6 74.6 40.7 76 43.2 76C46.5 76 49 73.4 49 70.2C49 67 46.4 64.3 43.2 64.3C41.2 64.3 39.4 62.6 39.4 60.5C39.4 58.4 41.1 56.7 43.2 56.7C44.7 56.7 46 57.5 46.6 58.9C46.7 59.1 46.9 59.3 47.2 59.5C47.4 59.6 47.8 59.6 48 59.5C48.2 59.4 48.5 59.2 48.5 59C48.6 58.8 48.6 58.4 48.5 58.2C47.6 56.1 45.4 54.8 43.1 54.8C39.8 54.8 37.2 57.4 37.2 60.7C37.2 64 39.8 66.5 43.1 66.5C45.1 66.5 46.9 68.2 46.9 70.3C46.9 72.4 45.2 74 43.2 74C41.7 74 40.3 73.1 39.8 71.6C39.7 71.4 39.5 71.1 39.3 71C39.1 70.9 38.7 70.9 38.5 71C38.2 71.1 38.1 71.2 37.9 71.4C37.7 71.8 37.7 72.1 37.7 72.4Z" fill="white"/>
<path d="M41.8008 55.8999C41.8008 56.6999 42.5008 57.3999 43.3008 57.3999C44.1008 57.3999 44.8008 56.6999 44.8008 55.8999V53.3999C44.8008 52.5999 44.1008 51.8999 43.3008 51.8999C42.5008 51.8999 41.8008 52.5999 41.8008 53.3999V55.8999Z" fill="white"/>
<path d="M43.301 57.6999C42.401 57.6999 41.501 56.8999 41.501 55.8999V53.3999C41.501 52.4999 42.301 51.5999 43.301 51.5999C44.301 51.5999 45.101 52.3999 45.101 53.3999V55.8999C45.001 56.7999 44.201 57.6999 43.301 57.6999ZM43.301 52.1999C42.601 52.1999 42.001 52.7999 42.001 53.4999V55.9999C42.001 56.6999 42.601 57.2999 43.301 57.2999C44.001 57.2999 44.601 56.6999 44.601 55.9999V53.4999C44.501 52.6999 44.001 52.1999 43.301 52.1999Z" fill="white"/>
<path d="M43.2006 57.4998C42.3006 57.4998 41.6006 56.7998 41.6006 55.8998V53.3998C41.6006 52.4998 42.3006 51.7998 43.2006 51.7998C44.1006 51.7998 44.8006 52.4998 44.8006 53.3998V55.8998C44.8006 56.6998 44.1006 57.4998 43.2006 57.4998ZM43.2006 51.9998C42.5006 51.9998 41.9006 52.5998 41.9006 53.2998V55.7998C41.9006 56.4998 42.5006 57.0998 43.2006 57.0998C43.9006 57.0998 44.5006 56.4998 44.5006 55.7998V53.2998C44.5006 52.5998 44.0006 51.9998 43.2006 51.9998Z" fill="white"/>
<path d="M43.2008 57.7999C42.2008 57.7999 41.3008 56.9999 41.3008 55.9999V53.4999C41.3008 52.4999 42.1008 51.5999 43.2008 51.5999C44.2008 51.5999 45.0008 52.3999 45.0008 53.4999V55.9999C45.0008 56.8999 44.2008 57.7999 43.2008 57.7999ZM43.2008 52.2999C42.6008 52.2999 42.1008 52.7999 42.1008 53.2999V55.7999C42.1008 56.3999 42.6008 56.7999 43.2008 56.7999C43.8008 56.7999 44.2008 56.2999 44.2008 55.7999V53.2999C44.3008 52.7999 43.9008 52.2999 43.2008 52.2999Z" fill="white"/>
<path d="M41.8008 77.6C41.8008 78.4 42.5008 79.1 43.3008 79.1C44.1008 79.1 44.8008 78.4 44.8008 77.6V75C44.8008 74.2 44.1008 73.5 43.3008 73.5C42.5008 73.5 41.8008 74.2 41.8008 75V77.6Z" fill="white"/>
<path d="M43.301 79.3C42.401 79.3 41.501 78.5 41.501 77.5V75C41.501 74.1 42.301 73.2 43.301 73.2C44.301 73.2 45.001 74.1 45.001 75V77.6C45.001 78.5 44.201 79.3 43.301 79.3ZM43.301 73.8C42.601 73.8 42.001 74.4 42.001 75.1V77.7C42.001 78.4 42.601 79 43.301 79C44.001 79 44.601 78.4 44.601 77.7V75C44.501 74.3 44.001 73.8 43.301 73.8Z" fill="white"/>
<path d="M43.2006 79.1999C42.3006 79.1999 41.6006 78.4999 41.6006 77.5999V74.9999C41.6006 74.0999 42.3006 73.3999 43.2006 73.3999C44.1006 73.3999 44.8006 74.0999 44.8006 74.9999V77.4999C44.8006 78.4999 44.1006 79.1999 43.2006 79.1999ZM43.2006 73.6999C42.5006 73.6999 41.9006 74.2999 41.9006 74.9999V77.4999C41.9006 78.1999 42.5006 78.7999 43.2006 78.7999C43.9006 78.7999 44.5006 78.1999 44.5006 77.4999V74.9999C44.5006 74.2999 44.0006 73.6999 43.2006 73.6999Z" fill="white"/>
<path d="M43.2008 79.5C42.2008 79.5 41.3008 78.7 41.3008 77.6V75C41.3008 74 42.1008 73.2 43.2008 73.2C44.2008 73.2 45.0008 74 45.0008 75V77.5C45.0008 78.6 44.3008 79.5 43.2008 79.5ZM43.2008 74C42.6008 74 42.1008 74.5 42.1008 75V77.5C42.1008 78.1 42.6008 78.5 43.2008 78.5C43.8008 78.5 44.2008 78 44.2008 77.5V75C44.3008 74.5 43.9008 74 43.2008 74Z" fill="white"/>
<path d="M62.4 29.8998C59 29.8998 42 29.6998 42 25.0998C42 24.3998 42.6 23.7998 43.3 23.7998C43.9 23.7998 44.5 24.2998 44.6 24.8998C45.5 25.7998 51.6 27.3998 62.5 27.3998C72.6 27.3998 78.6 25.9998 80.1 25.0998C78.6 24.1998 72.6 22.7998 62.5 22.7998C60.6 22.7998 58.7 22.8998 57 22.9998C56.3 22.9998 55.7 22.4998 55.7 21.7998C55.7 21.0998 56.2 20.4998 56.9 20.4998C58.7 20.3998 60.6 20.2998 62.6 20.2998C66 20.2998 83 20.4998 83 25.0998C82.8 29.6998 65.8 29.8998 62.4 29.8998Z" fill="white"/>
<path d="M62.4002 30.0999C57.6002 30.0999 41.7002 29.6999 41.7002 25.0999C41.7002 24.2999 42.4002 23.4999 43.2002 23.4999C43.9002 23.4999 44.6002 23.9999 44.7002 24.6999C45.7002 25.5999 51.8002 27.0999 62.4002 27.0999C71.6002 27.0999 77.4002 25.8999 79.4002 25.0999C77.4002 24.1999 71.6002 22.9999 62.4002 22.9999C60.5002 22.9999 58.6002 23.0999 56.9002 23.1999C56.0002 23.1999 55.3002 22.5999 55.3002 21.7999C55.3002 20.8999 55.9002 20.2999 56.8002 20.2999C58.8002 20.1999 60.6002 20.0999 62.5002 20.0999C67.3002 20.0999 83.2002 20.4999 83.2002 25.1999C83.0002 29.7999 67.2002 30.0999 62.4002 30.0999ZM43.3002 23.9999C42.7002 23.9999 42.3002 24.4999 42.3002 25.0999C42.3002 28.4999 53.2002 29.5999 62.5002 29.5999C71.8002 29.5999 82.7002 28.3999 82.8002 24.9999C82.8002 21.6999 71.9002 20.4999 62.6002 20.4999C60.7002 20.4999 58.9002 20.5999 56.9002 20.6999C56.4002 20.6999 55.9002 21.1999 55.9002 21.7999C55.9002 22.2999 56.4002 22.7999 56.9002 22.7999C58.5002 22.6999 60.5002 22.5999 62.4002 22.5999C72.6002 22.5999 78.6002 23.9999 80.1002 24.8999L80.5002 25.0999L80.1002 25.2999C78.5002 26.1999 72.5002 27.5999 62.4002 27.5999C51.8002 27.5999 45.4002 26.0999 44.3002 24.9999H44.4002V24.8999C44.3002 24.4999 43.8002 23.9999 43.3002 23.9999Z" fill="white"/>
</svg>
