<svg width="94" height="94" viewBox="0 0 94 94" fill="none" xmlns="http://www.w3.org/2000/svg">
<path d="M65.8001 84.2239C65.2361 84.2239 64.8601 83.8479 64.4841 83.4719L59.7841 76.3279C59.5961 75.9519 59.4081 75.7639 59.4081 75.3879V63.1679C59.4081 62.7919 59.4081 62.6039 59.0321 62.4159L55.4601 60.1599C55.0841 59.9719 54.8961 59.5959 54.7081 59.2199C54.7081 58.8439 54.7081 58.2799 54.8961 58.0919C55.2721 57.5279 55.6481 57.3399 56.4001 57.3399C56.7761 57.3399 56.9641 57.3399 57.3401 57.5279L58.4681 58.2799H58.8441H59.2201C59.5961 58.2799 59.5961 57.9039 59.5961 57.5279V48.8799C59.5961 48.5039 59.5961 48.3159 59.2201 48.1279L55.6481 45.8719C55.2721 45.6839 55.0841 45.3079 54.8961 44.9319C54.7081 44.5559 54.8961 43.9919 55.0841 43.8039C55.4601 43.2399 55.8361 43.0519 56.5881 43.0519C56.9641 43.0519 57.1521 43.0519 57.5281 43.2399L58.6561 43.9919H59.0321H59.4081C59.7841 43.9919 59.7841 43.6159 59.7841 43.2399V34.5919C59.7841 34.2159 59.7841 34.0279 59.4081 33.8399L55.8361 31.5839C55.4601 31.3959 55.2721 31.0199 55.0841 30.6439C55.0841 30.2679 55.0841 29.7039 55.2721 29.5159C55.6481 28.9519 56.0241 28.7639 56.7761 28.7639C57.1521 28.7639 57.3401 28.7639 57.7161 28.9519L58.8441 29.7039H59.2201H59.5961C59.9721 29.7039 59.9721 29.3279 59.9721 28.9519V23.3119C59.9721 22.9359 59.5961 22.5599 59.2201 22.5599H52.0761C51.1361 22.5599 50.5721 21.8079 50.5721 21.0559C50.1961 15.0399 57.7161 9.77588 65.8001 9.77588C74.2601 9.77588 81.7801 14.8519 81.7801 20.8679C81.7801 21.8079 81.0281 22.3719 80.2761 22.3719H73.1321C72.7561 22.3719 72.3801 22.7479 72.3801 23.1239V37.7879C72.3801 38.1639 72.3801 38.3519 72.7561 38.5399L76.3281 40.7959C76.7041 40.9839 76.8921 41.3599 77.0801 41.7359C77.0801 42.1119 77.0801 42.6759 76.8921 42.8639C76.5161 43.4279 76.1401 43.6159 75.3881 43.6159C75.0121 43.6159 74.8241 43.6159 74.4481 43.4279L73.3201 42.8639H72.9441H72.5681C72.3801 43.0519 72.1921 43.4279 72.1921 43.6159V52.2639C72.1921 52.6399 72.1921 52.8279 72.5681 53.0159L76.1401 55.2719C76.5161 55.4599 76.7041 55.8359 76.8921 56.2119C76.8921 56.5879 76.8921 57.1519 76.7041 57.3399C76.3281 57.9039 75.9521 58.0919 75.2001 58.0919C74.8241 58.0919 74.6361 58.0919 74.2601 57.9039L73.3201 57.1519H72.9441H72.5681C72.1921 57.1519 72.1921 57.5279 72.1921 57.9039V66.5519C72.1921 66.9279 72.1921 67.1159 72.5681 67.3039L76.1401 69.5599C76.5161 69.7479 76.7041 70.1239 76.8921 70.4999C76.8921 70.8759 76.8921 71.4399 76.7041 71.6279C76.3281 72.1919 75.9521 72.3799 75.2001 72.3799C74.8241 72.3799 74.6361 72.3799 74.2601 72.1919L73.5081 71.4399H73.1321H72.7561C72.3801 71.4399 72.3801 71.8159 72.3801 72.1919V75.5759C72.3801 75.9519 72.3801 76.1399 72.0041 76.5159L67.3041 83.6599C66.9281 83.8479 66.5521 84.2239 65.8001 84.2239ZM63.5441 65.4239H63.1681C62.7921 65.4239 62.7921 65.7999 62.7921 66.1759V74.8239C62.7921 75.0119 62.7921 75.1999 62.7921 75.1999L65.2361 78.7719C65.4241 78.9599 65.6121 79.1479 65.8001 79.1479C66.1761 79.1479 66.3641 79.1479 66.3641 78.7719L68.8081 75.1999V74.8239V69.1839C68.8081 68.8079 68.8081 68.6199 68.4321 68.4319L63.7321 65.4239C63.9201 65.4239 63.5441 65.4239 63.5441 65.4239ZM63.5441 51.1359H63.1681C62.7921 51.1359 62.7921 51.5119 62.7921 51.8879V60.5359C62.7921 60.9119 62.7921 61.0999 63.1681 61.2879L67.8681 64.2959H68.2441H68.6201C68.9961 64.2959 68.9961 63.9199 68.9961 63.5439V54.8959C68.9961 54.5199 68.9961 54.3319 68.6201 54.1439L63.9201 51.1359C63.9201 51.1359 63.7321 51.1359 63.5441 51.1359ZM63.5441 36.8479H63.1681C62.7921 36.8479 62.7921 37.2239 62.7921 37.5999V46.2479C62.7921 46.6239 62.7921 46.8119 63.1681 46.9999L67.8681 50.0079H68.2441H68.6201C68.9961 50.0079 68.9961 49.6319 68.9961 49.2559V40.6079C68.9961 40.2319 68.9961 40.0439 68.6201 39.8559L63.9201 37.0359C63.9201 36.8479 63.7321 36.8479 63.5441 36.8479ZM63.5441 22.5599C63.1681 22.5599 62.7921 22.9359 62.7921 23.3119V32.1479C62.7921 32.5239 62.7921 32.7119 63.1681 32.8999L67.8681 35.9079H68.2441H68.6201C68.9961 35.9079 68.9961 35.5319 68.9961 35.1559V23.3119C68.9961 22.9359 68.6201 22.5599 68.2441 22.5599H63.5441ZM65.8001 12.9719C60.3481 12.9719 56.0241 15.6039 54.1441 18.0479C53.9561 18.2359 53.9561 18.6119 54.1441 18.7999C54.1441 19.1759 54.5201 19.1759 54.8961 19.1759H76.8921C77.2681 19.1759 77.4561 18.9879 77.6441 18.7999C77.6441 18.4239 77.6441 18.2359 77.6441 18.0479C75.7641 15.6039 71.4401 12.9719 65.8001 12.9719Z" fill="white"/>
<path d="M46.0597 81.0279H40.6077C40.2317 81.0279 39.8557 80.6519 39.8557 80.2759V70.4999C39.8557 70.4999 39.8557 70.3119 40.0437 70.1239C40.2317 69.9359 40.4197 69.7479 40.6077 69.7479H43.0517C43.9917 69.7479 44.5557 68.9959 44.5557 68.2439C44.5557 67.3039 43.8037 66.7399 43.0517 66.7399H35.9077C35.5317 66.7399 35.1557 66.3639 35.1557 65.9879V40.2319C35.1557 40.2319 35.1557 40.0439 35.1557 39.8559L39.8557 25.9439C39.8557 25.5679 39.8557 25.3799 39.8557 25.1919L37.5997 11.0919C37.5997 10.3399 36.8477 9.77588 36.0957 9.77588H24.0637C23.3117 9.77588 22.5597 10.3399 22.5597 11.0919L20.1157 25.3799C20.1157 25.7559 20.1157 25.9439 20.1157 26.1319L24.8157 40.0439C24.8157 40.0439 24.8157 40.2319 24.8157 40.4199V66.1759C24.8157 66.5519 24.4397 66.9279 24.0637 66.9279H16.9197C15.9797 66.9279 15.4157 67.6799 15.4157 68.4319C15.4157 69.3719 16.1677 69.9359 16.9197 69.9359H19.3637C19.5517 69.9359 19.7397 69.9359 19.9277 70.3119C19.9277 70.3119 19.9277 70.4999 20.1157 70.6879V80.4639C20.1157 80.8399 19.7397 81.2159 19.3637 81.2159H13.7237C12.7837 81.2159 12.2197 81.9679 12.2197 82.7199C12.2197 83.6599 12.9717 84.2239 13.7237 84.2239H46.0597C46.9997 84.2239 47.5637 83.4719 47.5637 82.7199C47.9397 81.7799 46.9997 81.0279 46.0597 81.0279ZM23.4997 25.7559V25.3799L25.5677 13.7239C25.5677 13.3479 25.9437 12.9719 26.3197 12.9719H34.2157C34.5917 12.9719 34.9677 13.3479 34.9677 13.7239L37.0357 25.3799V25.7559L32.1477 39.4799C32.1477 39.6679 32.1477 39.8559 32.1477 40.0439V66.1759C32.1477 66.5519 31.7717 66.9279 31.3957 66.9279H28.9517C28.5757 66.9279 28.1997 66.5519 28.1997 66.1759V39.8559C28.1997 39.6679 28.1997 39.4799 28.1997 39.2919L23.4997 25.7559ZM36.8477 80.2759C36.8477 80.6519 36.4717 81.0279 36.0957 81.0279H24.2517C23.8757 81.0279 23.4997 80.6519 23.4997 80.2759V71.2519C23.4997 71.0639 23.4997 70.6879 23.4997 70.4999C23.4997 70.1239 23.8757 69.9359 24.2517 69.9359H36.0957C36.4717 69.9359 36.8477 70.1239 36.8477 70.4999C36.8477 70.6879 36.8477 70.8759 36.8477 71.2519V80.2759Z" fill="white"/>
</svg>
