<svg width="78" height="83" viewBox="0 0 78 83" fill="none" xmlns="http://www.w3.org/2000/svg">
<path d="M21.9 75.3001H15C13.4 75.3001 12 74.0001 12 72.3001V45.9001C12 44.3001 13.3 42.9001 15 42.9001H21.9C24.6 42.9001 26.7 45.1001 26.7 47.7001V70.4001C26.7 73.2001 24.5 75.3001 21.9 75.3001ZM15 46.0001V72.4001H21.9C22.9 72.4001 23.7 71.6001 23.7 70.6001V47.8001C23.7 46.8001 22.9 46.0001 21.9 46.0001H15Z" fill="white"/>
<path d="M45.5002 75.1001C38.0002 75.1001 28.4002 73.6001 25.5002 73.2001C24.4002 73.0001 23.7002 72.1001 23.7002 71.0001V47.0001C23.7002 46.0001 24.4002 45.1001 25.5002 44.8001C28.2002 44.3001 29.5002 42.1001 31.2002 39.4001C31.9002 38.3001 32.5002 37.2001 33.4002 36.1001C33.9002 35.4001 34.4002 34.8001 34.9002 34.2001C37.3002 31.2001 39.2002 28.8001 39.9002 25.0001C40.2002 23.4001 40.4002 22.3001 40.5002 21.5001C40.7002 20.2001 40.8002 19.5001 41.4002 18.9001C42.6002 17.7001 46.5002 18.3001 47.6002 19.0001C49.8002 20.3001 51.0002 23.4001 51.0002 27.7001C51.0002 31.7001 50.1002 33.1001 48.6002 35.7001L48.1002 36.5001C47.5002 37.5001 47.2002 39.4001 47.3002 40.1001C47.9002 40.2001 49.1002 40.1001 50.2002 40.0001C52.2002 39.8001 54.9002 39.6001 58.1002 39.9001C63.0002 40.3001 65.1002 41.2001 65.4002 45.9001C65.6002 48.2001 64.7002 49.4001 64.0002 50.1001C64.7002 50.8001 65.7002 51.9001 65.7002 53.8001C65.7002 55.9001 64.3002 57.1001 63.5002 57.8001L63.4002 57.9001C64.0002 58.6001 65.0002 59.9001 64.4002 62.5001C63.8002 64.8001 62.5002 65.6001 61.7002 66.1001C61.6002 66.2001 61.5002 66.2001 61.4002 66.3001C61.4002 66.3001 61.4002 66.4001 61.4002 66.5001C61.6002 67.2001 61.7002 68.0001 61.5002 69.7001C60.8002 73.5001 53.5002 74.9001 46.9002 75.1001C46.4002 75.1001 46.0002 75.1001 45.5002 75.1001ZM26.7002 70.3001C30.3002 70.9001 39.8002 72.2001 46.7002 72.1001C55.0002 71.9001 58.2002 69.9001 58.4002 69.2001C58.6002 68.0001 58.5002 67.6001 58.4002 67.2001C58.3002 66.8001 58.2002 66.3001 58.3002 65.5001C58.5002 64.5001 59.3002 64.0001 59.9002 63.6001C60.5002 63.2001 61.1002 62.9001 61.3002 61.8001C61.6002 60.5001 61.3002 60.2001 60.9002 59.8001C60.5002 59.4001 59.9002 58.8001 60.0002 57.7001C60.1002 56.7001 60.8002 56.0001 61.4002 55.5001C62.1002 54.9001 62.6002 54.5001 62.6002 53.8001C62.6002 53.0001 62.2002 52.6001 61.7002 52.1001C61.2002 51.7001 60.6002 51.1001 60.6002 50.1001C60.6002 49.1001 61.2002 48.5001 61.7002 48.2001C62.2002 47.8001 62.6002 47.4001 62.5002 46.2001C62.3002 43.7001 62.3002 43.3001 58.0002 43.0001C55.0002 42.8001 52.5002 43.0001 50.5002 43.1001C48.2002 43.3001 46.8002 43.4001 45.7002 42.8001C45.3002 42.6001 44.8002 42.1001 44.6002 41.2001C44.2002 39.5001 44.8002 36.5001 45.7002 35.0001L46.2002 34.2001C47.6002 31.8001 48.2002 30.9001 48.2002 27.8001C48.2002 24.4001 47.2002 22.3001 46.2002 21.7001C45.8002 21.5001 44.4002 21.3001 43.7002 21.3001C43.7002 21.5001 43.6002 21.8001 43.6002 22.1001C43.5002 22.9001 43.3002 24.0001 43.0002 25.7001C42.1002 30.2001 39.9002 33.0001 37.4002 36.2001C36.9002 36.8001 36.4002 37.4001 35.9002 38.1001C35.2002 39.1001 34.5002 40.1001 33.9002 41.2001C32.2002 44.0001 30.5002 46.9001 26.9002 47.9001V70.3001H26.7002Z" fill="white"/>
<path d="M43.2998 43.5002C42.2998 43.5002 41.2998 43.4002 40.1998 43.2002C39.3998 43.0002 38.8998 42.2002 39.0998 41.4002C39.2998 40.6002 40.0998 40.1002 40.8998 40.3002C42.4998 40.7002 44.2998 40.5002 45.8998 40.4002C46.3998 40.3002 46.9998 40.3002 47.4998 40.3002C48.2998 40.3002 48.9998 40.9002 49.0998 41.7002C49.0998 42.5002 48.4998 43.2002 47.6998 43.3002C47.1998 43.3002 46.6998 43.4002 46.1998 43.4002C45.2998 43.4002 44.2998 43.5002 43.2998 43.5002Z" fill="white"/>
<path d="M44.2998 15.2C43.4998 15.2 42.7998 14.5 42.7998 13.7V9C42.7998 8.2 43.4998 7.5 44.2998 7.5C45.0998 7.5 45.7998 8.2 45.7998 9V13.7C45.7998 14.5 45.1998 15.2 44.2998 15.2Z" fill="white"/>
<path d="M37.3002 17.8999C36.9002 17.8999 36.5002 17.7999 36.2002 17.4999L32.9002 14.1999C32.3002 13.5999 32.3002 12.6999 32.9002 12.0999C33.5002 11.4999 34.4002 11.4999 35.0002 12.0999L38.3002 15.3999C38.9002 15.9999 38.9002 16.8999 38.3002 17.4999C38.1002 17.7999 37.7002 17.8999 37.3002 17.8999Z" fill="white"/>
<path d="M51.4006 17.8999C51.0006 17.8999 50.6006 17.7999 50.3006 17.4999C49.7006 16.8999 49.7006 15.9999 50.3006 15.3999L53.6006 12.0999C54.2006 11.4999 55.1006 11.4999 55.7006 12.0999C56.3006 12.6999 56.3006 13.5999 55.7006 14.1999L52.4006 17.4999C52.2006 17.7999 51.8006 17.8999 51.4006 17.8999Z" fill="white"/>
</svg>
