<svg width="722" height="691" viewBox="0 0 722 691" fill="none" xmlns="http://www.w3.org/2000/svg">
<rect width="722" height="691" fill="#E4FF00"/>
<path fill-rule="evenodd" clip-rule="evenodd" d="M340 251H531V440H340V422H326V440V454H340H531H545V440V251V237H531H340H326V251V265H340V251Z" fill="black"/>
<path d="M241.75 366.6H245.338V408H241.75V389.232H202.144V408H198.556V366.6H202.144V386.058H241.75V366.6ZM284.308 408.69C266.092 408.69 258.019 401.238 258.019 388.818V385.782C258.019 373.362 266.092 365.91 284.308 365.91C302.524 365.91 310.597 373.086 310.597 385.506V388.542C310.597 400.962 302.524 408.69 284.308 408.69ZM284.308 405.24C299.833 405.24 306.871 399.582 306.871 388.818V385.782C306.871 375.018 299.833 369.36 284.308 369.36C268.783 369.36 261.745 375.018 261.745 385.782V388.818C261.745 399.582 268.783 405.24 284.308 405.24ZM346.261 408.69C328.045 408.69 320.662 401.238 320.662 388.818V366.6H324.526V388.818C324.526 399.582 331.426 405.102 346.261 405.102C361.096 405.102 367.996 399.582 367.996 388.818V366.6H371.86V388.542C371.86 400.962 364.477 408.69 346.261 408.69ZM424.855 380.262C424.855 372.327 418.645 369.429 405.949 369.429C392.632 369.429 385.663 371.913 385.663 376.536V377.778C385.663 381.711 389.389 383.712 404.845 385.299C422.233 387.093 428.029 389.232 428.029 396.822V398.34C428.029 404.067 421.819 408.69 404.5 408.69C388.285 408.69 382.006 403.86 382.006 393.648H385.594C385.594 402.273 391.666 405.24 404.5 405.24C417.334 405.24 424.441 402.618 424.441 397.926V396.684C424.441 392.199 420.715 390.267 404.431 388.611C387.871 386.886 382.075 384.678 382.075 377.64V376.122C382.075 370.395 388.354 365.979 405.949 365.979C420.784 365.979 428.443 370.05 428.443 380.262H424.855ZM481.298 369.774H444.728V386.265H478.745V389.439H444.728V404.826H481.298V408H441.14V366.6H481.298V369.774Z" fill="black"/>
<path d="M226.89 329.395H250.095V350H245.805L244.96 343.11V342.915C241.775 347.985 235.34 350.65 224.16 350.65C205.245 350.65 199.2 342.265 199.2 331.41V329.46C199.2 318.605 206.025 310.22 224.94 310.22C242.62 310.22 248.795 317.695 249.315 324.52H243.53C242.815 320.23 238.135 315.42 224.94 315.42C210.64 315.42 204.66 320.75 204.66 329.46V331.41C204.66 340.12 209.795 345.45 224.16 345.45C236.185 345.45 242.685 342.07 244.375 334.14H226.89V329.395ZM272.924 311V345.06H305.424V350H267.594V311H272.924ZM355.092 350L351.062 342.655H322.397L318.367 350H312.257L333.707 311.065L333.642 311H339.817V311.065L361.202 350H355.092ZM325.257 337.455H348.202L336.762 316.59L325.257 337.455ZM410.972 323.22C410.972 317.955 404.472 315.615 394.137 315.615C383.412 315.615 376.132 316.98 376.132 320.36V321.335C376.132 323.805 377.562 326.015 393.097 327.51C408.502 329.005 415.912 330.63 415.912 338.755V339.665C415.912 347.14 409.087 350.65 392.772 350.65C377.497 350.65 370.607 345.645 370.607 337.26H375.937C375.937 342.59 381.137 345.45 392.772 345.45C401.937 345.45 410.452 344.28 410.452 339.665V338.755C410.452 336.48 409.022 334.27 392.707 332.71C377.107 331.085 370.672 329.33 370.672 321.335V320.36C370.672 313.925 377.562 310.415 394.137 310.415C408.112 310.415 416.302 314.25 416.302 323.22H410.972ZM470.985 323.22C470.985 317.955 464.485 315.615 454.15 315.615C443.425 315.615 436.145 316.98 436.145 320.36V321.335C436.145 323.805 437.575 326.015 453.11 327.51C468.515 329.005 475.925 330.63 475.925 338.755V339.665C475.925 347.14 469.1 350.65 452.785 350.65C437.51 350.65 430.62 345.645 430.62 337.26H435.95C435.95 342.59 441.15 345.45 452.785 345.45C461.95 345.45 470.465 344.28 470.465 339.665V338.755C470.465 336.48 469.035 334.27 452.72 332.71C437.12 331.085 430.685 329.33 430.685 321.335V320.36C430.685 313.925 437.575 310.415 454.15 310.415C468.125 310.415 476.315 314.25 476.315 323.22H470.985Z" fill="black"/>
<path d="M214.687 272.6V274.472H203.299V296H201.271V274.472H189.883V272.6H214.687ZM240.267 272.6H242.295V296H240.267V285.392H217.881V296H215.853V272.6H217.881V283.598H240.267V272.6ZM271.147 274.394H250.477V283.715H269.704V285.509H250.477V294.206H271.147V296H248.449V272.6H271.147V274.394Z" fill="black"/>
<mask id="path-5-outside-1_2_7" maskUnits="userSpaceOnUse" x="285" y="218" width="260" height="12" fill="black">
<rect fill="white" x="285" y="218" width="260" height="12"/>
<path d="M297.271 218.8V220.126H292.307V229H290.913V220.126H285.949V218.8H297.271ZM304.924 229.17C299.977 229.17 298.617 226.977 298.617 224.274L298.668 218.817H300.181V224.274C300.181 226.416 301.609 227.725 304.924 227.725C308.307 227.725 309.667 226.467 309.667 224.274L309.718 218.817H311.231V224.104C311.231 226.875 309.922 229.17 304.924 229.17ZM330.79 218.8V220.126H325.826V229H324.432V220.126H319.468V218.8H330.79ZM332.833 229V218.8H334.227V229H332.833ZM348.848 220.041H339.838V223.407H347.964V224.648H339.838V227.759H348.848V229H338.444V218.8H348.848V220.041ZM361.919 218.8H363.313V229H361.443L353.385 220.296V229H351.991V218.8H353.844L361.919 227.504V218.8ZM373.344 218.8C379.056 218.8 380.076 220.942 380.076 223.628V224.376C380.076 227.011 379.056 229 373.344 229H367.53V218.8H373.344ZM378.648 224.376V223.628C378.648 221.503 377.832 220.16 373.344 220.16H368.924V227.64H373.344C377.951 227.64 378.648 226.416 378.648 224.376ZM392.73 229L391.676 227.079H384.179L383.125 229H381.527L387.137 218.817L387.12 218.8H388.735V218.817L394.328 229H392.73ZM384.927 225.719H390.928L387.936 220.262L384.927 225.719ZM409.137 218.8C414.849 218.8 415.869 220.942 415.869 223.628V224.376C415.869 227.011 414.849 229 409.137 229H403.323V218.8H409.137ZM414.441 224.376V223.628C414.441 221.503 413.625 220.16 409.137 220.16H404.717V227.64H409.137C413.744 227.64 414.441 226.416 414.441 224.376ZM429.747 220.041H420.737V223.407H428.863V224.648H420.737V227.759H429.747V229H419.343V218.8H429.747V220.041ZM448.843 218.8H450.407L444.797 229H443.148L437.538 218.8H439.187L444.015 227.572L448.843 218.8ZM462.901 220.041H453.891V223.407H462.017V224.648H453.891V227.759H462.901V229H452.497V218.8H462.901V220.041ZM475.972 218.8H477.366V229H475.496L467.438 220.296V229H466.044V218.8H467.897L475.972 227.504V218.8ZM490.746 218.8V220.126H485.782V229H484.388V220.126H479.424V218.8H490.746ZM500.956 229L499.902 227.079H492.405L491.351 229H489.753L495.363 218.817L495.346 218.8H496.961V218.817L502.554 229H500.956ZM493.153 225.719H499.154L496.162 220.262L493.153 225.719ZM514.67 218.8H516.064V229H514.194L506.136 220.296V229H504.742V218.8H506.595L514.67 227.504V218.8ZM529.461 229L528.407 227.079H520.91L519.856 229H518.258L523.868 218.817L523.851 218.8H525.466V218.817L531.059 229H529.461ZM521.658 225.719H527.659L524.667 220.262L521.658 225.719ZM543.056 221.996C543.056 220.619 541.356 220.007 538.653 220.007C535.848 220.007 533.944 220.364 533.944 221.248V221.503C533.944 222.149 534.318 222.727 538.381 223.118C542.41 223.509 544.348 223.934 544.348 226.059V226.297C544.348 228.252 542.563 229.17 538.296 229.17C534.301 229.17 532.499 227.861 532.499 225.668H533.893C533.893 227.062 535.253 227.81 538.296 227.81C540.693 227.81 542.92 227.504 542.92 226.297V226.059C542.92 225.464 542.546 224.886 538.279 224.478C534.199 224.053 532.516 223.594 532.516 221.503V221.248C532.516 219.565 534.318 218.647 538.653 218.647C542.308 218.647 544.45 219.65 544.45 221.996H543.056Z"/>
</mask>
<path d="M297.271 218.8V220.126H292.307V229H290.913V220.126H285.949V218.8H297.271ZM304.924 229.17C299.977 229.17 298.617 226.977 298.617 224.274L298.668 218.817H300.181V224.274C300.181 226.416 301.609 227.725 304.924 227.725C308.307 227.725 309.667 226.467 309.667 224.274L309.718 218.817H311.231V224.104C311.231 226.875 309.922 229.17 304.924 229.17ZM330.79 218.8V220.126H325.826V229H324.432V220.126H319.468V218.8H330.79ZM332.833 229V218.8H334.227V229H332.833ZM348.848 220.041H339.838V223.407H347.964V224.648H339.838V227.759H348.848V229H338.444V218.8H348.848V220.041ZM361.919 218.8H363.313V229H361.443L353.385 220.296V229H351.991V218.8H353.844L361.919 227.504V218.8ZM373.344 218.8C379.056 218.8 380.076 220.942 380.076 223.628V224.376C380.076 227.011 379.056 229 373.344 229H367.53V218.8H373.344ZM378.648 224.376V223.628C378.648 221.503 377.832 220.16 373.344 220.16H368.924V227.64H373.344C377.951 227.64 378.648 226.416 378.648 224.376ZM392.73 229L391.676 227.079H384.179L383.125 229H381.527L387.137 218.817L387.12 218.8H388.735V218.817L394.328 229H392.73ZM384.927 225.719H390.928L387.936 220.262L384.927 225.719ZM409.137 218.8C414.849 218.8 415.869 220.942 415.869 223.628V224.376C415.869 227.011 414.849 229 409.137 229H403.323V218.8H409.137ZM414.441 224.376V223.628C414.441 221.503 413.625 220.16 409.137 220.16H404.717V227.64H409.137C413.744 227.64 414.441 226.416 414.441 224.376ZM429.747 220.041H420.737V223.407H428.863V224.648H420.737V227.759H429.747V229H419.343V218.8H429.747V220.041ZM448.843 218.8H450.407L444.797 229H443.148L437.538 218.8H439.187L444.015 227.572L448.843 218.8ZM462.901 220.041H453.891V223.407H462.017V224.648H453.891V227.759H462.901V229H452.497V218.8H462.901V220.041ZM475.972 218.8H477.366V229H475.496L467.438 220.296V229H466.044V218.8H467.897L475.972 227.504V218.8ZM490.746 218.8V220.126H485.782V229H484.388V220.126H479.424V218.8H490.746ZM500.956 229L499.902 227.079H492.405L491.351 229H489.753L495.363 218.817L495.346 218.8H496.961V218.817L502.554 229H500.956ZM493.153 225.719H499.154L496.162 220.262L493.153 225.719ZM514.67 218.8H516.064V229H514.194L506.136 220.296V229H504.742V218.8H506.595L514.67 227.504V218.8ZM529.461 229L528.407 227.079H520.91L519.856 229H518.258L523.868 218.817L523.851 218.8H525.466V218.817L531.059 229H529.461ZM521.658 225.719H527.659L524.667 220.262L521.658 225.719ZM543.056 221.996C543.056 220.619 541.356 220.007 538.653 220.007C535.848 220.007 533.944 220.364 533.944 221.248V221.503C533.944 222.149 534.318 222.727 538.381 223.118C542.41 223.509 544.348 223.934 544.348 226.059V226.297C544.348 228.252 542.563 229.17 538.296 229.17C534.301 229.17 532.499 227.861 532.499 225.668H533.893C533.893 227.062 535.253 227.81 538.296 227.81C540.693 227.81 542.92 227.504 542.92 226.297V226.059C542.92 225.464 542.546 224.886 538.279 224.478C534.199 224.053 532.516 223.594 532.516 221.503V221.248C532.516 219.565 534.318 218.647 538.653 218.647C542.308 218.647 544.45 219.65 544.45 221.996H543.056Z" fill="black"/>
<path d="M297.271 218.8H297.471V218.6H297.271V218.8ZM297.271 220.126V220.326H297.471V220.126H297.271ZM292.307 220.126V219.926H292.107V220.126H292.307ZM292.307 229V229.2H292.507V229H292.307ZM290.913 229H290.713V229.2H290.913V229ZM290.913 220.126H291.113V219.926H290.913V220.126ZM285.949 220.126H285.749V220.326H285.949V220.126ZM285.949 218.8V218.6H285.749V218.8H285.949ZM297.071 218.8V220.126H297.471V218.8H297.071ZM297.271 219.926H292.307V220.326H297.271V219.926ZM292.107 220.126V229H292.507V220.126H292.107ZM292.307 228.8H290.913V229.2H292.307V228.8ZM291.113 229V220.126H290.713V229H291.113ZM290.913 219.926H285.949V220.326H290.913V219.926ZM286.149 220.126V218.8H285.749V220.126H286.149ZM285.949 219H297.271V218.6H285.949V219ZM298.617 224.274L298.417 224.272V224.274H298.617ZM298.668 218.817V218.617H298.47L298.468 218.815L298.668 218.817ZM300.181 218.817H300.381V218.617H300.181V218.817ZM309.667 224.274L309.467 224.272V224.274H309.667ZM309.718 218.817V218.617H309.52L309.518 218.815L309.718 218.817ZM311.231 218.817H311.431V218.617H311.231V218.817ZM304.924 228.97C302.475 228.97 300.957 228.427 300.051 227.589C299.149 226.754 298.817 225.594 298.817 224.274H298.417C298.417 225.657 298.766 226.945 299.78 227.882C300.79 228.817 302.426 229.37 304.924 229.37V228.97ZM298.817 224.276L298.868 218.819L298.468 218.815L298.417 224.272L298.817 224.276ZM298.668 219.017H300.181V218.617H298.668V219.017ZM299.981 218.817V224.274H300.381V218.817H299.981ZM299.981 224.274C299.981 225.393 300.357 226.321 301.187 226.961C302.008 227.594 303.245 227.925 304.924 227.925V227.525C303.288 227.525 302.153 227.201 301.432 226.644C300.719 226.095 300.381 225.297 300.381 224.274H299.981ZM304.924 227.925C306.634 227.925 307.873 227.608 308.686 226.98C309.511 226.344 309.867 225.415 309.867 224.274H309.467C309.467 225.326 309.143 226.122 308.442 226.664C307.73 227.213 306.597 227.525 304.924 227.525V227.925ZM309.867 224.276L309.918 218.819L309.518 218.815L309.467 224.272L309.867 224.276ZM309.718 219.017H311.231V218.617H309.718V219.017ZM311.031 218.817V224.104H311.431V218.817H311.031ZM311.031 224.104C311.031 225.461 310.711 226.665 309.813 227.532C308.913 228.402 307.397 228.97 304.924 228.97V229.37C307.449 229.37 309.086 228.791 310.091 227.82C311.097 226.847 311.431 225.518 311.431 224.104H311.031ZM330.79 218.8H330.99V218.6H330.79V218.8ZM330.79 220.126V220.326H330.99V220.126H330.79ZM325.826 220.126V219.926H325.626V220.126H325.826ZM325.826 229V229.2H326.026V229H325.826ZM324.432 229H324.232V229.2H324.432V229ZM324.432 220.126H324.632V219.926H324.432V220.126ZM319.468 220.126H319.268V220.326H319.468V220.126ZM319.468 218.8V218.6H319.268V218.8H319.468ZM330.59 218.8V220.126H330.99V218.8H330.59ZM330.79 219.926H325.826V220.326H330.79V219.926ZM325.626 220.126V229H326.026V220.126H325.626ZM325.826 228.8H324.432V229.2H325.826V228.8ZM324.632 229V220.126H324.232V229H324.632ZM324.432 219.926H319.468V220.326H324.432V219.926ZM319.668 220.126V218.8H319.268V220.126H319.668ZM319.468 219H330.79V218.6H319.468V219ZM332.833 229H332.633V229.2H332.833V229ZM332.833 218.8V218.6H332.633V218.8H332.833ZM334.227 218.8H334.427V218.6H334.227V218.8ZM334.227 229V229.2H334.427V229H334.227ZM333.033 229V218.8H332.633V229H333.033ZM332.833 219H334.227V218.6H332.833V219ZM334.027 218.8V229H334.427V218.8H334.027ZM334.227 228.8H332.833V229.2H334.227V228.8ZM348.848 220.041V220.241H349.048V220.041H348.848ZM339.838 220.041V219.841H339.638V220.041H339.838ZM339.838 223.407H339.638V223.607H339.838V223.407ZM347.964 223.407H348.164V223.207H347.964V223.407ZM347.964 224.648V224.848H348.164V224.648H347.964ZM339.838 224.648V224.448H339.638V224.648H339.838ZM339.838 227.759H339.638V227.959H339.838V227.759ZM348.848 227.759H349.048V227.559H348.848V227.759ZM348.848 229V229.2H349.048V229H348.848ZM338.444 229H338.244V229.2H338.444V229ZM338.444 218.8V218.6H338.244V218.8H338.444ZM348.848 218.8H349.048V218.6H348.848V218.8ZM348.848 219.841H339.838V220.241H348.848V219.841ZM339.638 220.041V223.407H340.038V220.041H339.638ZM339.838 223.607H347.964V223.207H339.838V223.607ZM347.764 223.407V224.648H348.164V223.407H347.764ZM347.964 224.448H339.838V224.848H347.964V224.448ZM339.638 224.648V227.759H340.038V224.648H339.638ZM339.838 227.959H348.848V227.559H339.838V227.959ZM348.648 227.759V229H349.048V227.759H348.648ZM348.848 228.8H338.444V229.2H348.848V228.8ZM338.644 229V218.8H338.244V229H338.644ZM338.444 219H348.848V218.6H338.444V219ZM348.648 218.8V220.041H349.048V218.8H348.648ZM361.919 218.8V218.6H361.719V218.8H361.919ZM363.313 218.8H363.513V218.6H363.313V218.8ZM363.313 229V229.2H363.513V229H363.313ZM361.443 229L361.296 229.136L361.355 229.2H361.443V229ZM353.385 220.296L353.532 220.16L353.185 219.786V220.296H353.385ZM353.385 229V229.2H353.585V229H353.385ZM351.991 229H351.791V229.2H351.991V229ZM351.991 218.8V218.6H351.791V218.8H351.991ZM353.844 218.8L353.99 218.664L353.931 218.6H353.844V218.8ZM361.919 227.504L361.772 227.64L362.119 228.014V227.504H361.919ZM361.919 219H363.313V218.6H361.919V219ZM363.113 218.8V229H363.513V218.8H363.113ZM363.313 228.8H361.443V229.2H363.313V228.8ZM361.59 228.864L353.532 220.16L353.238 220.432L361.296 229.136L361.59 228.864ZM353.185 220.296V229H353.585V220.296H353.185ZM353.385 228.8H351.991V229.2H353.385V228.8ZM352.191 229V218.8H351.791V229H352.191ZM351.991 219H353.844V218.6H351.991V219ZM353.697 218.936L361.772 227.64L362.065 227.368L353.99 218.664L353.697 218.936ZM362.119 227.504V218.8H361.719V227.504H362.119ZM367.53 229H367.33V229.2H367.53V229ZM367.53 218.8V218.6H367.33V218.8H367.53ZM368.924 220.16V219.96H368.724V220.16H368.924ZM368.924 227.64H368.724V227.84H368.924V227.64ZM373.344 219C376.184 219 377.805 219.534 378.718 220.355C379.624 221.17 379.876 222.306 379.876 223.628H380.276C380.276 222.264 380.018 220.986 378.986 220.058C377.961 219.137 376.216 218.6 373.344 218.6V219ZM379.876 223.628V224.376H380.276V223.628H379.876ZM379.876 224.376C379.876 225.672 379.625 226.754 378.722 227.524C377.809 228.303 376.186 228.8 373.344 228.8V229.2C376.213 229.2 377.957 228.702 378.982 227.828C380.017 226.945 380.276 225.715 380.276 224.376H379.876ZM373.344 228.8H367.53V229.2H373.344V228.8ZM367.73 229V218.8H367.33V229H367.73ZM367.53 219H373.344V218.6H367.53V219ZM378.848 224.376V223.628H378.448V224.376H378.848ZM378.848 223.628C378.848 222.544 378.64 221.598 377.802 220.94C376.981 220.294 375.596 219.96 373.344 219.96V220.36C375.58 220.36 376.846 220.697 377.555 221.254C378.248 221.799 378.448 222.587 378.448 223.628H378.848ZM373.344 219.96H368.924V220.36H373.344V219.96ZM368.724 220.16V227.64H369.124V220.16H368.724ZM368.924 227.84H373.344V227.44H368.924V227.84ZM373.344 227.84C375.651 227.84 377.037 227.536 377.843 226.933C378.672 226.314 378.848 225.414 378.848 224.376H378.448C378.448 225.378 378.276 226.11 377.604 226.613C376.91 227.132 375.643 227.44 373.344 227.44V227.84ZM392.73 229L392.555 229.096L392.612 229.2H392.73V229ZM391.676 227.079L391.852 226.983L391.795 226.879H391.676V227.079ZM384.179 227.079V226.879H384.061L384.004 226.983L384.179 227.079ZM383.125 229V229.2H383.244L383.301 229.096L383.125 229ZM381.527 229L381.352 228.903L381.189 229.2H381.527V229ZM387.137 218.817L387.313 218.914L387.385 218.782L387.279 218.676L387.137 218.817ZM387.12 218.8V218.6H386.638L386.979 218.941L387.12 218.8ZM388.735 218.8H388.935V218.6H388.735V218.8ZM388.735 218.817H388.535V218.868L388.56 218.913L388.735 218.817ZM394.328 229V229.2H394.666L394.504 228.904L394.328 229ZM384.927 225.719L384.752 225.622L384.589 225.919H384.927V225.719ZM390.928 225.719V225.919H391.266L391.104 225.623L390.928 225.719ZM387.936 220.262L388.112 220.166L387.937 219.847L387.761 220.165L387.936 220.262ZM392.906 228.904L391.852 226.983L391.501 227.175L392.555 229.096L392.906 228.904ZM391.676 226.879H384.179V227.279H391.676V226.879ZM384.004 226.983L382.95 228.904L383.301 229.096L384.355 227.175L384.004 226.983ZM383.125 228.8H381.527V229.2H383.125V228.8ZM381.703 229.097L387.313 218.914L386.962 218.72L381.352 228.903L381.703 229.097ZM387.279 218.676L387.262 218.659L386.979 218.941L386.996 218.958L387.279 218.676ZM387.12 219H388.735V218.6H387.12V219ZM388.535 218.8V218.817H388.935V218.8H388.535ZM388.56 218.913L394.153 229.096L394.504 228.904L388.911 218.721L388.56 218.913ZM394.328 228.8H392.73V229.2H394.328V228.8ZM384.927 225.919H390.928V225.519H384.927V225.919ZM391.104 225.623L388.112 220.166L387.761 220.358L390.753 225.815L391.104 225.623ZM387.761 220.165L384.752 225.622L385.103 225.816L388.112 220.359L387.761 220.165ZM403.323 229H403.123V229.2H403.323V229ZM403.323 218.8V218.6H403.123V218.8H403.323ZM404.717 220.16V219.96H404.517V220.16H404.717ZM404.717 227.64H404.517V227.84H404.717V227.64ZM409.137 219C411.977 219 413.598 219.534 414.511 220.355C415.417 221.17 415.669 222.306 415.669 223.628H416.069C416.069 222.264 415.811 220.986 414.779 220.058C413.754 219.137 412.009 218.6 409.137 218.6V219ZM415.669 223.628V224.376H416.069V223.628H415.669ZM415.669 224.376C415.669 225.672 415.418 226.754 414.515 227.524C413.602 228.303 411.979 228.8 409.137 228.8V229.2C412.006 229.2 413.75 228.702 414.775 227.828C415.81 226.945 416.069 225.715 416.069 224.376H415.669ZM409.137 228.8H403.323V229.2H409.137V228.8ZM403.523 229V218.8H403.123V229H403.523ZM403.323 219H409.137V218.6H403.323V219ZM414.641 224.376V223.628H414.241V224.376H414.641ZM414.641 223.628C414.641 222.544 414.433 221.598 413.595 220.94C412.774 220.294 411.389 219.96 409.137 219.96V220.36C411.373 220.36 412.639 220.697 413.348 221.254C414.041 221.799 414.241 222.587 414.241 223.628H414.641ZM409.137 219.96H404.717V220.36H409.137V219.96ZM404.517 220.16V227.64H404.917V220.16H404.517ZM404.717 227.84H409.137V227.44H404.717V227.84ZM409.137 227.84C411.444 227.84 412.83 227.536 413.636 226.933C414.465 226.314 414.641 225.414 414.641 224.376H414.241C414.241 225.378 414.069 226.11 413.397 226.613C412.703 227.132 411.436 227.44 409.137 227.44V227.84ZM429.747 220.041V220.241H429.947V220.041H429.747ZM420.737 220.041V219.841H420.537V220.041H420.737ZM420.737 223.407H420.537V223.607H420.737V223.407ZM428.863 223.407H429.063V223.207H428.863V223.407ZM428.863 224.648V224.848H429.063V224.648H428.863ZM420.737 224.648V224.448H420.537V224.648H420.737ZM420.737 227.759H420.537V227.959H420.737V227.759ZM429.747 227.759H429.947V227.559H429.747V227.759ZM429.747 229V229.2H429.947V229H429.747ZM419.343 229H419.143V229.2H419.343V229ZM419.343 218.8V218.6H419.143V218.8H419.343ZM429.747 218.8H429.947V218.6H429.747V218.8ZM429.747 219.841H420.737V220.241H429.747V219.841ZM420.537 220.041V223.407H420.937V220.041H420.537ZM420.737 223.607H428.863V223.207H420.737V223.607ZM428.663 223.407V224.648H429.063V223.407H428.663ZM428.863 224.448H420.737V224.848H428.863V224.448ZM420.537 224.648V227.759H420.937V224.648H420.537ZM420.737 227.959H429.747V227.559H420.737V227.959ZM429.547 227.759V229H429.947V227.759H429.547ZM429.747 228.8H419.343V229.2H429.747V228.8ZM419.543 229V218.8H419.143V229H419.543ZM419.343 219H429.747V218.6H419.343V219ZM429.547 218.8V220.041H429.947V218.8H429.547ZM448.843 218.8V218.6H448.725L448.668 218.704L448.843 218.8ZM450.407 218.8L450.582 218.896L450.745 218.6H450.407V218.8ZM444.797 229V229.2H444.915L444.972 229.096L444.797 229ZM443.148 229L442.973 229.096L443.03 229.2H443.148V229ZM437.538 218.8V218.6H437.2L437.363 218.896L437.538 218.8ZM439.187 218.8L439.362 218.704L439.305 218.6H439.187V218.8ZM444.015 227.572L443.84 227.668L444.015 227.987L444.19 227.668L444.015 227.572ZM448.843 219H450.407V218.6H448.843V219ZM450.232 218.704L444.622 228.904L444.972 229.096L450.582 218.896L450.232 218.704ZM444.797 228.8H443.148V229.2H444.797V228.8ZM443.323 228.904L437.713 218.704L437.363 218.896L442.973 229.096L443.323 228.904ZM437.538 219H439.187V218.6H437.538V219ZM439.012 218.896L443.84 227.668L444.19 227.476L439.362 218.704L439.012 218.896ZM444.19 227.668L449.018 218.896L448.668 218.704L443.84 227.476L444.19 227.668ZM462.901 220.041V220.241H463.101V220.041H462.901ZM453.891 220.041V219.841H453.691V220.041H453.891ZM453.891 223.407H453.691V223.607H453.891V223.407ZM462.017 223.407H462.217V223.207H462.017V223.407ZM462.017 224.648V224.848H462.217V224.648H462.017ZM453.891 224.648V224.448H453.691V224.648H453.891ZM453.891 227.759H453.691V227.959H453.891V227.759ZM462.901 227.759H463.101V227.559H462.901V227.759ZM462.901 229V229.2H463.101V229H462.901ZM452.497 229H452.297V229.2H452.497V229ZM452.497 218.8V218.6H452.297V218.8H452.497ZM462.901 218.8H463.101V218.6H462.901V218.8ZM462.901 219.841H453.891V220.241H462.901V219.841ZM453.691 220.041V223.407H454.091V220.041H453.691ZM453.891 223.607H462.017V223.207H453.891V223.607ZM461.817 223.407V224.648H462.217V223.407H461.817ZM462.017 224.448H453.891V224.848H462.017V224.448ZM453.691 224.648V227.759H454.091V224.648H453.691ZM453.891 227.959H462.901V227.559H453.891V227.959ZM462.701 227.759V229H463.101V227.759H462.701ZM462.901 228.8H452.497V229.2H462.901V228.8ZM452.697 229V218.8H452.297V229H452.697ZM452.497 219H462.901V218.6H452.497V219ZM462.701 218.8V220.041H463.101V218.8H462.701ZM475.972 218.8V218.6H475.772V218.8H475.972ZM477.366 218.8H477.566V218.6H477.366V218.8ZM477.366 229V229.2H477.566V229H477.366ZM475.496 229L475.349 229.136L475.408 229.2H475.496V229ZM467.438 220.296L467.584 220.16L467.238 219.786V220.296H467.438ZM467.438 229V229.2H467.638V229H467.438ZM466.044 229H465.844V229.2H466.044V229ZM466.044 218.8V218.6H465.844V218.8H466.044ZM467.897 218.8L468.043 218.664L467.984 218.6H467.897V218.8ZM475.972 227.504L475.825 227.64L476.172 228.014V227.504H475.972ZM475.972 219H477.366V218.6H475.972V219ZM477.166 218.8V229H477.566V218.8H477.166ZM477.366 228.8H475.496V229.2H477.366V228.8ZM475.642 228.864L467.584 220.16L467.291 220.432L475.349 229.136L475.642 228.864ZM467.238 220.296V229H467.638V220.296H467.238ZM467.438 228.8H466.044V229.2H467.438V228.8ZM466.244 229V218.8H465.844V229H466.244ZM466.044 219H467.897V218.6H466.044V219ZM467.75 218.936L475.825 227.64L476.118 227.368L468.043 218.664L467.75 218.936ZM476.172 227.504V218.8H475.772V227.504H476.172ZM490.746 218.8H490.946V218.6H490.746V218.8ZM490.746 220.126V220.326H490.946V220.126H490.746ZM485.782 220.126V219.926H485.582V220.126H485.782ZM485.782 229V229.2H485.982V229H485.782ZM484.388 229H484.188V229.2H484.388V229ZM484.388 220.126H484.588V219.926H484.388V220.126ZM479.424 220.126H479.224V220.326H479.424V220.126ZM479.424 218.8V218.6H479.224V218.8H479.424ZM490.546 218.8V220.126H490.946V218.8H490.546ZM490.746 219.926H485.782V220.326H490.746V219.926ZM485.582 220.126V229H485.982V220.126H485.582ZM485.782 228.8H484.388V229.2H485.782V228.8ZM484.588 229V220.126H484.188V229H484.588ZM484.388 219.926H479.424V220.326H484.388V219.926ZM479.624 220.126V218.8H479.224V220.126H479.624ZM479.424 219H490.746V218.6H479.424V219ZM500.956 229L500.781 229.096L500.838 229.2H500.956V229ZM499.902 227.079L500.077 226.983L500.02 226.879H499.902V227.079ZM492.405 227.079V226.879H492.287L492.23 226.983L492.405 227.079ZM491.351 229V229.2H491.469L491.526 229.096L491.351 229ZM489.753 229L489.578 228.903L489.414 229.2H489.753V229ZM495.363 218.817L495.538 218.914L495.611 218.782L495.504 218.676L495.363 218.817ZM495.346 218.8V218.6H494.863L495.205 218.941L495.346 218.8ZM496.961 218.8H497.161V218.6H496.961V218.8ZM496.961 218.817H496.761V218.868L496.786 218.913L496.961 218.817ZM502.554 229V229.2H502.892L502.729 228.904L502.554 229ZM493.153 225.719L492.978 225.622L492.814 225.919H493.153V225.719ZM499.154 225.719V225.919H499.492L499.329 225.623L499.154 225.719ZM496.162 220.262L496.337 220.166L496.162 219.847L495.987 220.165L496.162 220.262ZM501.131 228.904L500.077 226.983L499.727 227.175L500.781 229.096L501.131 228.904ZM499.902 226.879H492.405V227.279H499.902V226.879ZM492.23 226.983L491.176 228.904L491.526 229.096L492.58 227.175L492.23 226.983ZM491.351 228.8H489.753V229.2H491.351V228.8ZM489.928 229.097L495.538 218.914L495.188 218.72L489.578 228.903L489.928 229.097ZM495.504 218.676L495.487 218.659L495.205 218.941L495.222 218.958L495.504 218.676ZM495.346 219H496.961V218.6H495.346V219ZM496.761 218.8V218.817H497.161V218.8H496.761ZM496.786 218.913L502.379 229.096L502.729 228.904L497.136 218.721L496.786 218.913ZM502.554 228.8H500.956V229.2H502.554V228.8ZM493.153 225.919H499.154V225.519H493.153V225.919ZM499.329 225.623L496.337 220.166L495.987 220.358L498.979 225.815L499.329 225.623ZM495.987 220.165L492.978 225.622L493.328 225.816L496.337 220.359L495.987 220.165ZM514.67 218.8V218.6H514.47V218.8H514.67ZM516.064 218.8H516.264V218.6H516.064V218.8ZM516.064 229V229.2H516.264V229H516.064ZM514.194 229L514.047 229.136L514.106 229.2H514.194V229ZM506.136 220.296L506.283 220.16L505.936 219.786V220.296H506.136ZM506.136 229V229.2H506.336V229H506.136ZM504.742 229H504.542V229.2H504.742V229ZM504.742 218.8V218.6H504.542V218.8H504.742ZM506.595 218.8L506.741 218.664L506.682 218.6H506.595V218.8ZM514.67 227.504L514.523 227.64L514.87 228.014V227.504H514.67ZM514.67 219H516.064V218.6H514.67V219ZM515.864 218.8V229H516.264V218.8H515.864ZM516.064 228.8H514.194V229.2H516.064V228.8ZM514.341 228.864L506.283 220.16L505.989 220.432L514.047 229.136L514.341 228.864ZM505.936 220.296V229H506.336V220.296H505.936ZM506.136 228.8H504.742V229.2H506.136V228.8ZM504.942 229V218.8H504.542V229H504.942ZM504.742 219H506.595V218.6H504.742V219ZM506.448 218.936L514.523 227.64L514.816 227.368L506.741 218.664L506.448 218.936ZM514.87 227.504V218.8H514.47V227.504H514.87ZM529.461 229L529.286 229.096L529.342 229.2H529.461V229ZM528.407 227.079L528.582 226.983L528.525 226.879H528.407V227.079ZM520.91 227.079V226.879H520.791L520.735 226.983L520.91 227.079ZM519.856 229V229.2H519.974L520.031 229.096L519.856 229ZM518.258 229L518.083 228.903L517.919 229.2H518.258V229ZM523.868 218.817L524.043 218.914L524.116 218.782L524.009 218.676L523.868 218.817ZM523.851 218.8V218.6H523.368L523.709 218.941L523.851 218.8ZM525.466 218.8H525.666V218.6H525.466V218.8ZM525.466 218.817H525.266V218.868L525.291 218.913L525.466 218.817ZM531.059 229V229.2H531.397L531.234 228.904L531.059 229ZM521.658 225.719L521.483 225.622L521.319 225.919H521.658V225.719ZM527.659 225.719V225.919H527.997L527.834 225.623L527.659 225.719ZM524.667 220.262L524.842 220.166L524.667 219.847L524.492 220.165L524.667 220.262ZM529.636 228.904L528.582 226.983L528.232 227.175L529.286 229.096L529.636 228.904ZM528.407 226.879H520.91V227.279H528.407V226.879ZM520.735 226.983L519.681 228.904L520.031 229.096L521.085 227.175L520.735 226.983ZM519.856 228.8H518.258V229.2H519.856V228.8ZM518.433 229.097L524.043 218.914L523.693 218.72L518.083 228.903L518.433 229.097ZM524.009 218.676L523.992 218.659L523.709 218.941L523.726 218.958L524.009 218.676ZM523.851 219H525.466V218.6H523.851V219ZM525.266 218.8V218.817H525.666V218.8H525.266ZM525.291 218.913L530.884 229.096L531.234 228.904L525.641 218.721L525.291 218.913ZM531.059 228.8H529.461V229.2H531.059V228.8ZM521.658 225.919H527.659V225.519H521.658V225.919ZM527.834 225.623L524.842 220.166L524.491 220.358L527.483 225.815L527.834 225.623ZM524.492 220.165L521.483 225.622L521.833 225.816L524.842 220.359L524.492 220.165ZM543.056 221.996H542.856V222.196H543.056V221.996ZM538.381 223.118L538.4 222.919L538.4 222.919L538.381 223.118ZM532.499 225.668V225.468H532.299V225.668H532.499ZM533.893 225.668H534.093V225.468H533.893V225.668ZM538.279 224.478L538.258 224.677L538.26 224.677L538.279 224.478ZM544.45 221.996V222.196H544.65V221.996H544.45ZM543.256 221.996C543.256 221.2 542.754 220.645 541.946 220.301C541.146 219.96 540.014 219.807 538.653 219.807V220.207C539.995 220.207 541.063 220.36 541.789 220.669C542.508 220.975 542.856 221.415 542.856 221.996H543.256ZM538.653 219.807C537.246 219.807 536.049 219.896 535.199 220.102C534.776 220.204 534.422 220.339 534.169 220.518C533.913 220.7 533.744 220.942 533.744 221.248H534.144C534.144 221.112 534.213 220.978 534.401 220.844C534.593 220.708 534.89 220.588 535.293 220.49C536.097 220.296 537.255 220.207 538.653 220.207V219.807ZM533.744 221.248V221.503H534.144V221.248H533.744ZM533.744 221.503C533.744 221.685 533.77 221.886 533.898 222.082C534.024 222.276 534.235 222.442 534.556 222.588C535.19 222.877 536.33 223.122 538.362 223.317L538.4 222.919C536.369 222.723 535.289 222.483 534.722 222.224C534.441 222.096 534.304 221.972 534.233 221.864C534.164 221.758 534.144 221.644 534.144 221.503H533.744ZM538.361 223.317C540.383 223.513 541.842 223.716 542.797 224.122C543.269 224.323 543.602 224.568 543.819 224.874C544.034 225.177 544.148 225.559 544.148 226.059H544.548C544.548 225.496 544.419 225.028 544.145 224.642C543.872 224.258 543.469 223.974 542.953 223.754C541.932 223.319 540.408 223.114 538.4 222.919L538.361 223.317ZM544.148 226.059V226.297H544.548V226.059H544.148ZM544.148 226.297C544.148 226.754 544.044 227.139 543.834 227.462C543.624 227.786 543.299 228.062 542.835 228.287C541.898 228.74 540.423 228.97 538.296 228.97V229.37C540.436 229.37 541.987 229.141 543.009 228.647C543.524 228.398 543.912 228.078 544.17 227.679C544.428 227.281 544.548 226.817 544.548 226.297H544.148ZM538.296 228.97C536.314 228.97 534.909 228.644 534.006 228.072C533.117 227.509 532.699 226.699 532.699 225.668H532.299C532.299 226.83 532.782 227.771 533.792 228.41C534.788 229.041 536.282 229.37 538.296 229.37V228.97ZM532.499 225.868H533.893V225.468H532.499V225.868ZM533.693 225.668C533.693 226.051 533.787 226.398 533.986 226.701C534.184 227.002 534.479 227.248 534.863 227.441C535.626 227.823 536.764 228.01 538.296 228.01V227.61C536.784 227.61 535.721 227.423 535.043 227.083C534.707 226.914 534.472 226.712 534.32 226.481C534.169 226.251 534.093 225.982 534.093 225.668H533.693ZM538.296 228.01C539.498 228.01 540.675 227.934 541.558 227.699C541.998 227.582 542.382 227.422 542.66 227.198C542.943 226.97 543.12 226.671 543.12 226.297H542.72C542.72 226.527 542.618 226.719 542.409 226.887C542.194 227.06 541.871 227.202 541.455 227.313C540.625 227.533 539.49 227.61 538.296 227.61V228.01ZM543.12 226.297V226.059H542.72V226.297H543.12ZM543.12 226.059C543.12 225.887 543.092 225.693 542.958 225.503C542.827 225.317 542.61 225.158 542.278 225.015C541.62 224.731 540.432 224.483 538.298 224.279L538.26 224.677C540.393 224.881 541.525 225.126 542.12 225.382C542.415 225.509 542.559 225.631 542.631 225.734C542.7 225.832 542.72 225.933 542.72 226.059H543.12ZM538.299 224.279C536.253 224.066 534.846 223.847 533.951 223.434C533.509 223.23 533.206 222.985 533.01 222.682C532.815 222.379 532.716 221.999 532.716 221.503H532.316C532.316 222.053 532.427 222.514 532.674 222.899C532.922 223.283 533.294 223.571 533.783 223.797C534.75 224.242 536.225 224.465 538.258 224.677L538.299 224.279ZM532.716 221.503V221.248H532.316V221.503H532.716ZM532.716 221.248C532.716 220.865 532.817 220.535 533.026 220.25C533.237 219.963 533.566 219.709 534.04 219.499C534.993 219.077 536.493 218.847 538.653 218.847V218.447C536.478 218.447 534.909 218.676 533.878 219.134C533.359 219.363 532.966 219.655 532.704 220.013C532.439 220.374 532.316 220.789 532.316 221.248H532.716ZM538.653 218.847C540.468 218.847 541.877 219.097 542.826 219.617C543.297 219.875 543.65 220.198 543.887 220.587C544.123 220.975 544.25 221.441 544.25 221.996H544.65C544.65 221.378 544.508 220.838 544.229 220.379C543.949 219.92 543.539 219.552 543.018 219.266C541.982 218.698 540.492 218.447 538.653 218.447V218.847ZM544.45 221.796H543.056V222.196H544.45V221.796Z" fill="black" mask="url(#path-5-outside-1_2_7)"/>
<rect x="292.5" y="236.5" width="12" height="12" stroke="black"/>
<rect x="309.5" y="236.5" width="12" height="12" stroke="black"/>
<rect x="292.5" y="252.5" width="12" height="12" stroke="black"/>
<rect x="309.5" y="252.5" width="12" height="12" stroke="black"/>
</svg>
