<svg xmlns="http://www.w3.org/2000/svg" xmlns:xlink="http://www.w3.org/1999/xlink" x="0px" y="0px" viewBox="0 0 209 47" style="enable-background:new 0 0 209 47;" xml:space="preserve">
<path d="M6.8,47h-3V6.7l3,1.8V47z"/>
<path d="M3,47H0V21.9l3-2V47z" fill="#edc701"/>
<path d="M25,23.1l-2.5-0.9l-7.8-2.8V47H32V25.6L25,23.1z M18,24.4l4.5,1.5V34H18V24.4L18,24.4z M18,43.5v-6.9h4.5v6.9H18z M29.4,43.5H25v-6.9h4.5V43.5z M25,34v-7.3l4.5,1.5V34H25z" fill="#edc701"/>
<path d="M13,43.5h-2V5.9L15.1,8l2.5,1.3l3.3,1.7v7.5l2.6,1.1V9l-5.9-3.4l-2.5-1.4L7.7,0v47H13V43.5z"/>
<path d="M194.6,32.6V13.9h7.2c1.5,0,2.8,0.3,3.8,0.8c1,0.5,1.8,1.2,2.2,2.1c0.5,0.9,0.7,1.8,0.7,2.9c0,1-0.2,1.9-0.7,2.8c-0.5,0.9-1.2,1.6-2.2,2.1c-1,0.5-2.3,0.8-3.9,0.8h-3.2v7.2H194.6z M204.2,32.6l-3.8-8.1h4.3l4,8.1H204.2z M198.6,22.5h3c1,0,1.7-0.2,2.2-0.7c0.5-0.5,0.7-1.1,0.7-1.9c0-0.8-0.2-1.4-0.7-1.9c-0.5-0.5-1.2-0.7-2.2-0.7h-3V22.5z"/>
<path d="M177,32.9c-1.8,0-3.4-0.4-4.8-1.2c-1.4-0.8-2.5-1.9-3.3-3.4c-0.8-1.5-1.2-3.1-1.2-5s0.4-3.6,1.2-5c0.8-1.5,1.9-2.6,3.3-3.4s3-1.2,4.8-1.2c1.8,0,3.4,0.4,4.8,1.2s2.5,2,3.2,3.4c0.8,1.4,1.2,3.1,1.2,5s-0.4,3.6-1.2,5c-0.8,1.4-1.8,2.6-3.2,3.4C180.4,32.5,178.8,32.9,177,32.9z M177,29.3c1.1,0,2-0.2,2.8-0.7c0.8-0.5,1.4-1.2,1.8-2.1c0.4-0.9,0.6-2,0.6-3.2s-0.2-2.3-0.6-3.2c-0.4-0.9-1-1.6-1.8-2.1c-0.8-0.5-1.7-0.7-2.8-0.7c-1,0-2,0.2-2.7,0.7c-0.8,0.5-1.4,1.2-1.8,2.1c-0.4,0.9-0.6,2-0.6,3.2s0.2,2.3,0.6,3.2c0.4,0.9,1,1.6,1.8,2.1C175,29.1,176,29.3,177,29.3z"/>
<path d="M150.8,32.9c-1.8,0-3.4-0.4-4.8-1.2c-1.4-0.8-2.5-1.9-3.3-3.4c-0.8-1.5-1.2-3.1-1.2-5s0.4-3.6,1.2-5c0.8-1.5,1.9-2.6,3.3-3.4c1.4-0.8,3-1.2,4.8-1.2c1.8,0,3.4,0.4,4.8,1.2c1.4,0.8,2.5,2,3.2,3.4c0.8,1.4,1.2,3.1,1.2,5s-0.4,3.6-1.2,5c-0.8,1.4-1.8,2.6-3.2,3.4C154.2,32.5,152.6,32.9,150.8,32.9z M150.8,29.3c1.1,0,2-0.2,2.8-0.7c0.8-0.5,1.4-1.2,1.8-2.1c0.4-0.9,0.6-2,0.6-3.2s-0.2-2.3-0.6-3.2c-0.4-0.9-1-1.6-1.8-2.1c-0.8-0.5-1.7-0.7-2.8-0.7c-1,0-2,0.2-2.7,0.7c-0.8,0.5-1.4,1.2-1.8,2.1c-0.4,0.9-0.6,2-0.6,3.2s0.2,2.3,0.6,3.2c0.4,0.9,1,1.6,1.8,2.1C148.8,29.1,149.7,29.3,150.8,29.3z"/>
<path d="M117.8,32.6V13.9h6.5c2.2,0,3.9,0.4,5.3,1.2c1.4,0.8,2.5,1.8,3.1,3.2c0.7,1.4,1,3,1,4.9c0,1.9-0.3,3.5-1,4.9c-0.7,1.4-1.7,2.5-3.1,3.2c-1.4,0.8-3.2,1.2-5.3,1.2H117.8z M121.8,29.1h2.2c1.4,0,2.6-0.2,3.4-0.7c0.8-0.5,1.4-1.2,1.8-2c0.4-0.9,0.5-1.9,0.5-3.2c0-1.2-0.2-2.3-0.5-3.2c-0.3-0.9-0.9-1.6-1.8-2c-0.8-0.5-2-0.7-3.4-0.7h-2.2V29.1z"/>
<path d="M92.7,32.6V13.9h4l8.2,12.2V13.9h4v18.6h-4l-8.2-12.2v12.2H92.7z"/>
<path d="M79.8,32.6V13.9h4v18.6H79.8z"/>
<path d="M50.8,32.6l-4.8-18.6h4.3l3,14.2l3.6-14.2h4.4l3.5,14.1l3-14.1h4.3l-5,18.6h-4.8l-3.3-13l-3.4,13H50.8z"/>
</svg>
